<svg id="AppStore" xmlns="http://www.w3.org/2000/svg" xmlns:xlink="http://www.w3.org/1999/xlink" width="194.036" height="57.492" viewBox="0 0 194.036 57.492">
  <defs>
    <linearGradient id="linear-gradient" x1="-0.409" y1="0.936" x2="-0.409" y2="0.985" gradientUnits="objectBoundingBox">
      <stop offset="0" stop-color="#1a1a1a" stop-opacity="0.102"/>
      <stop offset="0.123" stop-color="#212121" stop-opacity="0.153"/>
      <stop offset="0.308" stop-color="#353535" stop-opacity="0.227"/>
      <stop offset="0.532" stop-color="#575757" stop-opacity="0.318"/>
      <stop offset="0.783" stop-color="#858585" stop-opacity="0.42"/>
      <stop offset="1" stop-color="#b3b3b3" stop-opacity="0.51"/>
    </linearGradient>
  </defs>
  <path id="Path_213" data-name="Path 213" d="M207.965,65.946a5.507,5.507,0,0,1-5.508,5.506H22.016A5.514,5.514,0,0,1,16.5,65.946V22.035a5.522,5.522,0,0,1,5.521-5.514H202.449a5.513,5.513,0,0,1,5.514,5.512h0V65.946Z" transform="translate(-15.215 -15.241)" fill="#fff"/>
  <path id="Path_214" data-name="Path 214" d="M187.236,57.523H6.8A6.8,6.8,0,0,1,0,50.736V6.826A6.806,6.806,0,0,1,6.8.031H187.234a6.808,6.808,0,0,1,6.8,6.795v43.91a6.8,6.8,0,0,1-6.8,6.787Z" transform="translate(0 -0.031)" fill="#a6a6a6"/>
  <path id="Path_215" data-name="Path 215" d="M207.965,65.946a5.507,5.507,0,0,1-5.508,5.506H22.016A5.514,5.514,0,0,1,16.5,65.946V22.035a5.522,5.522,0,0,1,5.521-5.514H202.449a5.513,5.513,0,0,1,5.514,5.512h0V65.946Z" transform="translate(-15.215 -15.241)"/>
  <path id="Path_216" data-name="Path 216" d="M262.009,134.728a8.334,8.334,0,0,1,3.971-6.993,8.539,8.539,0,0,0-6.724-3.635c-2.829-.3-5.573,1.692-7.014,1.692-1.47,0-3.689-1.663-6.08-1.615a8.953,8.953,0,0,0-7.536,4.595c-3.259,5.64-.828,13.929,2.294,18.487,1.562,2.234,3.387,4.726,5.775,4.638,2.337-.095,3.21-1.488,6.03-1.488,2.794,0,3.614,1.488,6.05,1.432,2.508-.039,4.087-2.243,5.594-4.5a18.429,18.429,0,0,0,2.558-5.209,8.063,8.063,0,0,1-4.918-7.41Zm-4.6-13.627a8.2,8.2,0,0,0,1.878-5.879,8.359,8.359,0,0,0-5.4,2.795,7.805,7.805,0,0,0-1.927,5.662,6.9,6.9,0,0,0,5.453-2.578Z" transform="translate(-218.682 -106.285)" fill="#fff"/>
  <path id="Path_217" data-name="Path 217" d="M1264.125.031h-96.646l37.855,57.492h58.792a6.806,6.806,0,0,0,6.8-6.792V6.826A6.807,6.807,0,0,0,1264.125.031Z" transform="translate(-1076.889 -0.031)" fill="url(#linear-gradient)"/>
  <g id="Group_1388" data-name="Group 1388" transform="translate(61.018 25.877)">
    <path id="Path_218" data-name="Path 218" d="M802.532,352.942h-3.266l-1.789-5.62h-6.218l-1.7,5.62h-3.18l6.162-19.133h3.805l6.189,19.133Zm-5.594-7.978-1.618-5q-.257-.766-.965-3.6H794.3q-.285,1.221-.909,3.6l-1.591,5Zm21.41.91a7.811,7.811,0,0,1-1.913,5.563,5.609,5.609,0,0,1-4.254,1.817,4.259,4.259,0,0,1-3.94-1.957v7.239h-3.066V343.681q0-2.21-.114-4.535h2.7l.171,2.187h.057a5.455,5.455,0,0,1,8.731-.542,7.627,7.627,0,0,1,1.631,5.084Zm-3.123.112a5.686,5.686,0,0,0-.909-3.322,3.141,3.141,0,0,0-2.669-1.362,3.189,3.189,0,0,0-2.058.752,3.488,3.488,0,0,0-1.207,1.974,4.006,4.006,0,0,0-.142.933v2.3a3.69,3.69,0,0,0,.923,2.542,3.065,3.065,0,0,0,2.4,1.037,3.142,3.142,0,0,0,2.7-1.334A5.87,5.87,0,0,0,815.224,345.987Zm19-.112a7.811,7.811,0,0,1-1.913,5.563,5.612,5.612,0,0,1-4.255,1.817,4.258,4.258,0,0,1-3.94-1.957v7.239h-3.066V343.681q0-2.21-.114-4.535h2.7l.171,2.187h.057a5.457,5.457,0,0,1,8.732-.542,7.635,7.635,0,0,1,1.631,5.084Zm-3.125.112a5.687,5.687,0,0,0-.91-3.322,3.136,3.136,0,0,0-2.666-1.362,3.2,3.2,0,0,0-2.061.752,3.485,3.485,0,0,0-1.205,1.974,4.09,4.09,0,0,0-.144.933v2.3a3.7,3.7,0,0,0,.922,2.542,3.072,3.072,0,0,0,2.4,1.037,3.139,3.139,0,0,0,2.7-1.334A5.871,5.871,0,0,0,831.1,345.987Zm20.871,1.589a5.11,5.11,0,0,1-1.7,3.975,7.542,7.542,0,0,1-5.213,1.675,9.1,9.1,0,0,1-4.956-1.192l.709-2.555a8.531,8.531,0,0,0,4.429,1.193,4.179,4.179,0,0,0,2.7-.781,2.55,2.55,0,0,0,.968-2.085,2.672,2.672,0,0,0-.8-1.96,7.385,7.385,0,0,0-2.64-1.475q-5.026-1.874-5.028-5.481a4.838,4.838,0,0,1,1.775-3.86,7.018,7.018,0,0,1,4.7-1.505,9.289,9.289,0,0,1,4.344.909l-.769,2.5a7.6,7.6,0,0,0-3.677-.88,3.74,3.74,0,0,0-2.537.8,2.275,2.275,0,0,0-.769,1.734,2.343,2.343,0,0,0,.882,1.873,9.934,9.934,0,0,0,2.781,1.475,9.432,9.432,0,0,1,3.634,2.326,4.847,4.847,0,0,1,1.169,3.318Zm10.163-6.129H858.75v6.7q0,2.556,1.789,2.553a5.387,5.387,0,0,0,1.362-.142l.085,2.328a6.948,6.948,0,0,1-2.384.339,3.675,3.675,0,0,1-2.84-1.108,5.434,5.434,0,0,1-1.023-3.719v-6.954h-2.013v-2.3h2.013v-2.526l3.011-.909v3.435h3.379v2.306Zm15.218,4.484a7.567,7.567,0,0,1-1.818,5.223,6.481,6.481,0,0,1-5.053,2.1,6.177,6.177,0,0,1-4.842-2.013,7.337,7.337,0,0,1-1.8-5.081,7.506,7.506,0,0,1,1.859-5.25,6.446,6.446,0,0,1,5.013-2.044,6.307,6.307,0,0,1,4.882,2.016,7.242,7.242,0,0,1,1.762,5.049Zm-3.178.07a6.175,6.175,0,0,0-.821-3.255,3.035,3.035,0,0,0-2.755-1.643,3.079,3.079,0,0,0-2.811,1.643,6.279,6.279,0,0,0-.823,3.313,6.159,6.159,0,0,0,.823,3.256,3.145,3.145,0,0,0,5.541-.027,6.2,6.2,0,0,0,.847-3.287Zm13.148-4.159a5.343,5.343,0,0,0-.966-.085,2.894,2.894,0,0,0-2.5,1.222,4.6,4.6,0,0,0-.765,2.724v7.239H880.02v-9.451q0-2.172-.089-4.343H882.6l.112,2.64h.085a4.734,4.734,0,0,1,1.533-2.187,3.708,3.708,0,0,1,2.216-.739,4.929,4.929,0,0,1,.767.056l0,2.924Zm13.712,3.55a7.178,7.178,0,0,1-.112,1.39h-9.2a4,4,0,0,0,1.334,3.126,4.565,4.565,0,0,0,3.009.963,10.176,10.176,0,0,0,3.722-.651l.48,2.126a11.509,11.509,0,0,1-4.626.853,6.707,6.707,0,0,1-5.042-1.886,6.973,6.973,0,0,1-1.831-5.066,7.9,7.9,0,0,1,1.706-5.193,5.877,5.877,0,0,1,4.825-2.213,5.143,5.143,0,0,1,4.517,2.213,7.445,7.445,0,0,1,1.217,4.339Zm-2.924-.8a4.149,4.149,0,0,0-.6-2.356,2.678,2.678,0,0,0-2.442-1.28,2.907,2.907,0,0,0-2.44,1.249,4.578,4.578,0,0,0-.907,2.384l6.385,0Z" transform="translate(-786.375 -333.526)" fill="#fff"/>
  </g>
  <g id="Group_1389" data-name="Group 1389" transform="translate(62.813 9.421)">
    <path id="Path_219" data-name="Path 219" d="M811.71,131.423a19.581,19.581,0,0,1-2.2-.112v-9.25a16.69,16.69,0,0,1,2.6-.2c3.516,0,5.135,1.73,5.135,4.549C817.236,129.666,815.323,131.423,811.71,131.423Zm.515-8.372a6.15,6.15,0,0,0-1.214.1v7.032a7.969,7.969,0,0,0,1.018.042c2.3,0,3.615-1.311,3.615-3.767A3.068,3.068,0,0,0,812.224,123.051Zm10.058,8.442a3.227,3.227,0,0,1-3.266-3.488,3.3,3.3,0,0,1,3.378-3.586,3.2,3.2,0,0,1,3.266,3.475,3.322,3.322,0,0,1-3.378,3.6Zm.057-5.972c-1.089,0-1.786,1.018-1.786,2.441,0,1.4.712,2.414,1.772,2.414s1.772-1.088,1.772-2.443c0-1.38-.7-2.412-1.757-2.412Zm14.621-.962-2.121,6.78h-1.382l-.879-2.944a22.294,22.294,0,0,1-.545-2.19h-.029a14.678,14.678,0,0,1-.544,2.19l-.935,2.944h-1.4l-2-6.78h1.549l.768,3.223q.272,1.152.46,2.177h.029a22.309,22.309,0,0,1,.558-2.162l.964-3.236h1.228l.922,3.167c.223.768.4,1.521.545,2.233h.04a19.493,19.493,0,0,1,.46-2.233l.824-3.167Zm7.809,6.78h-1.507v-3.893c0-1.2-.46-1.8-1.368-1.8a1.565,1.565,0,0,0-1.507,1.661v4.033h-1.507V126.5c0-.6-.014-1.242-.056-1.939h1.326l.071,1.047h.042a2.436,2.436,0,0,1,2.15-1.185c1.424,0,2.358,1.088,2.358,2.86v4.06Zm4.156,0h-1.509v-9.891h1.509Zm5.495.154a3.228,3.228,0,0,1-3.266-3.488,3.3,3.3,0,0,1,3.377-3.586,3.2,3.2,0,0,1,3.266,3.475,3.321,3.321,0,0,1-3.377,3.6Zm.056-5.972c-1.089,0-1.786,1.018-1.786,2.441,0,1.4.713,2.414,1.77,2.414s1.772-1.088,1.772-2.443c0-1.38-.695-2.412-1.756-2.412Zm9.263,5.818-.109-.781h-.04a2.315,2.315,0,0,1-1.983.934,1.972,1.972,0,0,1-2.078-2c0-1.673,1.451-2.539,3.963-2.539v-.125c0-.893-.473-1.34-1.408-1.34a3.174,3.174,0,0,0-1.772.5l-.306-.991a4.336,4.336,0,0,1,2.328-.587c1.772,0,2.666.935,2.666,2.8v2.5a10.233,10.233,0,0,0,.1,1.619Zm-.207-3.377c-1.674,0-2.514.405-2.514,1.367a.961.961,0,0,0,1.034,1.06,1.443,1.443,0,0,0,1.48-1.38Zm8.787,3.377-.07-1.088h-.042a2.274,2.274,0,0,1-2.177,1.242c-1.635,0-2.846-1.438-2.846-3.461,0-2.121,1.255-3.614,2.97-3.614a2.038,2.038,0,0,1,1.913.922h.03v-3.892H873.6v8.064c0,.656.016,1.27.056,1.827Zm-.223-3.99a1.64,1.64,0,0,0-1.588-1.758c-1.117,0-1.8.991-1.8,2.385,0,1.367.709,2.3,1.77,2.3a1.692,1.692,0,0,0,1.618-1.8v-1.13Zm11.073,4.143a3.227,3.227,0,0,1-3.265-3.488,3.3,3.3,0,0,1,3.377-3.586,3.2,3.2,0,0,1,3.266,3.475,3.321,3.321,0,0,1-3.378,3.6Zm.056-5.972c-1.087,0-1.785,1.018-1.785,2.441,0,1.4.712,2.414,1.77,2.414s1.772-1.088,1.772-2.443c0-1.38-.694-2.412-1.757-2.412Zm11.427,5.818h-1.509v-3.893c0-1.2-.46-1.8-1.368-1.8a1.564,1.564,0,0,0-1.506,1.661v4.033h-1.509V126.5c0-.6-.014-1.242-.056-1.939h1.326l.07,1.047h.042a2.435,2.435,0,0,1,2.148-1.186c1.424,0,2.36,1.088,2.36,2.86Zm10.14-5.65h-1.658v3.292c0,.838.291,1.257.877,1.257a2.97,2.97,0,0,0,.669-.07l.042,1.144a3.34,3.34,0,0,1-1.169.168c-1.188,0-1.9-.656-1.9-2.372v-3.419h-.99v-1.13h.99v-1.242l1.48-.447v1.688h1.658v1.131Zm7.978,5.65h-1.506v-3.865c0-1.213-.459-1.827-1.368-1.827a1.478,1.478,0,0,0-1.509,1.6v4.087h-1.506v-9.891h1.506v4.073h.03a2.287,2.287,0,0,1,2.039-1.1c1.435,0,2.312,1.116,2.312,2.888v4.033Zm8.174-3.028h-4.523a1.946,1.946,0,0,0,2.137,2.008,5.094,5.094,0,0,0,1.828-.321l.234,1.047a5.662,5.662,0,0,1-2.275.418,3.148,3.148,0,0,1-3.377-3.417c0-2.079,1.286-3.642,3.207-3.642,1.733,0,2.82,1.284,2.82,3.223a2.91,2.91,0,0,1-.052.683Zm-1.382-1.074c0-1.047-.528-1.786-1.491-1.786a1.788,1.788,0,0,0-1.648,1.786Z" transform="translate(-809.505 -121.448)" fill="#fff"/>
  </g>
</svg>
