<svg xmlns="http://www.w3.org/2000/svg" width="31.994" height="36.565" viewBox="0 0 31.994 36.565">
  <path id="bell" d="M15.992,34.279a2.289,2.289,0,0,1-2.285-2.287H11.422a4.571,4.571,0,1,0,9.141,0H18.278A2.289,2.289,0,0,1,15.992,34.279ZM30.945,23.91c-2-1.9-3.524-3.891-3.524-10.634A11.143,11.143,0,0,0,17.135,2.4V1.143a1.143,1.143,0,1,0-2.285,0V2.4A11.142,11.142,0,0,0,4.563,13.276c0,6.743-1.528,8.733-3.524,10.634a3.324,3.324,0,0,0-.8,3.659,3.408,3.408,0,0,0,3.188,2.14H28.561a3.408,3.408,0,0,0,3.188-2.14A3.323,3.323,0,0,0,30.945,23.91Zm-2.384,3.513H3.423a1.084,1.084,0,0,1-.808-1.858C5.1,23.2,6.848,20.543,6.848,13.277a8.928,8.928,0,0,1,9.144-8.706,8.928,8.928,0,0,1,9.144,8.705c0,7.238,1.729,9.905,4.233,12.289A1.085,1.085,0,0,1,28.561,27.423Z" transform="translate(0.005)"/>
</svg>
