<svg id="Call" xmlns="http://www.w3.org/2000/svg" width="77.214" height="77.214" viewBox="0 0 77.214 77.214">
  <rect id="Rectangle_81" data-name="Rectangle 81" width="77.214" height="77.214" rx="30" fill="#0ce0b5"/>
  <path id="phone-1" d="M33.231,29.013l-4.5-3.746A1.2,1.2,0,0,0,27.52,25.2l-2.5,1.665a1.58,1.58,0,0,1-.885.265,10.394,10.394,0,0,1-2.225-.313,13.42,13.42,0,0,1-10-9.993A10.383,10.383,0,0,1,11.6,14.6a1.579,1.579,0,0,1,.265-.884l1.665-2.5a1.184,1.184,0,0,0-.065-1.214l-3.748-4.5a.743.743,0,0,0-1.268,0L5.971,8.55a4.428,4.428,0,0,0-.687,3.536,1.579,1.579,0,0,1,.047.182,8.114,8.114,0,0,0,.247.874,20.3,20.3,0,0,0,1.136,2.715,36.092,36.092,0,0,0,6.9,9.263,36.066,36.066,0,0,0,9.267,6.9A20.315,20.315,0,0,0,25.6,33.157a8.377,8.377,0,0,0,.875.247,1.579,1.579,0,0,1,.219.058,4.329,4.329,0,0,0,3.5-.7l3.035-2.482a.741.741,0,0,0,0-1.268Zm-7.464-6.439a4.334,4.334,0,0,1,4.99.266l4.5,3.746a3.882,3.882,0,0,1-.026,6.14l-3.035,2.481a7.453,7.453,0,0,1-6.419,1.278q-.587-.134-1.159-.327a23.451,23.451,0,0,1-3.143-1.311A39.233,39.233,0,0,1,11.38,27.355,39.227,39.227,0,0,1,3.886,17.268a23.433,23.433,0,0,1-1.311-3.143,11.871,11.871,0,0,1-.331-1.177,7.545,7.545,0,0,1,1.281-6.4L6.008,3.516a3.888,3.888,0,0,1,6.141-.026l3.748,4.5a4.317,4.317,0,0,1,.266,4.989L14.8,15.02A9.336,9.336,0,0,0,14.99,16.1a10.333,10.333,0,0,0,1.6,3.565,10.2,10.2,0,0,0,2.485,2.484,10.34,10.34,0,0,0,3.567,1.6,9.167,9.167,0,0,0,1.077.192l2.048-1.364Z" transform="translate(19.234 19.234)" fill="#fff"/>
</svg>
