<svg xmlns="http://www.w3.org/2000/svg" width="61" height="60" viewBox="0 0 61 60">
  <g id="Group_1783" data-name="Group 1783" transform="translate(-0.065 0.456)">
    <g id="Ellipse_469" data-name="Ellipse 469" transform="translate(0.065 -0.456)" fill="#fff" stroke="#fb0201" stroke-width="1">
      <ellipse cx="30.5" cy="30" rx="30.5" ry="30" stroke="none"/>
      <ellipse cx="30.5" cy="30" rx="30" ry="29.5" fill="none"/>
    </g>
    <path id="shopping-cart-light" d="M21.8,2.527H5.105L4.776.773A.948.948,0,0,0,3.845,0H.474A.474.474,0,0,0,0,.474V.79a.474.474,0,0,0,.474.474H3.582L6.344,15.991a2.528,2.528,0,1,0,4.058.437h5.733a2.527,2.527,0,1,0,3.95-.548.948.948,0,0,0-.92-.716H7.475L7,12.637H20.087a.948.948,0,0,0,.928-.754l1.711-8.214A.948.948,0,0,0,21.8,2.527ZM9.477,17.691a1.264,1.264,0,1,1-1.264-1.264A1.265,1.265,0,0,1,9.477,17.691Zm8.846,1.264a1.264,1.264,0,1,1,1.264-1.264A1.265,1.265,0,0,1,18.323,18.955Zm1.507-7.582H6.764L5.342,3.791H21.409Z" transform="translate(19.028 20.362)" fill="#fb0201"/>
  </g>
</svg>
