<svg xmlns="http://www.w3.org/2000/svg" width="39.844" height="55.514" viewBox="0 0 39.844 55.514">
  <g id="Casting_Calls_Icon" data-name="Casting Calls Icon" transform="translate(-15.8 -2)" style="isolation: isolate">
    <path id="Path_1741" data-name="Path 1741" d="M21.434,33.169a4.334,4.334,0,1,1,0-8.669,4.414,4.414,0,0,1,4.334,4.334A4.3,4.3,0,0,1,21.434,33.169Zm0-7.169A2.667,2.667,0,1,0,24.1,28.668,2.633,2.633,0,0,0,21.434,26Z" transform="translate(0.867 15.01)"/>
    <path id="Path_1742" data-name="Path 1742" d="M25.569,39.236H18.234A1.85,1.85,0,0,1,16.4,37.4v-3a5.016,5.016,0,0,1,5-5h1.334a4.983,4.983,0,0,1,4.835,5v3A2.131,2.131,0,0,1,25.569,39.236Zm-4.334-8.169A3.344,3.344,0,0,0,17.9,34.4v3a.163.163,0,0,0,.167.167H25.4a.163.163,0,0,0,.167-.167v-3A3.314,3.314,0,0,0,22.4,31.067v0Z" transform="translate(0.4 18.279)"/>
    <path id="Path_1743" data-name="Path 1743" d="M29.534,33.169a4.334,4.334,0,1,1,0-8.669,4.334,4.334,0,0,1,0,8.669Zm0-7.169A2.667,2.667,0,1,0,32.2,28.668,2.633,2.633,0,0,0,29.534,26Z" transform="translate(6.271 15.01)"/>
    <path id="Path_1744" data-name="Path 1744" d="M33.669,39.236H26.334A1.85,1.85,0,0,1,24.5,37.4v-3a5.016,5.016,0,0,1,5-5h1.167a4.912,4.912,0,0,1,5,5v3A2.131,2.131,0,0,1,33.669,39.236Zm-4.334-8.169A3.344,3.344,0,0,0,26,34.4v3a.163.163,0,0,0,.167.167h7.5a.163.163,0,0,0,.167-.167v-3A3.344,3.344,0,0,0,30.5,31.067H29.335Z" transform="translate(5.804 18.279)"/>
    <path id="Path_1745" data-name="Path 1745" d="M37.534,33.169a4.334,4.334,0,1,1,4.334-4.334A4.2,4.2,0,0,1,37.534,33.169Zm0-7.169A2.667,2.667,0,1,0,40.2,28.668,2.537,2.537,0,0,0,37.534,26Z" transform="translate(11.608 15.01)"/>
    <path id="Path_1746" data-name="Path 1746" d="M41.769,39.236H34.434A1.85,1.85,0,0,1,32.6,37.4v-3a5.016,5.016,0,0,1,5-5h1.167a5.016,5.016,0,0,1,5,5v3A2.131,2.131,0,0,1,41.769,39.236Zm-4.334-8.169A3.344,3.344,0,0,0,34.1,34.4v3a.163.163,0,0,0,.167.167H41.6a.163.163,0,0,0,.167-.167v-3a3.344,3.344,0,0,0-3.334-3.334h-1Z" transform="translate(11.207 18.279)"/>
    <path id="Path_1747" data-name="Path 1747" d="M53.476,35.908H18.134a2.547,2.547,0,0,1-1.667-.667,2.962,2.962,0,0,1-.667-1.667,2.279,2.279,0,0,1,2.334-2.334h13a42.49,42.49,0,0,1,.333-6.5c.167-.667.333-1.5.667-2.5s.5-2,.667-2.5L32.638,14.4a5.845,5.845,0,0,1-2.334,1H29.97c-1.334-.167-2.5-.834-3.668-5.5h-.5a1.4,1.4,0,0,1-1.334-1A1.358,1.358,0,0,1,25.3,7.067l.667-.167a2.928,2.928,0,0,1,1.667-1.5,2.354,2.354,0,0,1,1.5.167l.333.167a2.166,2.166,0,0,1,2-1.334,2.207,2.207,0,0,1,2.167,2.167,2.207,2.207,0,0,1-2.167,2.167h0a1.5,1.5,0,0,1-.834-.167c0,.333.167.667.167,1a5.281,5.281,0,0,1,3.834-1.5h3.834c3,0,4.168,3,4.835,4.5a8.134,8.134,0,0,0,2.834-.167,1.881,1.881,0,0,1,1.834.5,1.751,1.751,0,0,1,.834,1.5,1.939,1.939,0,0,1-.333,1.667,1.751,1.751,0,0,1-1.5.834,16.174,16.174,0,0,1-2.834.167,7.739,7.739,0,0,1-3.334-.667l-.333,9a46.541,46.541,0,0,0,2.334,6.168H53.476a1.625,1.625,0,0,1,1.5.667,1.81,1.81,0,0,1,.667,1.5A2.207,2.207,0,0,1,53.476,35.908ZM18.134,33.074a.717.717,0,0,0-.667.667.589.589,0,0,0,.667.667H53.476a.717.717,0,0,0,.667-.667c0-.167,0-.333-.167-.333a.516.516,0,0,0-.333-.167H41.807l-.167-.5a48.409,48.409,0,0,1-2.667-6.835v-.167l.167-5.5.167-6.168h.834v-.834h.5l.167.5c.167.167.167.5.333.834.333.834,1.834,1,3,1a15.255,15.255,0,0,0,2.667-.167.582.582,0,0,0,.333-.167.612.612,0,0,0,.167-.5.582.582,0,0,0-.167-.333.516.516,0,0,0-.333-.167,9.882,9.882,0,0,1-3.834,0H42.64l-.5-.5-.167-.5c-.667-1.834-1.5-3.5-3.334-3.5H34.8a4.53,4.53,0,0,0-3.5,2l-1,1.5-.5-1.667a26.647,26.647,0,0,1-.834-3.5l-.167-.5L28.637,7.4a.612.612,0,0,0-.5-.167.532.532,0,0,0-.5.5h0l.167,1c1,5,1.834,5.168,2.334,5.168H30.3a2.733,2.733,0,0,0,1.834-1.167c.167-.167.333-.333.333-.5.167-.167.167-.333.333-.5l1.5-2L34.472,19.9v.167a11.9,11.9,0,0,0-.667,2.667,21.249,21.249,0,0,1-.667,2.334,32.88,32.88,0,0,0-.333,7v.834H18.134Zm7.835-24.34Zm5-2,.167.167c.167,0,.167.167.333.167s.333,0,.333-.167c.167-.167.167-.167.167-.333a.5.5,0,0,0-1,0Zm9,26.34h-5.5v-.834a42.365,42.365,0,0,1,.167-6.5v-.167a27.773,27.773,0,0,0,.834-3.167l.333-1,1.667.333-.333,3.668c0,1,1.167,4,2.334,6.5Zm-4-1.667h1.5c-.667-1.667-1.167-3-1.5-3.834Z" transform="translate(0 1.601)"/>
    <path id="Path_1748" data-name="Path 1748" d="M29.968,10.336A4.127,4.127,0,0,1,25.8,6.168a4.168,4.168,0,0,1,8.336,0A4.127,4.127,0,0,1,29.968,10.336Zm0-6.668a2.564,2.564,0,0,0-2.5,2.5,2.5,2.5,0,0,0,5,0A2.564,2.564,0,0,0,29.968,3.667Z" transform="translate(6.671 0)"/>
  </g>
</svg>
