<svg xmlns="http://www.w3.org/2000/svg" width="30.096" height="31.434" viewBox="0 0 30.096 31.434">
  <path id="cog" d="M46.614,26.46l-2.056-1.193a12.434,12.434,0,0,0,0-3.1l2.056-1.193a1.521,1.521,0,0,0,.7-1.743,15.71,15.71,0,0,0-3.627-6.312,1.507,1.507,0,0,0-1.856-.271l-2.053,1.191a12.221,12.221,0,0,0-2.669-1.551V9.9a1.52,1.52,0,0,0-1.165-1.481,15.661,15.661,0,0,0-7.235,0A1.52,1.52,0,0,0,27.542,9.9v2.384a12.22,12.22,0,0,0-2.669,1.551L22.82,12.648a1.507,1.507,0,0,0-1.856.271,15.711,15.711,0,0,0-3.627,6.312,1.521,1.521,0,0,0,.7,1.743l2.056,1.193a12.434,12.434,0,0,0,0,3.1L18.034,26.46a1.521,1.521,0,0,0-.7,1.743,15.711,15.711,0,0,0,3.627,6.312,1.507,1.507,0,0,0,1.856.271l2.053-1.191a12.219,12.219,0,0,0,2.669,1.551V37.53a1.52,1.52,0,0,0,1.165,1.481,15.661,15.661,0,0,0,7.235,0,1.52,1.52,0,0,0,1.165-1.481V35.146a12.221,12.221,0,0,0,2.669-1.551l2.053,1.191a1.507,1.507,0,0,0,1.856-.271A15.711,15.711,0,0,0,47.31,28.2,1.521,1.521,0,0,0,46.614,26.46Zm-4.128,6.367-2.919-1.695a10.878,10.878,0,0,1-4.478,2.6v3.389a13.616,13.616,0,0,1-5.531,0V33.734a10.879,10.879,0,0,1-4.478-2.6l-2.919,1.695a13.707,13.707,0,0,1-2.769-4.814l2.92-1.695a11.1,11.1,0,0,1,0-5.2l-2.92-1.695a13.716,13.716,0,0,1,2.769-4.815l2.919,1.7a10.862,10.862,0,0,1,4.478-2.6V10.311a13.594,13.594,0,0,1,5.531,0V13.7a10.862,10.862,0,0,1,4.478,2.6l2.919-1.7a13.716,13.716,0,0,1,2.769,4.815l-2.92,1.695a11.1,11.1,0,0,1,0,5.2l2.92,1.695A13.707,13.707,0,0,1,42.486,32.826ZM32.324,17.633a6.084,6.084,0,1,0,6.051,6.084A6.075,6.075,0,0,0,32.324,17.633Zm0,10.14a4.056,4.056,0,1,1,4.034-4.056A4.05,4.05,0,0,1,32.324,27.773Z" transform="translate(-17.276 -8)"/>
</svg>
