<?xml version="1.0" encoding="utf-8"?>
<!-- Generator: Adobe Illustrator 21.0.2, SVG Export Plug-In . SVG Version: 6.00 Build 0)  -->
<svg version="1.1" id="Layer_1" xmlns="http://www.w3.org/2000/svg" xmlns:xlink="http://www.w3.org/1999/xlink" x="0px" y="0px"
	 viewBox="0 0 26.5 35.3" style="enable-background:new 0 0 26.5 35.3;" xml:space="preserve">
<style type="text/css">
	.st0{fill:#3E3E3E;}
</style>
<path class="st0" d="M13.2,1L13.2,1c-0.2,0-0.4,0.1-0.6,0.3c-2.3,3.4-3.2,6.1-2.8,8.2c0.4,1.8,1.7,3.1,3.2,4.5
	c1.7,1.6,3.4,3.3,3.4,5.8c0,3-2.4,5.4-5.4,5.4c0,0,0,0-0.1,0c-2.9,0-5.3-2.5-5.3-5.5v-5.9c0-0.5-0.4-0.7-0.7-0.7
	c-0.2,0-0.3,0.1-0.5,0.2c-0.7,0.7-1.6,1.9-2.4,3.6c-0.7,1.6-1.1,3.3-1.1,5c0,6.8,5.5,12.3,12.3,12.3s12.3-5.5,12.3-12.3
	c0-2.8-0.7-5.1-2.1-7.3c-1.2-1.9-2.9-3.5-4.5-4.9c-2.6-2.4-5-4.7-5-8.2C13.9,1.1,13.5,1,13.2,1 M13.2,0c0.8,0,1.7,0.6,1.7,1.6
	c0,7.1,11.6,8.7,11.6,20.4c0,7.3-5.9,13.3-13.3,13.3S0,29.4,0,22.1c0-4,1.9-7.4,3.8-9.3c0.3-0.4,0.8-0.5,1.2-0.5
	c0.9,0,1.7,0.7,1.7,1.7v5.9c0,2.4,1.9,4.5,4.4,4.5c0,0,0,0,0.1,0c2.4,0,4.4-2,4.4-4.4c0-6.1-12.1-6.6-3.6-19.1
	C12.2,0.2,12.7,0,13.2,0z"/>
</svg>
