<svg xmlns="http://www.w3.org/2000/svg" width="30.614" height="30.614" viewBox="0 0 30.614 30.614">
  <g id="Group_1779" data-name="Group 1779" style="isolation: isolate">
    <path id="ellipsis-h-alt" d="M17.559,184a2.775,2.775,0,1,0,2.775,2.775A2.773,2.773,0,0,0,17.559,184Zm0,4.317a1.542,1.542,0,1,1,1.542-1.542A1.541,1.541,0,0,1,17.559,188.317ZM24.343,184a2.775,2.775,0,1,0,2.775,2.775A2.773,2.773,0,0,0,24.343,184Zm0,4.317a1.542,1.542,0,1,1,1.542-1.542A1.541,1.541,0,0,1,24.343,188.317ZM10.775,184a2.775,2.775,0,1,0,2.775,2.775A2.773,2.773,0,0,0,10.775,184Zm0,4.317a1.542,1.542,0,1,1,1.542-1.542A1.541,1.541,0,0,1,10.775,188.317Z" transform="translate(-2.252 -171.468)" fill="#5f6772"/>
    <path id="circle" d="M23.307,8A15.307,15.307,0,1,0,38.614,23.307,15.3,15.3,0,0,0,23.307,8ZM36.639,23.307A13.332,13.332,0,1,1,23.307,9.975,13.331,13.331,0,0,1,36.639,23.307Z" transform="translate(-8 -8)" fill="#5f6772"/>
  </g>
</svg>
