<svg xmlns="http://www.w3.org/2000/svg" width="51.605" height="51.605" viewBox="0 0 51.605 51.605">
  <g id="Group_1916" data-name="Group 1916" transform="translate(-29.031 -893.879)">
    <rect id="Rectangle_117" data-name="Rectangle 117" width="51.605" height="51.605" rx="25.803" transform="translate(29.031 893.879)" fill="#bbb" opacity="0.3"/>
    <path id="ellipsis-h-alt" d="M23.941,184a4.628,4.628,0,1,0,4.628,4.628A4.625,4.625,0,0,0,23.941,184Zm0,7.2a2.571,2.571,0,1,1,2.571-2.571A2.57,2.57,0,0,1,23.941,191.2ZM35.253,184a4.628,4.628,0,1,0,4.628,4.628A4.625,4.625,0,0,0,35.253,184Zm0,7.2a2.571,2.571,0,1,1,2.571-2.571A2.57,2.57,0,0,1,35.253,191.2ZM12.628,184a4.628,4.628,0,1,0,4.628,4.628A4.625,4.625,0,0,0,12.628,184Zm0,7.2a2.571,2.571,0,1,1,2.571-2.571A2.57,2.57,0,0,1,12.628,191.2Z" transform="translate(30.863 731.547)"/>
  </g>
</svg>
