<svg xmlns="http://www.w3.org/2000/svg" width="58" height="60" viewBox="0 0 58 60">
  <g id="Group_1783" data-name="Group 1783" transform="translate(0.23 0.456)">
    <g id="Ellipse_469" data-name="Ellipse 469" transform="translate(-0.23 -0.456)" fill="#fff" stroke="#fb0201" stroke-width="1">
      <ellipse cx="29" cy="30" rx="29" ry="30" stroke="none"/>
      <ellipse cx="29" cy="30" rx="28.5" ry="29.5" fill="none"/>
    </g>
    <path id="calendar-alt-light" d="M17.827,6.542H.491A.492.492,0,0,1,0,6.051V4.579A1.963,1.963,0,0,1,1.963,2.617H3.925V.491A.492.492,0,0,1,4.416,0H6.051a.492.492,0,0,1,.491.491V2.617h5.234V.491A.492.492,0,0,1,12.266,0H13.9a.492.492,0,0,1,.491.491V2.617h1.963a1.963,1.963,0,0,1,1.963,1.963V6.051A.492.492,0,0,1,17.827,6.542ZM.491,7.85H17.827a.492.492,0,0,1,.491.491V18.972a1.963,1.963,0,0,1-1.963,1.963H1.963A1.963,1.963,0,0,1,0,18.972V8.341A.492.492,0,0,1,.491,7.85Zm4.743,8.341a.492.492,0,0,0-.491-.491H3.107a.492.492,0,0,0-.491.491v1.635a.492.492,0,0,0,.491.491H4.743a.492.492,0,0,0,.491-.491Zm0-5.234a.492.492,0,0,0-.491-.491H3.107a.492.492,0,0,0-.491.491v1.635a.492.492,0,0,0,.491.491H4.743a.492.492,0,0,0,.491-.491Zm5.234,5.234a.492.492,0,0,0-.491-.491H8.341a.492.492,0,0,0-.491.491v1.635a.492.492,0,0,0,.491.491H9.976a.492.492,0,0,0,.491-.491Zm0-5.234a.492.492,0,0,0-.491-.491H8.341a.492.492,0,0,0-.491.491v1.635a.492.492,0,0,0,.491.491H9.976a.492.492,0,0,0,.491-.491ZM15.7,16.191a.492.492,0,0,0-.491-.491H13.575a.492.492,0,0,0-.491.491v1.635a.492.492,0,0,0,.491.491H15.21a.492.492,0,0,0,.491-.491Zm0-5.234a.492.492,0,0,0-.491-.491H13.575a.492.492,0,0,0-.491.491v1.635a.492.492,0,0,0,.491.491H15.21a.492.492,0,0,0,.491-.491Z" transform="translate(20.158 19.838)" fill="none" stroke="#fb0201" stroke-width="1"/>
  </g>
</svg>
