<svg xmlns="http://www.w3.org/2000/svg" width="590.73" height="587.232" viewBox="0 0 590.73 587.232">
  <g id="Group_2055" data-name="Group 2055" transform="translate(-96.28 -326.361)">
    <g id="empty_search" data-name="empty search" transform="translate(96.28 491.01)">
      <path id="Path_2509" data-name="Path 2509" d="M422.359,583.861c-50.118,0-96.4-19.718-130.636-55.869a2.5,2.5,0,0,1-.548-3.013,2.632,2.632,0,0,1,2.465-1.643c45.189,1.643,100.236-4.382,155.558-16.98,53.131-12.324,101.88-29.3,140.5-49.023a2.695,2.695,0,0,1,3.834,3.287A180.291,180.291,0,0,1,422.359,583.862ZM300.487,529.087a175.186,175.186,0,0,0,285.647-63.812c-38.068,18.623-84.626,34.508-135.566,46.558-53.679,12.05-105.44,18.075-150.081,17.254Z" transform="translate(-140.272 -222.352)" fill="#ff4b4a"/>
      <path id="Path_2510" data-name="Path 2510" d="M517.941,373.467a5.079,5.079,0,0,1-1.917-.548,3.091,3.091,0,0,1-.822-3.013,175.528,175.528,0,0,0,9.038-55.87A177.554,177.554,0,0,0,510,244.474a3.241,3.241,0,0,1,.274-2.739,2.67,2.67,0,0,1,2.465-1.1c52.857,4.382,84.626,19.719,90.1,43,6.025,26.839-24.374,59.43-83.8,89.556-.274.274-.548.274-1.1.274Zm-.822-127.076a182.271,182.271,0,0,1,12.872,67.646,179.56,179.56,0,0,1-7.395,51.214c52.309-27.661,80.518-57.513,75.041-80.518-4.382-19.719-33.686-33.686-80.518-38.342Zm-296.6,193.353c-61.895-2.465-100.511-18.349-106.536-44.093-4.93-22.184,14.789-48.475,55.87-74.219a2.488,2.488,0,0,1,2.739,0,2.793,2.793,0,0,1,1.369,2.191,176.684,176.684,0,0,0,48.2,111.465,2.5,2.5,0,0,1,.548,3.013,2.082,2.082,0,0,1-2.191,1.643ZM169.03,328.552c-36.425,23.553-53.952,46.832-49.571,65.729,4.93,21.91,40.259,36.425,94.485,39.437A181.581,181.581,0,0,1,169.03,328.552Z" transform="translate(-67.15 -133.283)" fill="#ff4b4a"/>
      <path id="Path_2511" data-name="Path 2511" d="M274.856,364.642c-5.477,0-10.681,0-16.158-.274a2.486,2.486,0,0,1-1.917-.822,180.711,180.711,0,0,1-49.844-114.478c-.274-3.286-.274-6.847-.274-10.133,0-99.689,81.066-180.754,180.754-180.754A180.57,180.57,0,0,1,568.171,238.936a177.211,177.211,0,0,1-9.585,57.513,4.027,4.027,0,0,1-1.369,1.643c-40.259,20.266-89.282,37.246-141.591,49.3-49.844,11.229-98.319,17.254-140.77,17.254Zm-14.789-5.751c44.915,1.643,99.689-4.382,154.463-16.98,51.488-11.776,99.689-28.482,139.4-48.2A175.085,175.085,0,0,0,387.416,63.659c-96.676,0-175.277,78.6-175.277,175.277,0,3.286,0,6.573.274,9.585a175.512,175.512,0,0,0,47.653,110.37Z" transform="translate(-105.604 -58.181)" fill="#ff4b4a"/>
      <path id="Path_2512" data-name="Path 2512" d="M274.618,757.98c0,4.235,66.825,7.669,149.259,7.669s149.26-3.433,149.26-7.669-66.826-7.668-149.26-7.668-149.259,3.433-149.259,7.668Z" transform="translate(-133.575 -343.067)" fill="#aeaeae"/>
      <path id="Path_2513" data-name="Path 2513" d="M878.616,403.852m-8.216,0a8.216,8.216,0,1,0,8.216-8.216A8.216,8.216,0,0,0,870.4,403.852Z" transform="translate(-378.803 -197.08)" fill="#ff4b4a"/>
      <path id="Path_2514" data-name="Path 2514" d="M50.654,120.471m-4.108,0a4.108,4.108,0,1,0,4.108-4.108A4.108,4.108,0,0,0,46.545,120.471Z" transform="translate(-39.699 -82.129)" fill="#fff"/>
      <path id="Path_2515" data-name="Path 2515" d="M52.846,133.619A10.955,10.955,0,1,1,63.8,122.664a10.849,10.849,0,0,1-10.955,10.955Zm0-13.146a2.191,2.191,0,1,0,2.191,2.191A2.07,2.07,0,0,0,52.846,120.473Z" transform="translate(-41.891 -84.322)" fill="#fecbcb"/>
      <path id="Path_2516" data-name="Path 2516" d="M960.218,508.038c-12.666,2.739-20.882,10.613-23.963,23.965-2.054-11.983-9.243-20.541-23.964-23.965,13.351-3.081,21.225-11.3,23.964-23.965C938.651,496.74,946.182,504.957,960.218,508.038Z" transform="translate(-400.838 -238.274)" fill="#ff4b4a"/>
      <path id="Path_2517" data-name="Path 2517" d="M935.023,534.2a3.686,3.686,0,0,1-3.423-2.739c-2.054-11.3-8.9-18.487-21.224-21.226a3.509,3.509,0,0,1,0-6.847c11.982-2.739,18.828-9.586,21.224-21.226a3.509,3.509,0,0,1,6.847,0c2.4,11.64,8.9,18.487,21.225,21.226a3.509,3.509,0,0,1,0,6.847c-11.64,2.4-18.486,9.586-21.225,21.226A3.333,3.333,0,0,1,935.023,534.2ZM921.33,506.807a31.218,31.218,0,0,1,14.036,13.352,31.406,31.406,0,0,1,13.351-13.352,30.426,30.426,0,0,1-13.693-13.352,32.21,32.21,0,0,1-13.693,13.352Z" transform="translate(-399.607 -237.043)" fill="#ff4b4a"/>
      <path id="Path_2518" data-name="Path 2518" d="M948.642,517.751H934.948a1.712,1.712,0,0,1,0-3.423h13.694a1.712,1.712,0,0,1,0,3.423Z" transform="translate(-406.378 -246.275)" fill="#fff"/>
      <path id="Path_2519" data-name="Path 2519" d="M944.258,522.136a1.618,1.618,0,0,1-1.712-1.712V506.73a1.712,1.712,0,0,1,3.423,0v13.694A1.617,1.617,0,0,1,944.258,522.136Z" transform="translate(-408.84 -243.813)" fill="#fff"/>
      <path id="Path_2520" data-name="Path 2520" d="M117.671,197.308c-12.032,2.6-19.836,10.081-22.763,22.762-1.951-11.381-8.78-19.511-22.763-22.762,12.682-2.927,20.161-10.731,22.763-22.763C97.185,186.577,104.339,194.381,117.671,197.308Z" transform="translate(-53.828 -109.67)" fill="#ff4b4a"/>
      <path id="Path_2521" data-name="Path 2521" d="M93.505,221.92a3.5,3.5,0,0,1-3.252-2.6c-1.951-10.731-8.455-17.56-20.161-20.161a3.333,3.333,0,0,1,0-6.5c11.381-2.6,17.885-9.105,20.161-20.161a3.333,3.333,0,0,1,6.5,0c2.276,11.056,8.455,17.56,20.161,20.161a3.333,3.333,0,0,1,0,6.5c-11.056,2.276-17.56,9.105-20.161,20.161A3.167,3.167,0,0,1,93.505,221.92ZM80.5,195.906a29.651,29.651,0,0,1,13.333,12.682,29.834,29.834,0,0,1,12.682-12.682,28.9,28.9,0,0,1-13.007-12.682A30.594,30.594,0,0,1,80.5,195.906Z" transform="translate(-52.425 -108.267)" fill="#ff4b4a"/>
      <path id="Path_2522" data-name="Path 2522" d="M107.724,208.052H94.716a1.626,1.626,0,1,1,0-3.252h13.007a1.626,1.626,0,1,1,0,3.252Z" transform="translate(-60.14 -118.788)" fill="#fff"/>
      <path id="Path_2523" data-name="Path 2523" d="M104.026,211.75a1.536,1.536,0,0,1-1.626-1.626V197.117a1.626,1.626,0,0,1,3.252,0v13.007A1.536,1.536,0,0,1,104.026,211.75Z" transform="translate(-62.945 -115.982)" fill="#fff"/>
      <path id="Path_2524" data-name="Path 2524" d="M617.691,295.164a21.91,21.91,0,1,1,21.91-21.91A21.974,21.974,0,0,1,617.691,295.164Zm0-38.342a16.432,16.432,0,1,0,16.432,16.432A16.481,16.481,0,0,0,617.691,256.823Z" transform="translate(-265.768 -137.689)" fill="#ff4b4a"/>
      <path id="Path_2525" data-name="Path 2525" d="M394.273,295.164a21.91,21.91,0,1,1,21.909-21.91A21.974,21.974,0,0,1,394.273,295.164Zm0-38.342a16.432,16.432,0,1,0,16.432,16.432A16.481,16.481,0,0,0,394.273,256.823Z" transform="translate(-173.807 -137.689)" fill="#ff4b4a"/>
      <path id="Path_2526" data-name="Path 2526" d="M1001.629,462.612h-3.717a2.508,2.508,0,0,1-2.654-2.654v-5.84h-5.84a2.508,2.508,0,0,1-2.655-2.655v-3.716a2.509,2.509,0,0,1,2.655-2.655h5.84v-5.84a2.508,2.508,0,0,1,2.654-2.655h3.717a2.508,2.508,0,0,1,2.654,2.655v5.84h5.84a2.508,2.508,0,0,1,2.654,2.655v3.716a2.508,2.508,0,0,1-2.654,2.655h-5.84v5.84A2.508,2.508,0,0,1,1001.629,462.612Z" transform="translate(-422.048 -227.536)" fill="#f48282"/>
      <path id="Path_2527" data-name="Path 2527" d="M362.509,330.205a2.895,2.895,0,0,1-2.191-4.656l14.789-16.158a2.718,2.718,0,1,1,4.108,3.56l-14.789,16.432A2.486,2.486,0,0,1,362.509,330.205Z" transform="translate(-168.608 -161.227)" fill="#ff4b4a"/>
      <path id="Path_2528" data-name="Path 2528" d="M631.1,338.418a2.587,2.587,0,0,1-2.738-2.739V319.247a2.739,2.739,0,0,1,5.477,0V335.68A2.588,2.588,0,0,1,631.1,338.418Z" transform="translate(-279.179 -164.511)" fill="#ff4b4a"/>
      <path id="Path_2529" data-name="Path 2529" d="M443.126,411.151c2.191-6.847,4.656-14.241,13.146-10.407,4.656,2.191,7.942,10.133,10.133,14.515,1.643,3.013,5.477,2.465,7.121,0,2.739-3.834,13.419-23.005,19.445-20.54,2.191.822,3.013,6.3,6.3,7.668,7.668,3.013,16.706-9.586,21.088-13.42,3.834-3.56-1.917-9.312-5.751-5.751-1.917,1.643-7.669,8.216-9.859,9.038-4.93,1.369-2.739,0-5.751-3.56-1.917-2.191-3.834-4.108-7.121-4.382-10.955-.548-19.993,19.992-25.2,27.113H473.8c-4.108-7.668-11.776-21.636-21.636-22.458s-14.241,12.6-16.706,19.993C433.541,414.163,441.483,416.354,443.126,411.151Z" transform="translate(-199.655 -191.507)" fill="#ff4b4a"/>
      <path id="Path_2530" data-name="Path 2530" d="M611.576,398.8c-1.643,2.465-.274,5.751,2.465,6.847s6.025,0,6.573-3.013c.548-2.191-.548-4.656-2.739-4.93-2.191-.548-4.656.548-4.93,2.739,0-.274.274-.274.274-.548l1.37-1.369c1.369-1.1,4.108-.274,4.382,1.643v2.191a.956.956,0,0,1-.274.548c1.37-1.917.274-4.656-1.369-5.751A4.327,4.327,0,0,0,611.576,398.8Z" transform="translate(-271.977 -197.503)" fill="#ff4b4a"/>
    </g>
    <text id="No_result..." data-name="No result..." transform="translate(177.145 424.361)" fill="#f48282" font-size="94" font-family="Roboto-Thin, Roboto" font-weight="200"><tspan x="0" y="0">No result...</tspan></text>
  </g>
</svg>
