<svg xmlns="http://www.w3.org/2000/svg" width="34.668" height="46.224" viewBox="0 0 34.668 46.224">
  <g id="Group_1621" data-name="Group 1621" transform="translate(-98.748 -11.508)" style="isolation: isolate">
    <g id="fire" transform="translate(98.748 11.508)" fill="none">
      <path d="M19.5,2.153A2.171,2.171,0,0,0,15.515.976C4.333,17.32,20.223,18.056,20.223,26a5.778,5.778,0,1,1-11.556-.086v-7.72A2.167,2.167,0,0,0,4.926,16.7,18.057,18.057,0,0,0,0,28.89a17.334,17.334,0,1,0,34.668,0C34.668,13.516,19.5,11.465,19.5,2.153Z" stroke="none"/>
      <path d="M 17.32927322387695 1.999500274658203 C 17.28129196166992 1.999504089355469 17.2326545715332 2.007637023925781 17.16558837890625 2.105678558349609 C 14.24813842773438 6.370071411132813 13.10431861877441 9.709598541259766 13.66876792907715 12.31509017944336 C 14.146728515625 14.5213508605957 15.82655715942383 16.15344047546387 17.60500717163086 17.88134956359863 C 19.76959800720215 19.98443031311035 22.22299766540527 22.36810111999512 22.22299766540527 26.00055122375488 C 22.22299766540527 30.28932952880859 18.73381805419922 33.77851104736328 14.44503784179688 33.77851104736328 C 14.41074752807617 33.77851104736328 14.37707710266113 33.77828979492188 14.34232711791992 33.77783966064453 C 10.11013793945313 33.72296905517578 6.666997909545898 30.19544982910156 6.666997909545898 25.91442108154297 L 6.666997909545898 18.1944694519043 C 6.666997909545898 18.03676986694336 6.527477264404297 18.02450942993164 6.484718322753906 18.02450942993164 C 6.462108612060547 18.02450942993164 6.431148529052734 18.02450942993164 6.375247955322266 18.08325004577637 C 5.535987854003906 18.96512031555176 4.335258483886719 20.46169090270996 3.381038665771484 22.58335113525391 C 2.464649200439453 24.62088012695313 1.999996185302734 26.74258995056152 1.999996185302734 28.88953971862793 C 1.999996185302734 37.34474182128906 8.87879753112793 44.22354125976563 17.33399772644043 44.22354125976563 C 25.78919792175293 44.22354125976563 32.66799926757813 37.34474182128906 32.66799926757813 28.88953971862793 C 32.66799926757813 21.11898994445801 28.42201805114746 17.19548988342285 24.31583786010742 13.40116882324219 C 20.96532821655273 10.30513000488281 17.50074768066406 7.103691101074219 17.50074768066406 2.153480529785156 C 17.50074768066406 2.099674224853516 17.500732421875 1.99951171875 17.32927322387695 1.999500274658203 M 17.32932472229004 -0.00049591064453125 C 18.4312801361084 -0.000476837158203125 19.50074768066406 0.8176498413085938 19.50074768066406 2.153480529785156 C 19.50074768066406 11.46500015258789 34.66799926757813 13.51556015014648 34.66799926757813 28.88953971862793 C 34.66799926757813 38.44754028320313 26.89197731018066 46.22354125976563 17.33399772644043 46.22354125976563 C 7.776008605957031 46.22354125976563 -3.814697265625e-06 38.44754028320313 -3.814697265625e-06 28.88953971862793 C -3.814697265625e-06 23.59292984008789 2.509906768798828 19.24372100830078 4.926467895507813 16.70446968078613 C 5.373540878295898 16.23468399047852 5.934297561645508 16.02450752258301 6.484716415405273 16.02450752258301 C 7.597223281860352 16.02450752258301 8.666997909545898 16.88363265991211 8.666997909545898 18.1944694519043 L 8.666997909545898 25.91442108154297 C 8.666997909545898 29.08996963500977 11.19306755065918 31.73683929443359 14.36825752258301 31.77801132202148 C 14.3940544128418 31.77834510803223 14.41931533813477 31.77850914001465 14.44503402709961 31.77850914001465 C 17.63591384887695 31.77850914001465 20.22299766540527 29.19145202636719 20.22299766540527 26.00055122375488 C 20.22299766540527 18.05579948425293 4.333498001098633 17.32010078430176 15.51491737365723 0.9763908386230469 C 15.97592353820801 0.3025436401367188 16.65862846374512 -0.000507354736328125 17.32932472229004 -0.00049591064453125 Z" stroke="none"/>
    </g>
  </g>
</svg>
