<svg xmlns="http://www.w3.org/2000/svg" width="38.304" height="33.518" viewBox="0 0 38.304 33.518">
  <path id="home-alt" d="M70.134,46.782,52.712,32.566a2.406,2.406,0,0,0-3.021,0L32.274,46.782a.6.6,0,0,0-.087.841l.756.929a.6.6,0,0,0,.838.089l3.057-2.5V64.325a1.2,1.2,0,0,0,1.2,1.2h9.577a1.2,1.2,0,0,0,1.2-1.2V54.748l4.789.022v9.583a1.2,1.2,0,0,0,1.2,1.2l9.577-.025a1.2,1.2,0,0,0,1.2-1.2V46.143l3.057,2.5a.6.6,0,0,0,.842-.087l.756-.929a.6.6,0,0,0-.091-.843ZM63.168,63.138h.007l-7.183.022V53.57a1.2,1.2,0,0,0-1.193-1.2l-7.183-.02a1.2,1.2,0,0,0-1.2,1.2v9.588H39.233V44.19L51.2,34.42l11.972,9.77Z" transform="translate(-32.054 -32.033)"/>
</svg>
