<svg xmlns="http://www.w3.org/2000/svg" width="26.884" height="26.884" viewBox="0 0 26.884 26.884">
  <path id="link" d="M15.812,20.723l-4.159,4.158A6.826,6.826,0,0,1,2,15.228L6.159,11.07q.091-.091.185-.179a.63.63,0,0,1,1.061.435q.015.379.064.755a.633.633,0,0,1-.178.53L3.337,16.565a4.936,4.936,0,0,0,6.98,6.98l4.159-4.159.019-.019A4.936,4.936,0,0,0,13.027,11.4a.633.633,0,0,1-.375-.613,3.266,3.266,0,0,1,.148-.8.625.625,0,0,1,.836-.382,6.826,6.826,0,0,1,2.176,11.117Zm-4.741-4.912a6.785,6.785,0,0,0,2.176,1.463.625.625,0,0,0,.836-.382,3.266,3.266,0,0,0,.148-.8.633.633,0,0,0-.375-.613,4.936,4.936,0,0,1-1.468-7.965l.019-.019,4.159-4.159a4.936,4.936,0,0,1,6.98,6.98l-3.954,3.953a.633.633,0,0,0-.178.53q.049.376.064.755a.63.63,0,0,0,1.061.435q.094-.088.185-.179l4.158-4.159A6.826,6.826,0,1,0,15.23,2L11.071,6.157a6.834,6.834,0,0,0,0,9.654Z" transform="translate(0.001 0.002)" fill="#5f6772"/>
</svg>
