<svg id="Group_1679" data-name="Group 1679" xmlns="http://www.w3.org/2000/svg" width="162.277" height="25.555" viewBox="0 0 162.277 25.555">
  <path id="copyright" d="M14.27,8a6.27,6.27,0,1,0,6.27,6.27A6.27,6.27,0,0,0,14.27,8Zm5.461,6.27A5.461,5.461,0,1,1,14.27,8.809,5.461,5.461,0,0,1,19.731,14.27Zm-2.82,2.563a3.688,3.688,0,0,1-2.531.985,3.43,3.43,0,0,1-3.451-3.561,3.385,3.385,0,0,1,3.424-3.479,3.59,3.59,0,0,1,2.377.819.3.3,0,0,1,.044.4l-.222.305a.3.3,0,0,1-.435.059,2.841,2.841,0,0,0-1.746-.6,2.364,2.364,0,0,0-2.381,2.481,2.44,2.44,0,0,0,2.4,2.581,2.838,2.838,0,0,0,1.867-.729.3.3,0,0,1,.44.031l.238.292A.3.3,0,0,1,16.912,16.833Z" transform="translate(-8 -1.384)" fill="#5f6772" opacity="0.3"/>
  <g id="Layer_x0020_1" transform="translate(18.771)" opacity="0.3">
    <g id="_80490686608" transform="translate(0 0)">
      <path id="Path_17" data-name="Path 17" d="M18.94,5.616a1.78,1.78,0,0,1,1.323.552A1.837,1.837,0,0,1,20.8,7.5v7.245a5.927,5.927,0,0,1-.483,2.381,6.145,6.145,0,0,1-3.255,3.255,5.925,5.925,0,0,1-2.381.483h-.023a6.085,6.085,0,0,1-2.335-.449,5.99,5.99,0,0,1-1.921-1.254,5.989,5.989,0,0,1-1.921,1.254,6.087,6.087,0,0,1-2.335.449,5.924,5.924,0,0,1-2.381-.483,6.346,6.346,0,0,1-1.955-1.311A6.108,6.108,0,0,1,.493,17.128,5.927,5.927,0,0,1,.01,14.747V7.5A1.829,1.829,0,0,1,.558,6.168a1.806,1.806,0,0,1,1.326-.552,1.806,1.806,0,0,1,1.326.552A1.828,1.828,0,0,1,3.759,7.5v7.245a2.386,2.386,0,0,0,3.3,2.185,2.329,2.329,0,0,0,.763-.506,2.367,2.367,0,0,0,.694-1.679V7.5a.092.092,0,0,1,.011-.057.047.047,0,0,0,.012-.035V7.2a.133.133,0,0,0,.023-.092.2.2,0,0,0,.023-.092.2.2,0,0,1,.023-.092.093.093,0,0,0,.023-.069A1.747,1.747,0,0,1,9.276,6,1.976,1.976,0,0,1,10.3,5.616h.207A1.914,1.914,0,0,1,11.526,6a1.773,1.773,0,0,1,.629.863.094.094,0,0,1,.023.069.754.754,0,0,1,.046.184.2.2,0,0,1,.023.092.693.693,0,0,1,.023.207v7.337a2.373,2.373,0,0,0,2.381,2.369h.023a2.367,2.367,0,0,0,.924-.184,2.327,2.327,0,0,0,.763-.506,2.367,2.367,0,0,0,.694-1.679V7.5a1.837,1.837,0,0,1,.541-1.334,1.806,1.806,0,0,1,1.346-.552Zm9.913,15.25a7.694,7.694,0,0,1-2.963-.6,9.108,9.108,0,0,1-1.273-.7,7.391,7.391,0,0,1-2.07-2.07,9.086,9.086,0,0,1-.7-1.273,6.333,6.333,0,0,1-.46-1.461,8.208,8.208,0,0,1-.138-1.5,8.336,8.336,0,0,1,.138-1.526,5.936,5.936,0,0,1,.46-1.438,7.628,7.628,0,0,1,1.629-2.434,7.613,7.613,0,0,1,8.338-1.629,8.169,8.169,0,0,1,2.434,1.629A8.174,8.174,0,0,1,35.88,10.3a7.4,7.4,0,0,1,.552,2.1,7.729,7.729,0,0,1-4.544-1.6,3.944,3.944,0,0,0-1.063-.919A3.87,3.87,0,0,0,25,13.224v.048a3.674,3.674,0,0,0,.31,1.487,3.927,3.927,0,0,0,2.047,2.047,3.81,3.81,0,0,0,3.013,0,4.136,4.136,0,0,0,1.231-.828l.014-.014a8.008,8.008,0,0,1,4.808-1.794,7.822,7.822,0,0,1-.544,2.057,7.741,7.741,0,0,1-1.629,2.411,7.666,7.666,0,0,1-5.4,2.227Zm15.4,0a7.694,7.694,0,0,1-2.963-.6,9.113,9.113,0,0,1-1.273-.7,7.391,7.391,0,0,1-2.07-2.07,9.086,9.086,0,0,1-.7-1.273,6.34,6.34,0,0,1-.46-1.461q-.055-.3-.088-.6a7.554,7.554,0,0,1,4.656,1.614q.088.1.182.2a3.986,3.986,0,0,0,1.219.828,3.811,3.811,0,0,0,3.013,0q.076-.034.15-.07h0a3.873,3.873,0,0,0,1.034-.7,7.734,7.734,0,0,1,4.865-1.861,7.822,7.822,0,0,1-.544,2.057,7.739,7.739,0,0,1-1.629,2.411,7.666,7.666,0,0,1-5.4,2.227Zm-7.559-8.459q.034-.338.1-.668a5.938,5.938,0,0,1,.46-1.438,7.628,7.628,0,0,1,1.629-2.434,7.613,7.613,0,0,1,8.338-1.629A8.167,8.167,0,0,1,49.65,7.866,8.173,8.173,0,0,1,51.279,10.3a7.4,7.4,0,0,1,.552,2.1,7.73,7.73,0,0,1-4.466-1.536,3.869,3.869,0,0,0-6.177.05,7.73,7.73,0,0,1-4.494,1.488ZM65.321-.019a1.78,1.78,0,0,1,1.323.552,1.837,1.837,0,0,1,.541,1.334V18.911a1.837,1.837,0,0,1-.541,1.334,1.779,1.779,0,0,1-1.323.552,1.8,1.8,0,0,1-1.024-.3,1.951,1.951,0,0,1-.679-.759,4.877,4.877,0,0,1-1.058.529,7.12,7.12,0,0,1-2.944.6,8.1,8.1,0,0,1-1.5-.138,6.358,6.358,0,0,1-1.449-.46,7.444,7.444,0,0,1-3.324-2.745,8.717,8.717,0,0,1-.7-1.273,7.389,7.389,0,0,1-.55-2.081c1.713.047,4.017,1.361,4.824,1.835a3.837,3.837,0,0,0,1.208.813,3.682,3.682,0,0,0,1.476.3,3.882,3.882,0,1,0-2.948-6.257A7.731,7.731,0,0,1,52.1,12.406a7.81,7.81,0,0,1,.543-2.037A7.707,7.707,0,0,1,54.28,7.958a7.3,7.3,0,0,1,2.392-1.606,7.656,7.656,0,0,1,2.944-.6,7.5,7.5,0,0,1,2.944.594q.23.092.449.2c.146.069.287.142.426.215V1.87A1.852,1.852,0,0,1,63.976.532,1.807,1.807,0,0,1,65.321-.02Zm4.6,20.885a1.859,1.859,0,0,1-1.875-1.886V2A1.829,1.829,0,0,1,68.595.671a1.87,1.87,0,0,1,2.653,0A1.829,1.829,0,0,1,71.8,2V18.98a1.859,1.859,0,0,1-1.875,1.886Zm5.025,0a1.859,1.859,0,0,1-1.875-1.886V7.5a1.829,1.829,0,0,1,.548-1.334,1.87,1.87,0,0,1,2.653,0A1.829,1.829,0,0,1,76.821,7.5V18.98a1.859,1.859,0,0,1-1.875,1.886Zm15.686-9.583v7.811a6.4,6.4,0,0,1-.5,2.507,7.574,7.574,0,0,1-1.373,2.047,6.3,6.3,0,0,1-2.036,1.38,6.714,6.714,0,0,1-2.507.506,6.528,6.528,0,0,1-3.565-1.062,6.564,6.564,0,0,1-1.392-1.235,6.112,6.112,0,0,1-.978-1.614,1.769,1.769,0,0,1-.023-1.449,1.822,1.822,0,0,1,1.012-1.012,1.769,1.769,0,0,1,1.449-.023,1.821,1.821,0,0,1,1.012,1.012,2.682,2.682,0,0,0,1,1.185,2.634,2.634,0,0,0,1.484.449,2.6,2.6,0,0,0,1.035-.207,2.717,2.717,0,0,0,1.426-1.434,2.637,2.637,0,0,0,.207-1.043V17.879a.5.5,0,0,1-.1.035.512.512,0,0,0-.1.035,6.505,6.505,0,0,1-5.022,0,6.3,6.3,0,0,1-2.036-1.38,6.389,6.389,0,0,1-1.372-2.047,6.324,6.324,0,0,1-.5-2.507,6.217,6.217,0,0,1,.5-2.507,5.781,5.781,0,0,1,1.372-2.047A6.366,6.366,0,0,1,84.17,5.57a6.156,6.156,0,0,1,2.507.506,2.106,2.106,0,0,1,.276.115l.276.138.037-.049a6.529,6.529,0,0,1,3.367,5ZM84.181,14.7a2.7,2.7,0,0,0,1.05-.207,2.644,2.644,0,0,0,.866-.579,2.677,2.677,0,0,0,.579-.855,2.618,2.618,0,0,0,.207-1.039,2.7,2.7,0,0,0-.207-1.05,2.671,2.671,0,0,0-1.445-1.445,2.7,2.7,0,0,0-1.05-.207,2.619,2.619,0,0,0-1.039.207,2.677,2.677,0,0,0-.855.579,2.644,2.644,0,0,0-.579.866,2.7,2.7,0,0,0-.207,1.05,2.62,2.62,0,0,0,.207,1.039,2.731,2.731,0,0,0,1.434,1.434A2.618,2.618,0,0,0,84.181,14.7Z" transform="translate(-0.01 0.02)" fill="red"/>
      <g id="Group_1289" data-name="Group 1289" transform="translate(91.864 13.353)">
        <text id="T" transform="translate(0 4)" fill="red" font-size="4" font-family="SegoeUI-Bold, Segoe UI" font-weight="700"><tspan x="0" y="0">T</tspan></text>
        <text id="M" transform="translate(3.586 3)" fill="red" font-size="3" font-family="SegoeUI-Bold, Segoe UI" font-weight="700"><tspan x="0" y="0">M</tspan></text>
      </g>
    </g>
  </g>
  <text id="_2019" data-name="2019" transform="translate(124.277 18.834)" fill="#5f6772" font-size="17" font-family="Poppins-SemiBold, Poppins" font-weight="600" opacity="0.3"><tspan x="0" y="0">2019</tspan></text>
</svg>
