<svg xmlns="http://www.w3.org/2000/svg" width="128.137" height="25.697" viewBox="0 0 128.137 25.697">
  <g id="Layer_x0020_1" style="isolation: isolate">
    <path id="Path_16" data-name="Path 16" d="M12.84,0a12.785,12.785,0,0,1,6.492,1.76,13.083,13.083,0,0,1,3.531,3.052,25.674,25.674,0,0,0,15.693,5.324A25.672,25.672,0,0,0,53.741,5.192a12.845,12.845,0,0,1,20.512-.164,25.671,25.671,0,0,0,15.407,5.107A25.672,25.672,0,0,0,105.11,5a12.849,12.849,0,1,1,1.854,17.646c-.18,0-10.347-6.66-17.3-6.66A25.688,25.688,0,0,0,72.9,22.169a12.847,12.847,0,0,1-18.168-.48,25.143,25.143,0,0,0-16.18-5.706,26.477,26.477,0,0,0-17.4,6.66A12.848,12.848,0,1,1,12.84,0Z" transform="translate(0.009)" fill="#fb0201" fill-rule="evenodd"/>
  </g>
</svg>
