<svg id="Group_1775" data-name="Group 1775" xmlns="http://www.w3.org/2000/svg" width="31.051" height="23.288" viewBox="0 0 31.051 23.288">
  <path id="envelope" d="M28.14,64H2.911A2.912,2.912,0,0,0,0,66.911V84.377a2.912,2.912,0,0,0,2.911,2.911H28.14a2.912,2.912,0,0,0,2.911-2.911V66.911A2.912,2.912,0,0,0,28.14,64ZM2.911,65.941H28.14a.973.973,0,0,1,.97.97v2.511c-1.328,1.122-3.226,2.668-9.133,7.356-1.025.813-3.044,2.772-4.451,2.747-1.407.024-3.433-1.935-4.451-2.747-5.907-4.688-7.805-6.234-9.133-7.356V66.911A.973.973,0,0,1,2.911,65.941ZM28.14,85.348H2.911a.973.973,0,0,1-.97-.97V71.945c1.383,1.134,3.566,2.887,7.926,6.35,1.243.995,3.439,3.184,5.658,3.172,2.208.018,4.385-2.153,5.658-3.172,4.36-3.463,6.544-5.216,7.927-6.35V84.377A.973.973,0,0,1,28.14,85.348Z" transform="translate(0 -64)"/>
</svg>
