<?xml version="1.0" encoding="utf-8"?>
<!-- Generator: Adobe Illustrator 21.0.2, SVG Export Plug-In . SVG Version: 6.00 Build 0)  -->
<svg version="1.1" id="Layer_1" xmlns="http://www.w3.org/2000/svg" xmlns:xlink="http://www.w3.org/1999/xlink" x="0px" y="0px"
	 viewBox="0 0 31.7 31.7" style="enable-background:new 0 0 31.7 31.7;" xml:space="preserve">
<style type="text/css">
	.st0{fill:#3E3E3E;}
</style>
<path id="marketplace" class="st0" d="M25.3,31.7l-7.5-7.5v-6.4h6.4l7.5,7.5L25.3,31.7z M18.8,23.8l6.5,6.5l5-5l-6.5-6.5h-5V23.8z
	 M22.9,31.5H1.3V12.7h29v8.9l-3.5-3.5v-1.9H4.8v7.9h10.8L22.9,31.5z M2.3,30.5h18.2l-5.4-5.4H3.8v-9.9h23.9v2.4l1.5,1.5v-5.5h-27
	V30.5z M20.8,22.3L20.8,22.3c-0.8,0-1.5-0.7-1.5-1.5s0.7-1.5,1.5-1.5s1.5,0.7,1.5,1.5S21.6,22.3,20.8,22.3z M20.8,20.4
	c-0.3,0-0.5,0.2-0.5,0.5c0,0.2,0.2,0.5,0.5,0.5s0.5-0.2,0.5-0.5C21.3,20.6,21.1,20.4,20.8,20.4z M3,11.3C3,11.3,3,11.3,3,11.3
	c-1.7,0-3.1-1.4-3-3.1V6.7L6.5,0h3.6l-4,7v1.4c0,0.8-0.3,1.6-0.9,2.1C4.6,11,3.8,11.3,3,11.3z M1,7.1v1.2c0,1.1,0.9,2.1,2,2.1
	c0.5,0,1.1-0.2,1.5-0.6c0.4-0.4,0.6-0.9,0.6-1.4V6.7L8.4,1H6.9L1,7.1z M9.4,11.2c-0.8,0-1.5-0.3-2.1-0.8C6.7,9.8,6.4,9,6.4,8.2V6.7
	l4-6.7h3.4l-1.3,6.9l0,1.3C12.4,9.9,11.1,11.2,9.4,11.2C9.4,11.2,9.4,11.2,9.4,11.2z M7.4,8.2c0,1.1,1,2.1,2.1,2c1.1,0,2-0.9,2-2
	V6.9L12.5,1h-1.6L7.4,7V8.2z M16.3,11.2l-0.5,0c-1.7,0-3-1.4-3-3l0-1.5L14.1,0h3.4l1.4,6.7v1.4C18.8,9.6,17.7,10.9,16.3,11.2
	L16.3,11.2z M13.7,6.8v1.3c0,1.1,0.9,2,2,2l0,0c1.1,0,2-0.9,2.1-2.1V6.8L16.6,1h-1.7L13.7,6.8z M22.1,11.2
	C22.1,11.2,22.1,11.2,22.1,11.2c-1.7,0-3-1.4-3-3V6.7L17.8,0h3.4l4,6.7v1.5C25.1,9.9,23.7,11.2,22.1,11.2z M20.1,8.1
	c0,1.1,0.9,2,2.1,2c0,0,0,0,0,0c1.1,0,2-0.9,2-1.9l0-1.2l-3.6-6H19l1.1,5.6L20.1,8.1z M28.5,11.2C28.5,11.2,28.5,11.2,28.5,11.2
	c-1.7,0-3-1.4-3-3V6.9l-4-6.9H25l6.5,6.7v1.6C31.4,9.9,30.1,11.2,28.5,11.2z M26.4,8.1c0,1.1,0.9,2,2.1,2c0,0,0,0,0,0
	c1.1,0,2-0.9,2-2V7.1L24.6,1h-1.5l3.3,5.6V8.1z"/>
</svg>
