<svg id="message" xmlns="http://www.w3.org/2000/svg" width="77.214" height="77.214" viewBox="0 0 77.214 77.214">
  <rect id="Rectangle_80" data-name="Rectangle 80" width="77.214" height="77.214" rx="30" fill="#ff4b4a"/>
  <path id="envelope" d="M2,12.219A4.092,4.092,0,0,1,5.954,8H32.792a4.1,4.1,0,0,1,3.954,4.219V30.806a4.092,4.092,0,0,1-3.954,4.219H5.954A4.1,4.1,0,0,1,2,30.806Zm31.588,6.364-13.4,8.6a1.492,1.492,0,0,1-1.627,0l-13.4-8.6V30.8a.824.824,0,0,0,.8.841H32.792a.764.764,0,0,0,.561-.244.875.875,0,0,0,.235-.6V18.582Zm-1.266-3.127a3.355,3.355,0,0,0,1.266-2.382V12.22a.816.816,0,0,0-.785-.842H5.944a.816.816,0,0,0-.785.842v.853a3.369,3.369,0,0,0,1.266,2.382l12.949,8.311Z" transform="translate(19.234 17.095)" fill="#fff"/>
</svg>
