<svg id="Group_1973" data-name="Group 1973" xmlns="http://www.w3.org/2000/svg" width="586.64" height="410.462" viewBox="0 0 586.64 410.462">
  <path id="Path_3010" data-name="Path 3010" d="M307.493,86.493c-23.846-9.069-49.046-16.644-74.77-15.692-37.823,1.4-74.131,22.678-91.912,53.926-15.086,26.476-16.947,57.508-23.446,86.89-8,36.194-23.343,70.6-39.728,104.243-8.8,18.073-18.084,36.535-19.528,56.345-2,27.5,12.05,54.911,34.089,73.206s51.307,27.948,80.684,30.053c15.632,1.12,31.968.081,45.853-6.726,14.691-7.2,25.4-20.216,40.15-27.315,13.668-6.58,29.658-7.5,45-6.645a213.543,213.543,0,0,1,58.753,11.688c21.449,7.532,41.394,18.446,62.768,26.087s45.312,11.9,67.183,5.53c20.562-5.99,36.795-20.535,51.432-35.264a625.067,625.067,0,0,0,65.592-77.589c13.208-18.511,25.5-38.04,31.341-59.613,11.168-41.248-4.2-87.783-38.283-115.953-28.24-23.338-66.139-33.467-103.237-39.614-33.83-5.606-72.946-5.952-104.086-20.562C365.656,115.54,338.633,98.343,307.493,86.493Z" transform="translate(-57.92 -70.72)" fill="red" opacity="0.1"/>
  <path id="Path_3011" data-name="Path 3011" d="M632.58,617.775v19.658h5.59l-1.082-21.1Z" transform="translate(-290.289 -282.837)" fill="#aaabb0"/>
  <path id="Path_3012" data-name="Path 3012" d="M477.41,610.445V630.1h5.6L481.923,609Z" transform="translate(-219.082 -279.474)" fill="#aaabb0"/>
  <rect id="Rectangle_1803" data-name="Rectangle 1803" width="7.213" height="34.993" rx="3.606" transform="translate(348.784 298.505)" fill="#aaabb0"/>
  <rect id="Rectangle_1804" data-name="Rectangle 1804" width="7.213" height="42.747" rx="3.606" transform="translate(256.255 290.745)" fill="#aaabb0"/>
  <path id="Path_3013" data-name="Path 3013" d="M732.84,234.224s7.213-3.068,8.3,0,1.623,29.582,1.623,29.582H735.9Z" transform="translate(-367.639 -145.126)" fill="#aaabb0"/>
  <path id="Path_3014" data-name="Path 3014" d="M578.424,234.224s-7.218-3.068-8.3,0-1.623,29.582-1.623,29.582h6.856Z" transform="translate(-292.224 -145.126)" fill="#aaabb0"/>
  <path id="Path_3015" data-name="Path 3015" d="M529.992,115.541l-1.082,22.007h4.87V115Z" transform="translate(-242.715 -52.779)" fill="#aaabb0"/>
  <path id="Path_3016" data-name="Path 3016" d="M581.17,258.646l1.445-31.747s-.541-7.034,16.59-4.87,67.281,6.493,67.281,6.493v30.123Z" transform="translate(-298.038 -139.966)" fill="#33323d"/>
  <path id="Path_3017" data-name="Path 3017" d="M631.048,597.825l-2.706,48.515s-39.684,22.007-87.843,1.082l4.329-51.042Z" transform="translate(-279.375 -311.944)" fill="#33323d"/>
  <path id="Path_3018" data-name="Path 3018" d="M580.25,166.767l.9,31.384h55.917l-3.247-41.481Z" transform="translate(-266.275 -71.901)" fill="#444053"/>
  <rect id="Rectangle_1805" data-name="Rectangle 1805" width="52.671" height="66.734" transform="translate(266.985 265.135)" fill="#4c4981"/>
  <path id="Path_3019" data-name="Path 3019" d="M612.823,607.242s7.575-5.952,8.836-4.15-4.5,9.561-6.85,8.658S612.823,607.242,612.823,607.242Z" transform="translate(-312.554 -314.868)" fill="#ffb9b9"/>
  <rect id="Rectangle_1806" data-name="Rectangle 1806" width="345.748" height="173.153" transform="translate(164.771 116.873)" fill="#504f60"/>
  <path id="Path_3020" data-name="Path 3020" d="M580.48,148.113s-2.705-25.253,0-28.316,48.158-32.109,90.186,1.98c0,0,3.966.184,3.247,9.2A108.216,108.216,0,0,0,674,148.113S583.548,154.606,580.48,148.113Z" transform="translate(-297.17 -86.611)" fill="#33323d"/>
  <path id="Path_3021" data-name="Path 3021" d="M580.48,148.113s-2.705-25.253,0-28.316,48.158-32.109,90.186,1.98c0,0,3.966.184,3.247,9.2A108.216,108.216,0,0,0,674,148.113S583.548,154.606,580.48,148.113Z" transform="translate(-297.17 -86.611)" opacity="0.1"/>
  <path id="Path_3022" data-name="Path 3022" d="M580.48,154.113s-2.705-25.253,0-28.316,48.158-32.109,90.186,1.98c0,0,3.966.184,3.247,9.2A108.216,108.216,0,0,0,674,154.113S583.548,160.606,580.48,154.113Z" transform="translate(-297.17 -89.365)" fill="#33323d"/>
  <path id="Path_3023" data-name="Path 3023" d="M736.079,169.05s2.884,10.822,1.986,12.624-.736,6.856-.736,6.856.195,3.247-1.25,3.6-2.705.541-1.537,1.623,0,2.706,0,2.706a8.428,8.428,0,0,0,0,4.15c.633,1.623-3.7,2.3-3.333,4.329s1.58,7.754,0,7.938.541,7.213-.882,7.213-2.435,12.624-2.435,12.624-10.01-8.474-16.682-6.131c0,0,.541-7.034,2.706-9.561s1.51-9.015,1.51-9.015l10.736-32.288Z" transform="translate(-357.713 -115.843)" fill="#fb0201"/>
  <path id="Path_3024" data-name="Path 3024" d="M643.494,412.358c-2.343,2.592-4.87-11.25-4.87-11.25s-6.672,9.2-11,3.068c-3-4.248-.633-16.282,1.082-23.267.768-3.106,1.418-5.216,1.418-5.216l9.74-1.623s.033,2.121.249,4.7c.292,3.479.925,7.8,2.272,8.831C644.76,389.389,645.842,409.745,643.494,412.358Z" transform="translate(-318.697 -209.926)" fill="#ae6e79"/>
  <path id="Path_3025" data-name="Path 3025" d="M625.813,141.1s-16.958-.179-21.1,8.836-4.329,12.088-5.952,13.528,17.672,9.02,17.672,9.02l.9,31.021a10.308,10.308,0,0,1,9.918-2.1c6.131,1.737,13.89,0,13.89,0s-.362-.655,4.691,0,21.1-7.819,21.1-7.819.265-13.571-.092-16.46S678.294,153,678.294,153s9.2-8.836-.357-11.9c0,0-3.382-5.1-12.083-5.048S625.813,141.1,625.813,141.1Z" transform="translate(-306.065 -100.7)" opacity="0.1"/>
  <path id="Path_3026" data-name="Path 3026" d="M625.813,140.1s-16.958-.179-21.1,8.836-4.329,12.088-5.952,13.528,17.672,9.02,17.672,9.02l.9,31.021a10.308,10.308,0,0,1,9.918-2.1c6.131,1.737,13.89,0,13.89,0s-.362-.655,4.691,0,21.1-7.819,21.1-7.819,6.309-10.281,5.952-13.165,12.624-24.712,12.624-24.712,1.986-11.542-7.575-14.61c0,0-3.382-5.1-12.083-5.048S625.813,140.1,625.813,140.1Z" transform="translate(-306.065 -100.241)" fill="#fb0201"/>
  <path id="Path_3027" data-name="Path 3027" d="M642.326,378.755c-3.717-1.158-9.551,1.4-11.406,2.164.768-3.106,1.418-5.216,1.418-5.216l9.74-1.623S642.094,376.2,642.326,378.755Z" transform="translate(-320.868 -209.931)" opacity="0.1"/>
  <path id="Path_3028" data-name="Path 3028" d="M603.659,185.71h-5.227s-1.082,11.006,0,14.253,1.623,2.776,1.261,5.178,2.527,6.082,2.527,6.082.357,9.069,2.164,12.445-1.986,18.517-1.986,18.517a21.789,21.789,0,0,0,4.507,7.034c3.068,3.063,4.691,14.426,3.788,18.755a5.2,5.2,0,0,0,2.527,5.952s1.445,20.2,1.986,20.2,11-5.411,14.247-.725l-2.527-18.576.184-35.891s-3.431-4.513-1.623-8.479-1.445-13.349-1.445-13.349l-4.691-20.919Z" transform="translate(-305.739 -123.489)" fill="#fb0201"/>
  <path id="Path_3029" data-name="Path 3029" d="M538.932,712.1s-7.576-1.623-7.754,0-9.02,18.219,1.986,23.089,40.4,15.33,88.2,1.8c0,0,3.063,1.082,2.343-5.589s-.72-14.069-.72-14.069-7.218-1.986-12.629-1.261S557.871,726.351,538.932,712.1Z" transform="translate(-273.478 -364.716)" fill="#33323d"/>
  <path id="Path_3030" data-name="Path 3030" d="M538.932,712.1s-7.576-1.623-7.754,0-9.02,18.219,1.986,23.089,40.4,15.33,88.2,1.8c0,0,3.063,1.082,2.343-5.589s-.72-14.069-.72-14.069-7.218-1.986-12.629-1.261S557.871,726.351,538.932,712.1Z" transform="translate(-273.478 -364.716)" opacity="0.1"/>
  <path id="Path_3031" data-name="Path 3031" d="M538.932,708.1s-7.576-1.623-7.754,0-9.02,18.219,1.986,23.089,40.4,15.329,88.2,1.8c0,0,3.063,1.082,2.343-5.59s-.72-14.069-.72-14.069-7.218-1.986-12.629-1.261S557.871,722.351,538.932,708.1Z" transform="translate(-273.478 -362.88)" fill="#33323d"/>
  <path id="Path_3032" data-name="Path 3032" d="M628.7,196.772c-.465,2.646-1.52,5.189-1.683,7.868s.871,5.725,3.344,6.775a11.271,11.271,0,0,1,2,.812,4.391,4.391,0,0,1,1.542,2.992,16.343,16.343,0,0,1,.189,4.448c-.135,1.493-.454,3.1.281,4.4,1.293,2.31,4.664,1.97,7.229,1.32l-.882,6.834a1.3,1.3,0,0,0,1.58,1.8,13.789,13.789,0,0,0,6.434-1.623c1.91-1.174,3.333-3.36,2.971-5.563-.422-2.554-3.063-4.583-2.705-7.148.276-1.986,2.218-3.247,3.5-4.772a9.178,9.178,0,0,0,.622-10.194,11.6,11.6,0,0,0-8.917-5.476c-2-.2-4.074.043-5.952-.649a4.513,4.513,0,0,1-2.76-2.911" transform="translate(-319.069 -128.068)" fill="#444053"/>
  <path id="Path_3033" data-name="Path 3033" d="M513.84,626.025l1.888-4.112s10.194-9.5,12.537-10.162,11.9-3.566,13.349-3.566,27.78-1.445,27.78-1.445l3.063,7.218-33.051,7.256-11.141,8.117Z" transform="translate(-267.141 -316.698)" fill="#767d9f"/>
  <path id="Path_3034" data-name="Path 3034" d="M643.8,425.453l-1.726,13.284-.666,5.113-7.754,1.082s-.839-1.8-2.024-4.556c-3.6-8.376-10.373-25.648-6.445-28.63,5.222-3.972,6.493,9.2,6.493,9.2l5.952-2.889Z" transform="translate(-317.69 -226.874)" fill="#ffb9b9"/>
  <rect id="Rectangle_1807" data-name="Rectangle 1807" width="39.16" height="59.159" transform="translate(285.653 223.292)" fill="#fff"/>
  <rect id="Rectangle_1808" data-name="Rectangle 1808" width="39.16" height="59.159" transform="translate(285.653 223.292)" opacity="0.1"/>
  <rect id="Rectangle_1809" data-name="Rectangle 1809" width="39.16" height="59.159" transform="translate(303.675 220.77) rotate(8.41)" fill="#fff"/>
  <rect id="Rectangle_1810" data-name="Rectangle 1810" width="20.156" height="30.448" transform="translate(307.321 226.351) rotate(8.41)" fill="red"/>
  <rect id="Rectangle_1811" data-name="Rectangle 1811" width="24.42" height="6.612" transform="translate(300.73 265.043) rotate(8.41)" fill="red"/>
  <ellipse id="Ellipse_546" data-name="Ellipse 546" cx="22.634" cy="22.634" rx="22.634" ry="22.634" transform="translate(312.443 28.765)" opacity="0.1"/>
  <ellipse id="Ellipse_547" data-name="Ellipse 547" cx="22.634" cy="22.634" rx="22.634" ry="22.634" transform="translate(312.443 28.224)" fill="#ae6e79"/>
  <path id="Path_3035" data-name="Path 3035" d="M631.765,148.353a2.576,2.576,0,0,1,.157-1.748c.86-1.791,3.312-1.948,5.3-1.856,4.67.216,9.794.243,13.446-2.706,1.515-1.212,3.209-4.258,5.411-3.68,1.959.514,2.776,3.171,4.816,3.761,1.477.427,3.009-.254,4.513-.541,2.164-.427,4.383-.07,6.58-.054s4.583-.4,6.082-2.007c2.024-2.164,1.694-5.546,1.515-8.512a45.83,45.83,0,0,1,.774-11.439c.736-3.744,1.867-7.933-.2-11.141-1.97-3.057-6.05-3.9-8.836-6.239-2.608-2.164-3.988-5.633-6.742-7.64-3.468-2.527-8.181-2.164-12.445-1.726l-9.253.985c-2.386.254-4.87.541-6.834,1.964-3.544,2.565-4.031,7.895-7.386,10.7-1.494,1.245-3.4,1.861-5.108,2.792s-3.349,2.4-3.544,4.329c-.162,1.623.714,3.122,1.142,4.686,1.012,3.734-.568,7.575-1.58,11.336s-1.207,8.328,1.732,10.822c.6.509,1.288.9,1.867,1.428,1.986,1.813,2.256,4.87,1.8,7.511" transform="translate(-315.35 -80.72)" fill="#444053"/>
  <ellipse id="Ellipse_548" data-name="Ellipse 548" cx="0.541" cy="1.353" rx="0.541" ry="1.353" transform="translate(336.382 76.425)" fill="#444053"/>
  <ellipse id="Ellipse_549" data-name="Ellipse 549" cx="0.541" cy="1.353" rx="0.541" ry="1.353" transform="translate(336.382 82.064)" fill="#444053"/>
  <path id="Path_3036" data-name="Path 3036" d="M653.935,434.013c.579-.666.963-2.375,1.185-4.632l-6.45-8.041S651.4,436.929,653.935,434.013Z" transform="translate(-329.014 -231.619)" fill="#ae6e79"/>
  <path id="Path_3037" data-name="Path 3037" d="M596.1,659.708s-10.584,16.363-43.651,14.61c-31.151-1.623-46.356-16.953-45.631-22.364s-1.986-18.582,4.686-22.369c3.869-2.192,8.961-.893,12.553.59a7.088,7.088,0,0,0,7.451-1.336c3.285-2.96,9.41-6.293,19.079-3.669a6.871,6.871,0,0,0,3.788-.07c4.026-1.228,13.609-3.36,20.562,1.374a7.034,7.034,0,0,0,7.532.287l.1-.059c3.247-1.986,18.4,16.774,18.4,16.774S601.69,657.906,596.1,659.708Z" transform="translate(-263.907 -324.408)" opacity="0.1"/>
  <path id="Path_3038" data-name="Path 3038" d="M596.1,660.708s-10.584,16.363-43.651,14.61c-31.151-1.623-46.356-16.953-45.631-22.364s-1.986-18.582,4.686-22.369c3.869-2.192,8.961-.893,12.553.59a7.089,7.089,0,0,0,7.451-1.336c3.285-2.96,9.41-6.293,19.079-3.669a6.871,6.871,0,0,0,3.788-.07c4.026-1.228,13.609-3.36,20.562,1.374a7.034,7.034,0,0,0,7.532.287l.1-.06c3.247-1.986,18.4,16.774,18.4,16.774S601.69,658.906,596.1,660.708Z" transform="translate(-263.907 -324.867)" fill="#767d9f"/>
  <ellipse id="Ellipse_550" data-name="Ellipse 550" cx="21.558" cy="21.558" rx="21.558" ry="21.558" transform="translate(266.985 299.133)" opacity="0.1"/>
  <ellipse id="Ellipse_551" data-name="Ellipse 551" cx="21.558" cy="21.558" rx="21.558" ry="21.558" transform="translate(266.985 299.674)" fill="#ffb9b9"/>
  <path id="Path_3039" data-name="Path 3039" d="M564.671,629.507c-2.262.612-4.491,1.78-5.6,3.7-.666,1.158-.9,2.549-1.861,3.512-1.364,1.369-3.663,1.4-5.508,2.164s-3.063,3.474-1.255,4.329a4.03,4.03,0,0,0-3.512,3.56,10.59,10.59,0,0,0,1.055,5.092c2.067,5.324,4.291,10.882,8.847,14.669,7.424,6.179,18.614,5.893,28.587,5.238a4.675,4.675,0,0,0,2.343-.541c1.082-.714,1.218-2.083,1.4-3.285.752-5.13,3.533-9.788,5.351-14.686s2.565-10.649-.5-14.983C589.513,631.85,572.257,627.451,564.671,629.507Z" transform="translate(-282.308 -326.911)" fill="#b96b6b"/>
  <path id="Path_3040" data-name="Path 3040" d="M648.543,462.008l-.666,5.113-7.754,1.082s-.839-1.8-2.024-4.556l10.319-1.937Z" transform="translate(-324.163 -250.144)" opacity="0.1"/>
  <path id="Path_3041" data-name="Path 3041" d="M655.552,575.444l4.513-5.233-.9-28.857a46.841,46.841,0,0,0,.9-6.315c.178-3.068-2.256-9.918-2.256-9.918a21.471,21.471,0,0,1,1.531-3.972c1.082-2.164-1.526-7.034-1.526-7.034s-3.885-12.624-2.262-18.939-.4-9.918-.4-9.918-1.585-7.034-1.407-9.918-3.609-5.6-3.609-5.6l-2.884-7.034-11.542,2.164v24.35s.719,23.267,0,27.78a16.5,16.5,0,0,0,1.439,8.836s-1.261,6.672-.179,9.2,3.247,8.658,3.247,8.658a14.068,14.068,0,0,0,.362,6.58c1.082,3.16,0,4.962,0,4.962Z" transform="translate(-323.002 -250.603)" fill="#767d9f"/>
  <g id="Group_1969" data-name="Group 1969" transform="translate(303.566 31.314)" opacity="0.1">
    <path id="Path_3042" data-name="Path 3042" d="M731.809,134.347a45.814,45.814,0,0,0-.817,9.615,46.02,46.02,0,0,1,.839-7.987,30.907,30.907,0,0,0,.952-7.386,44.915,44.915,0,0,1-.974,5.757Z" transform="translate(-670.352 -128.59)"/>
    <path id="Path_3043" data-name="Path 3043" d="M623.2,174.7c-.579-.541-1.272-.92-1.867-1.434a7.427,7.427,0,0,1-2.375-5.411c-.157,2.706.4,5.324,2.375,7.034.6.514,1.288.9,1.867,1.434a6.612,6.612,0,0,1,1.959,4.518C625.317,178.574,624.857,176.209,623.2,174.7Z" transform="translate(-618.933 -146.611)"/>
    <path id="Path_3044" data-name="Path 3044" d="M622.4,137.356a10.2,10.2,0,0,0-.292-3.4c-.314-1.158-.877-2.289-1.082-3.452a3.592,3.592,0,0,1-.059.39c-.157,1.623.72,3.122,1.142,4.686A9.215,9.215,0,0,1,622.4,137.356Z" transform="translate(-619.857 -129.467)"/>
    <path id="Path_3045" data-name="Path 3045" d="M683.262,172.062c-1.5,1.623-3.885,2.024-6.082,2.008s-4.421-.373-6.58.059c-1.5.3-3.036.979-4.513.541-2.04-.59-2.857-3.247-4.81-3.761-2.224-.584-3.917,2.462-5.411,3.674-3.652,2.922-8.777,2.895-13.446,2.706-1.986-.092-4.437.065-5.292,1.861a2.512,2.512,0,0,0-.157,1.748l-6.612,1.039a12.848,12.848,0,0,1-.179,1.623l6.791-1.082a2.512,2.512,0,0,1,.157-1.748c.855-1.8,3.306-1.953,5.292-1.861,4.67.216,9.794.243,13.446-2.705,1.515-1.212,3.209-4.258,5.411-3.674,1.953.509,2.771,3.171,4.81,3.761,1.477.422,3.009-.254,4.513-.541,2.165-.433,4.383-.076,6.58-.06s4.583-.4,6.082-2.008,1.715-4,1.623-6.342A7.062,7.062,0,0,1,683.262,172.062Z" transform="translate(-624.094 -146.354)"/>
  </g>
  <g id="Group_1970" data-name="Group 1970" transform="translate(308.033 78.07)" opacity="0.1">
    <path id="Path_3046" data-name="Path 3046" d="M631.8,221.175a10.944,10.944,0,0,0-2-.812,5.168,5.168,0,0,1-2.613-2.673,5.789,5.789,0,0,0,3.155,4.3,10.946,10.946,0,0,1,2,.812,3,3,0,0,1,.958,1.12A4.174,4.174,0,0,0,631.8,221.175Z" transform="translate(-627.19 -216.234)"/>
    <path id="Path_3047" data-name="Path 3047" d="M646.751,247.483c-2.495.633-5.752.963-7.121-1.153a3.713,3.713,0,0,0,.433,1.456c1.169,2.083,4.026,2.013,6.455,1.5Z" transform="translate(-632.899 -229.377)"/>
    <path id="Path_3048" data-name="Path 3048" d="M662.505,251.2a5.805,5.805,0,0,1-2.976,5.541,14.137,14.137,0,0,1-6.434,1.623,2.208,2.208,0,0,1-1.05-.119,1.288,1.288,0,0,0,1.591,1.742,13.789,13.789,0,0,0,6.434-1.623c1.91-1.174,3.339-3.36,2.971-5.563A6.138,6.138,0,0,0,662.505,251.2Z" transform="translate(-638.545 -231.612)"/>
    <path id="Path_3049" data-name="Path 3049" d="M671.549,215a8.906,8.906,0,0,1-1.623,7.657c-1.277,1.548-3.219,2.787-3.5,4.772a4.509,4.509,0,0,0,.541,2.635,3.522,3.522,0,0,1,0-1.012c.276-1.986,2.219-3.247,3.5-4.773A9.1,9.1,0,0,0,671.549,215Z" transform="translate(-645.187 -215)"/>
  </g>
  <g id="Group_1971" data-name="Group 1971" transform="translate(264.582 301.846)" opacity="0.1">
    <path id="Path_3050" data-name="Path 3050" d="M553.989,639.515c1.84-.763,4.14-.79,5.508-2.164.963-.963,1.2-2.354,1.861-3.506,1.082-1.926,3.328-3.09,5.589-3.7,7.576-2.056,24.847,2.338,29.349,8.706a11.825,11.825,0,0,1,2.067,6.536,12.219,12.219,0,0,0-2.062-7.613c-4.5-6.369-21.758-10.763-29.349-8.706-2.262.611-4.491,1.775-5.59,3.7-.666,1.153-.9,2.543-1.861,3.506-1.369,1.369-3.669,1.4-5.508,2.164-1.4.579-2.44,2.289-2.062,3.436A3.722,3.722,0,0,1,553.989,639.515Z" transform="translate(-549.168 -628.555)"/>
    <path id="Path_3051" data-name="Path 3051" d="M546.949,659.536a4.014,4.014,0,0,1,3.512-3.56,1.44,1.44,0,0,1-.828-.925,4.2,4.2,0,0,0-2.706,3.4,5.719,5.719,0,0,0,0,1.326A.923.923,0,0,0,546.949,659.536Z" transform="translate(-546.889 -640.713)"/>
  </g>
  <rect id="Rectangle_1812" data-name="Rectangle 1812" width="49.24" height="64.213" transform="translate(330.024 124.578)" fill="#fff"/>
  <rect id="Rectangle_1813" data-name="Rectangle 1813" width="49.24" height="64.213" transform="translate(330.024 124.578)" opacity="0.1"/>
  <rect id="Rectangle_1814" data-name="Rectangle 1814" width="49.24" height="64.213" transform="translate(349.551 136.694) rotate(-9.76)" fill="#fff"/>
  <rect id="Rectangle_1815" data-name="Rectangle 1815" width="11.569" height="15.086" transform="translate(361.312 179.834) rotate(-9.76)" fill="red"/>
  <rect id="Rectangle_1816" data-name="Rectangle 1816" width="11.569" height="15.086" transform="translate(377.089 177.117) rotate(-9.76)" fill="red"/>
  <rect id="Rectangle_1817" data-name="Rectangle 1817" width="40.569" height="15.154" transform="translate(359.654 160.238) rotate(-9.744)" fill="red"/>
  <rect id="Rectangle_1818" data-name="Rectangle 1818" width="40.569" height="3.381" transform="translate(356.322 142.413) rotate(-9.744)" fill="red"/>
  <rect id="Rectangle_1819" data-name="Rectangle 1819" width="40.569" height="3.381" transform="translate(357.633 148.543) rotate(-9.744)" fill="red"/>
  <path id="Path_3052" data-name="Path 3052" d="M706.735,268.71s-22.634,22.726-11.271,28.5S714.224,278,714.224,278l1.8-5.682Z" transform="translate(-349.023 -161.577)" fill="#ae6e79"/>
  <path id="Path_3053" data-name="Path 3053" d="M712.967,262.228l-2.8,6.179s13.8,1.937,16.682,6.109l-1.71-10.9-2.029-4.654Z" transform="translate(-357.236 -157.103)" opacity="0.1"/>
  <path id="Path_3054" data-name="Path 3054" d="M713.967,261.228l-2.8,6.179s13.8,1.937,16.682,6.109l-1.71-10.9-2.029-4.653Z" transform="translate(-357.695 -156.644)" fill="#fb0201"/>
  <path id="Path_3055" data-name="Path 3055" d="M812.528,403.26l-.3.206.411.184.444-.038.054-.309Z" transform="translate(-372.73 -185.06)" fill="#464a5f"/>
  <path id="Path_3056" data-name="Path 3056" d="M812.528,403.26l-.3.206.411.184.444-.038.054-.309Z" transform="translate(-372.73 -185.06)" opacity="0.1"/>
  <path id="Path_3057" data-name="Path 3057" d="M812.321,402.939l-.3.195-.238-.292.146-.238.135-.043Z" transform="translate(-372.524 -184.739)" fill="#9c9ca1"/>
  <path id="Path_3058" data-name="Path 3058" d="M812.321,402.939l-.3.195-.238-.292.146-.238.135-.043Z" transform="translate(-372.524 -184.739)" opacity="0.1"/>
  <path id="Path_3059" data-name="Path 3059" d="M904.378,376.756l-22.153-32a2.635,2.635,0,0,0-3.669-.676l-49.381,33.895a2.646,2.646,0,0,0-.687,3.674l22.093,32.4Z" transform="translate(-411.32 -195.952)" fill="#9c9ca1"/>
  <path id="Path_3060" data-name="Path 3060" d="M904.378,376.756l-22.153-32a2.635,2.635,0,0,0-3.669-.676l-49.381,33.895a2.646,2.646,0,0,0-.687,3.674l22.093,32.4Z" transform="translate(-411.32 -195.952)" opacity="0.1"/>
  <path id="Path_3061" data-name="Path 3061" d="M905.377,376.9l-22.153-32a2.641,2.641,0,0,0-3.674-.676L830.174,378.14a2.651,2.651,0,0,0-.693,3.674l22.093,32.418Z" transform="translate(-411.778 -196.016)" fill="#9c9ca1"/>
  <path id="Path_3062" data-name="Path 3062" d="M943.115,411.679l-18.4-5.909-53.807,37.3,18.69,6.114a2.83,2.83,0,0,0,2.505-.379l51.161-36.124a.541.541,0,0,0-.151-1Z" transform="translate(-430.999 -224.474)" fill="#464a5f"/>
  <path id="Path_3063" data-name="Path 3063" d="M943.115,411.679l-18.4-5.909-53.807,37.3,18.69,6.114a2.83,2.83,0,0,0,2.505-.379l51.161-36.124a.541.541,0,0,0-.151-1Z" transform="translate(-430.999 -224.474)" opacity="0.1"/>
  <path id="Path_3064" data-name="Path 3064" d="M942.9,410.984l-18.4-5.914-53.807,37.3,18.69,6.1a2.808,2.808,0,0,0,2.505-.373l51.161-36.124a.541.541,0,0,0-.152-.99Z" transform="translate(-430.903 -224.152)" fill="#464a5f"/>
  <g id="Group_1972" data-name="Group 1972" transform="translate(431.581 166.048)" opacity="0.1">
    <path id="Path_3065" data-name="Path 3065" d="M950.388,400.518l-1.358-1.948a.541.541,0,0,0-.736-.135l-2.018,1.347a.541.541,0,0,0-.146.731l1.25,1.921a.541.541,0,0,0,.73.157l2.127-1.337A.541.541,0,0,0,950.388,400.518Z" transform="translate(-897.06 -387.115)"/>
    <path id="Path_3066" data-name="Path 3066" d="M943.685,405.162l-1.364-1.943a.541.541,0,0,0-.736-.135l-2.013,1.358a.541.541,0,0,0-.151.73l1.25,1.921a.541.541,0,0,0,.73.162l2.132-1.337a.541.541,0,0,0,.152-.758Z" transform="translate(-893.982 -389.248)"/>
    <path id="Path_3067" data-name="Path 3067" d="M936.641,410.032l-1.364-1.943a.541.541,0,0,0-.736-.135l-2.018,1.358a.541.541,0,0,0-.146.736l1.25,1.921a.541.541,0,0,0,.73.157l2.127-1.337a.541.541,0,0,0,.157-.758Z" transform="translate(-890.748 -391.483)"/>
    <path id="Path_3068" data-name="Path 3068" d="M929.518,414.97l-1.364-1.948a.541.541,0,0,0-.73-.135l-2.018,1.364a.541.541,0,0,0-.146.731l1.25,1.921a.541.541,0,0,0,.725.162l2.132-1.342a.541.541,0,0,0,.152-.752Z" transform="translate(-887.483 -393.748)"/>
    <path id="Path_3069" data-name="Path 3069" d="M922.395,419.9l-1.364-1.943a.541.541,0,0,0-.736-.135l-2.013,1.358a.541.541,0,0,0-.152.73l1.25,1.921a.541.541,0,0,0,.731.162l2.132-1.342a.542.542,0,0,0,.151-.752Z" transform="translate(-884.212 -396.013)"/>
    <path id="Path_3070" data-name="Path 3070" d="M915.348,424.982l-1.694-2.413a.244.244,0,0,0-.341-.065l-2.478,1.672a.243.243,0,0,0-.07.341l1.553,2.386a.249.249,0,0,0,.341.076l2.619-1.623a.249.249,0,0,0,.07-.373Z" transform="translate(-880.85 -398.181)"/>
    <path id="Path_3071" data-name="Path 3071" d="M908.219,429.911l-1.7-2.413a.249.249,0,0,0-.346-.065L903.69,429.1a.249.249,0,0,0-.065.341l1.553,2.386a.238.238,0,0,0,.341.076l2.614-1.623a.244.244,0,0,0,.087-.373Z" transform="translate(-877.574 -400.443)"/>
    <path id="Path_3072" data-name="Path 3072" d="M901.919,434.3l-1.693-2.392a.249.249,0,0,0-.341-.06l-2.478,1.667a.254.254,0,0,0-.07.346l1.553,2.386a.254.254,0,0,0,.341.076l2.619-1.623a.249.249,0,0,0,.07-.4Z" transform="translate(-874.689 -402.472)"/>
    <path id="Path_3073" data-name="Path 3073" d="M894.857,439.167l-1.694-2.413a.249.249,0,0,0-.341-.059l-2.478,1.667a.249.249,0,0,0-.07.346l1.553,2.386a.254.254,0,0,0,.341.076l2.619-1.623a.254.254,0,0,0,.07-.379Z" transform="translate(-871.447 -404.693)"/>
    <path id="Path_3074" data-name="Path 3074" d="M888.018,443.862l-1.694-2.413a.243.243,0,0,0-.341-.065l-2.478,1.672a.243.243,0,0,0-.07.341l1.553,2.386a.249.249,0,0,0,.341.076l2.619-1.623a.249.249,0,0,0,.071-.373Z" transform="translate(-868.309 -406.845)"/>
    <path id="Path_3075" data-name="Path 3075" d="M881.191,448.642l-1.677-2.419a.249.249,0,0,0-.341-.06l-2.478,1.667a.248.248,0,0,0-.07.346l1.553,2.386a.254.254,0,0,0,.341.076l2.619-1.623a.249.249,0,0,0,.054-.373Z" transform="translate(-865.183 -409.039)"/>
    <path id="Path_3076" data-name="Path 3076" d="M874.338,453.372l-1.694-2.413a.243.243,0,0,0-.341-.065l-2.478,1.661a.243.243,0,0,0-.07.341l1.553,2.386a.249.249,0,0,0,.341.076l2.619-1.623a.249.249,0,0,0,.07-.363Z" transform="translate(-862.031 -411.209)"/>
    <path id="Path_3077" data-name="Path 3077" d="M945.9,394.008l-1.364-1.948a.541.541,0,0,0-.736-.135l-2,1.364a.541.541,0,0,0-.151.731l1.25,1.921a.541.541,0,0,0,.73.157l2.132-1.336A.541.541,0,0,0,945.9,394.008Z" transform="translate(-895.006 -384.127)"/>
    <path id="Path_3078" data-name="Path 3078" d="M936.035,379.771l-1.364-1.959a.541.541,0,0,0-.73-.135l-2.019,1.358a.541.541,0,0,0-.151.731l1.25,1.921a.541.541,0,0,0,.73.162l2.132-1.337A.541.541,0,0,0,936.035,379.771Z" transform="translate(-890.472 -377.59)"/>
    <path id="Path_3079" data-name="Path 3079" d="M939.178,398.654l-1.364-1.943a.541.541,0,0,0-.73-.135l-2.018,1.358a.541.541,0,0,0-.146.73l1.245,1.921a.541.541,0,0,0,.731.162l2.132-1.336a.541.541,0,0,0,.151-.758Z" transform="translate(-891.916 -386.263)"/>
    <path id="Path_3080" data-name="Path 3080" d="M932.132,403.522l-1.364-1.943a.541.541,0,0,0-.736-.135l-2.013,1.342a.541.541,0,0,0-.151.736l1.25,1.921a.541.541,0,0,0,.731.157l2.132-1.337A.541.541,0,0,0,932.132,403.522Z" transform="translate(-888.68 -388.496)"/>
    <path id="Path_3081" data-name="Path 3081" d="M925.008,408.458l-1.358-1.948a.541.541,0,0,0-.736-.135l-2.019,1.38a.541.541,0,0,0-.146.73l1.25,1.921a.541.541,0,0,0,.73.157l2.126-1.337a.541.541,0,0,0,.152-.768Z" transform="translate(-885.413 -390.758)"/>
    <path id="Path_3082" data-name="Path 3082" d="M929.485,384.654l-1.364-1.943a.541.541,0,0,0-.73-.135l-2.018,1.358a.541.541,0,0,0-.152.731l1.25,1.921a.541.541,0,0,0,.73.162l2.132-1.337a.541.541,0,0,0,.151-.757Z" transform="translate(-887.466 -379.838)"/>
    <path id="Path_3083" data-name="Path 3083" d="M922.445,389.528l-1.364-1.948a.541.541,0,0,0-.736-.135l-2.013,1.342a.541.541,0,0,0-.152.731l1.25,1.921a.541.541,0,0,0,.73.157l2.132-1.336A.541.541,0,0,0,922.445,389.528Z" transform="translate(-884.235 -382.071)"/>
    <path id="Path_3084" data-name="Path 3084" d="M915.318,394.461l-1.364-1.943a.541.541,0,0,0-.73-.141l-2.018,1.38a.541.541,0,0,0-.146.731l1.25,1.921a.541.541,0,0,0,.731.162l2.126-1.342a.541.541,0,0,0,.152-.768Z" transform="translate(-880.967 -384.337)"/>
    <path id="Path_3085" data-name="Path 3085" d="M917.9,413.391l-1.364-1.943a.541.541,0,0,0-.731-.141l-2,1.364a.541.541,0,0,0-.146.73l1.228,1.921a.541.541,0,0,0,.725.162l2.132-1.342a.541.541,0,0,0,.157-.752Z" transform="translate(-882.16 -393.024)"/>
    <path id="Path_3086" data-name="Path 3086" d="M910.765,418.322,909.4,416.38a.541.541,0,0,0-.736-.135l-2.013,1.358a.541.541,0,0,0-.151.73l1.25,1.921a.541.541,0,0,0,.731.162l2.132-1.337a.541.541,0,0,0,.152-.758Z" transform="translate(-878.875 -395.288)"/>
    <path id="Path_3087" data-name="Path 3087" d="M903.718,423.4l-1.694-2.413a.244.244,0,0,0-.341-.065l-2.478,1.672a.243.243,0,0,0-.07.341l1.553,2.386a.244.244,0,0,0,.341.076l2.619-1.623a.249.249,0,0,0,.07-.373Z" transform="translate(-875.513 -397.456)"/>
    <path id="Path_3088" data-name="Path 3088" d="M897.414,427.772l-1.694-2.419a.249.249,0,0,0-.341-.06l-2.473,1.667a.254.254,0,0,0-.07.346l1.553,2.386a.254.254,0,0,0,.341.076l2.619-1.623a.238.238,0,0,0,.065-.373Z" transform="translate(-872.624 -399.461)"/>
    <path id="Path_3089" data-name="Path 3089" d="M890.348,432.656l-1.694-2.413a.249.249,0,0,0-.341-.059l-2.478,1.667a.243.243,0,0,0-.07.341l1.553,2.392a.254.254,0,0,0,.341.076l2.619-1.623a.254.254,0,0,0,.07-.379Z" transform="translate(-869.378 -401.705)"/>
    <path id="Path_3090" data-name="Path 3090" d="M883.508,437.392l-1.694-2.413a.244.244,0,0,0-.341-.065l-2.478,1.65a.244.244,0,0,0-.07.341l1.553,2.386a.249.249,0,0,0,.341.076l2.619-1.623a.249.249,0,0,0,.07-.352Z" transform="translate(-866.239 -403.876)"/>
    <path id="Path_3091" data-name="Path 3091" d="M927.448,396.754l-1.364-1.943a.541.541,0,0,0-.73-.135l-2.018,1.364a.541.541,0,0,0-.146.731l1.25,1.921a.541.541,0,0,0,.725.157l2.132-1.336a.541.541,0,0,0,.152-.758Z" transform="translate(-886.533 -385.391)"/>
    <path id="Path_3092" data-name="Path 3092" d="M920.314,401.688l-1.364-1.948a.541.541,0,0,0-.736-.135l-2.013,1.364a.541.541,0,0,0-.151.73l1.25,1.921a.541.541,0,0,0,.73.162l2.132-1.342a.541.541,0,0,0,.151-.752Z" transform="translate(-883.258 -387.652)"/>
    <path id="Path_3093" data-name="Path 3093" d="M913.2,406.622l-1.364-1.943a.541.541,0,0,0-.736-.135l-2.018,1.358a.541.541,0,0,0-.146.731l1.25,1.921a.541.541,0,0,0,.731.162l2.127-1.342a.541.541,0,0,0,.157-.752Z" transform="translate(-879.994 -389.918)"/>
    <path id="Path_3094" data-name="Path 3094" d="M906.078,411.555l-1.364-1.943a.541.541,0,0,0-.731-.135l-2.018,1.358a.541.541,0,0,0-.146.731l1.25,1.943a.541.541,0,0,0,.725.162l2.132-1.336a.541.541,0,0,0,.152-.779Z" transform="translate(-876.726 -392.183)"/>
    <path id="Path_3095" data-name="Path 3095" d="M899.08,416.632l-1.694-2.413a.243.243,0,0,0-.341-.065l-2.478,1.672a.249.249,0,0,0-.07.341l1.553,2.392a.244.244,0,0,0,.341.07l2.619-1.623a.249.249,0,0,0,.07-.373Z" transform="translate(-873.386 -394.349)"/>
    <path id="Path_3096" data-name="Path 3096" d="M892.729,421l-1.694-2.419a.254.254,0,0,0-.346-.06l-2.473,1.667a.254.254,0,0,0-.07.346l1.553,2.386a.249.249,0,0,0,.341.076l2.619-1.623a.249.249,0,0,0,.07-.373Z" transform="translate(-870.471 -396.354)"/>
    <path id="Path_3097" data-name="Path 3097" d="M885.666,425.862l-1.694-2.419a.254.254,0,0,0-.346-.059l-2.478,1.667a.26.26,0,0,0-.07.346l1.558,2.386a.249.249,0,0,0,.341.076l2.614-1.623a.244.244,0,0,0,.076-.373Z" transform="translate(-867.229 -398.584)"/>
    <path id="Path_3098" data-name="Path 3098" d="M878.828,430.621l-1.694-2.413a.249.249,0,0,0-.346-.065l-2.478,1.672a.249.249,0,0,0-.065.341l1.553,2.386a.238.238,0,0,0,.341.076l2.614-1.623a.243.243,0,0,0,.076-.373Z" transform="translate(-864.092 -400.769)"/>
    <path id="Path_3099" data-name="Path 3099" d="M876.668,442.127l-1.694-2.413a.249.249,0,0,0-.341-.06l-2.478,1.667a.244.244,0,0,0-.07.341l1.553,2.392a.254.254,0,0,0,.341.076l2.619-1.623a.254.254,0,0,0,.07-.379Z" transform="translate(-863.1 -406.051)"/>
    <path id="Path_3100" data-name="Path 3100" d="M869.828,446.862l-1.694-2.413a.243.243,0,0,0-.341-.065l-2.478,1.672a.244.244,0,0,0-.07.341l1.553,2.386a.249.249,0,0,0,.341.076l2.619-1.623a.249.249,0,0,0,.07-.373Z" transform="translate(-859.961 -408.221)"/>
    <path id="Path_3101" data-name="Path 3101" d="M880.615,418.615l-1.623-2.273a.335.335,0,0,0-.46-.081l-2.338,1.575a.33.33,0,0,0-.092.46l1.461,2.246a.325.325,0,0,0,.455.1l2.473-1.553a.335.335,0,0,0,.125-.476Z" transform="translate(-864.937 -395.31)"/>
    <path id="Path_3102" data-name="Path 3102" d="M873.8,423.35l-1.6-2.273a.33.33,0,0,0-.46-.087l-2.338,1.6a.325.325,0,0,0-.092.454l1.461,2.251a.335.335,0,0,0,.455.1l2.473-1.553a.335.335,0,0,0,.1-.5Z" transform="translate(-861.822 -397.48)"/>
    <path id="Path_3103" data-name="Path 3103" d="M866.958,428.09l-1.6-2.278a.335.335,0,0,0-.46-.081l-2.338,1.575a.33.33,0,0,0-.092.46l1.461,2.246a.325.325,0,0,0,.454.1l2.473-1.553a.33.33,0,0,0,.1-.471Z" transform="translate(-858.682 -399.655)"/>
    <path id="Path_3104" data-name="Path 3104" d="M860.139,432.862l-1.694-2.419a.249.249,0,0,0-.341-.06l-2.478,1.667a.254.254,0,0,0-.07.346l1.553,2.386a.254.254,0,0,0,.341.076l2.619-1.623a.238.238,0,0,0,.07-.373Z" transform="translate(-855.516 -401.797)"/>
    <path id="Path_3105" data-name="Path 3105" d="M938.088,386.9l-1.467-2.083a.541.541,0,0,0-.736-.13l-5.725,4.009a.541.541,0,0,0-.141.725l1.38,2.132a.541.541,0,0,0,.752.146l5.811-4.064A.541.541,0,0,0,938.088,386.9Z" transform="translate(-889.668 -380.803)"/>
    <path id="Path_3106" data-name="Path 3106" d="M868.742,435.107l-1.8-2.538a.243.243,0,0,0-.346-.06l-6.179,4.329a.243.243,0,0,0-.065.336l1.688,2.614a.249.249,0,0,0,.352.07l6.282-4.4A.254.254,0,0,0,868.742,435.107Z" transform="translate(-857.718 -402.771)"/>
    <path id="Path_3107" data-name="Path 3107" d="M898.8,399.334l-1.656-2.424a.249.249,0,0,0-.341-.065l-13.722,9.264a.249.249,0,0,0-.07.341l1.694,2.6a.249.249,0,0,0,.352.07l13.679-9.437a.249.249,0,0,0,.065-.346Z" transform="translate(-868.113 -386.407)"/>
  </g>
  <path id="Path_3108" data-name="Path 3108" d="M951.055,400.638l-1.364-1.948a.541.541,0,0,0-.736-.135l-2.013,1.364a.541.541,0,0,0-.152.73l1.25,1.921a.541.541,0,0,0,.73.162l2.132-1.342a.541.541,0,0,0,.151-.752Z" transform="translate(-465.783 -221.122)" fill="#464a5f"/>
  <path id="Path_3109" data-name="Path 3109" d="M944.315,405.284l-1.364-1.943a.541.541,0,0,0-.73-.135l-2.018,1.358a.541.541,0,0,0-.151.73l1.25,1.921a.541.541,0,0,0,.73.162l2.132-1.337a.541.541,0,0,0,.152-.757Z" transform="translate(-462.69 -223.257)" fill="#464a5f"/>
  <path id="Path_3110" data-name="Path 3110" d="M937.315,410.162l-1.363-1.943a.541.541,0,0,0-.736-.135l-2.013,1.364a.541.541,0,0,0-.151.731l1.25,1.921a.541.541,0,0,0,.73.157l2.132-1.337a.541.541,0,0,0,.152-.758Z" transform="translate(-459.478 -225.495)" fill="#464a5f"/>
  <path id="Path_3111" data-name="Path 3111" d="M930.17,415.09l-1.364-1.948a.541.541,0,0,0-.73-.135l-2.018,1.364a.54.54,0,0,0-.141.757l1.25,1.921a.542.542,0,0,0,.731.162l2.126-1.342a.541.541,0,0,0,.146-.779Z" transform="translate(-456.197 -227.755)" fill="#464a5f"/>
  <path id="Path_3112" data-name="Path 3112" d="M923.058,420.024l-1.364-1.943a.541.541,0,0,0-.731-.135l-2.018,1.358a.541.541,0,0,0-.146.731l1.245,1.921a.541.541,0,0,0,.731.162l2.132-1.342a.541.541,0,0,0,.152-.752Z" transform="translate(-452.937 -230.022)" fill="#464a5f"/>
  <path id="Path_3113" data-name="Path 3113" d="M916.008,425.1l-1.694-2.413a.244.244,0,0,0-.341-.065l-2.478,1.672a.244.244,0,0,0-.07.341l1.553,2.386a.249.249,0,0,0,.341.076l2.619-1.623a.249.249,0,0,0,.07-.373Z" transform="translate(-449.572 -232.188)" fill="#464a5f"/>
  <path id="Path_3114" data-name="Path 3114" d="M908.888,430.031l-1.694-2.413a.249.249,0,0,0-.346-.065l-2.473,1.672a.244.244,0,0,0-.07.341l1.553,2.392a.244.244,0,0,0,.341.07l2.619-1.623a.254.254,0,0,0,.071-.373Z" transform="translate(-446.305 -234.45)" fill="#464a5f"/>
  <path id="Path_3115" data-name="Path 3115" d="M902.579,434.4l-1.694-2.419a.249.249,0,0,0-.341-.059l-2.478,1.645a.254.254,0,0,0-.071.346l1.553,2.386a.255.255,0,0,0,.341.076l2.619-1.623a.249.249,0,0,0,.07-.352Z" transform="translate(-443.41 -236.456)" fill="#464a5f"/>
  <path id="Path_3116" data-name="Path 3116" d="M895.517,439.31l-1.694-2.4a.249.249,0,0,0-.341-.06L891,438.52a.249.249,0,0,0-.07.346l1.553,2.386a.254.254,0,0,0,.341.076l2.619-1.623a.249.249,0,0,0,.07-.4Z" transform="translate(-440.169 -238.718)" fill="#464a5f"/>
  <path id="Path_3117" data-name="Path 3117" d="M888.678,444.022l-1.694-2.413a.244.244,0,0,0-.341-.065l-2.478,1.672a.243.243,0,0,0-.07.341l1.553,2.386a.244.244,0,0,0,.341.076l2.619-1.623a.249.249,0,0,0,.07-.373Z" transform="translate(-437.03 -240.87)" fill="#464a5f"/>
  <path id="Path_3118" data-name="Path 3118" d="M881.839,448.762l-1.694-2.419a.249.249,0,0,0-.341-.06l-2.478,1.667a.254.254,0,0,0-.07.346l1.553,2.386a.254.254,0,0,0,.341.076l2.619-1.623a.249.249,0,0,0,.07-.373Z" transform="translate(-433.893 -243.045)" fill="#464a5f"/>
  <path id="Path_3119" data-name="Path 3119" d="M875,453.492l-1.694-2.413a.244.244,0,0,0-.341-.065l-2.478,1.672a.243.243,0,0,0-.07.341l1.553,2.386a.243.243,0,0,0,.341.076l2.619-1.623a.249.249,0,0,0,.071-.373Z" transform="translate(-430.753 -245.216)" fill="#464a5f"/>
  <path id="Path_3120" data-name="Path 3120" d="M946.548,394.16l-1.364-1.948a.541.541,0,0,0-.731-.135l-2.018,1.364a.541.541,0,0,0-.146.73l1.245,1.921a.541.541,0,0,0,.73.162l2.132-1.342a.542.542,0,0,0,.152-.752Z" transform="translate(-463.717 -218.15)" fill="#464a5f"/>
  <path id="Path_3121" data-name="Path 3121" d="M936.7,379.9l-1.364-1.943a.541.541,0,0,0-.73-.135l-2.018,1.358a.541.541,0,0,0-.146.731l1.25,1.921a.541.541,0,0,0,.725.162l2.132-1.336a.541.541,0,0,0,.151-.758Z" transform="translate(-459.197 -211.611)" fill="#464a5f"/>
  <path id="Path_3122" data-name="Path 3122" d="M939.838,398.765l-1.364-1.953a.541.541,0,0,0-.73-.135l-2.018,1.358a.541.541,0,0,0-.146.73l1.25,1.921a.541.541,0,0,0,.725.162l2.132-1.337A.541.541,0,0,0,939.838,398.765Z" transform="translate(-460.637 -220.261)" fill="#464a5f"/>
  <path id="Path_3123" data-name="Path 3123" d="M932.814,403.644l-1.342-1.943a.541.541,0,0,0-.73-.135l-2.018,1.358a.541.541,0,0,0-.146.736l1.244,1.921a.541.541,0,0,0,.73.157l2.132-1.337a.541.541,0,0,0,.13-.758Z" transform="translate(-457.423 -222.505)" fill="#464a5f"/>
  <path id="Path_3124" data-name="Path 3124" d="M925.675,408.578l-1.364-1.948a.541.541,0,0,0-.736-.135l-2.013,1.364a.541.541,0,0,0-.151.731l1.25,1.921a.541.541,0,0,0,.73.162l2.132-1.342a.541.541,0,0,0,.152-.752Z" transform="translate(-454.136 -224.765)" fill="#464a5f"/>
  <path id="Path_3125" data-name="Path 3125" d="M930.148,384.765l-1.364-1.953a.541.541,0,0,0-.731-.135l-2.018,1.358a.541.541,0,0,0-.146.731l1.25,1.921a.541.541,0,0,0,.725.162L930,385.512A.541.541,0,0,0,930.148,384.765Z" transform="translate(-456.191 -213.836)" fill="#464a5f"/>
  <path id="Path_3126" data-name="Path 3126" d="M923.1,389.65l-1.364-1.948a.541.541,0,0,0-.731-.135l-2.018,1.364a.541.541,0,0,0-.152.73l1.25,1.921a.541.541,0,0,0,.73.162l2.132-1.342a.541.541,0,0,0,.151-.752Z" transform="translate(-452.957 -216.08)" fill="#464a5f"/>
  <path id="Path_3127" data-name="Path 3127" d="M915.985,394.582l-1.364-1.943a.541.541,0,0,0-.736-.135l-2.013,1.358a.541.541,0,0,0-.151.731l1.25,1.926a.541.541,0,0,0,.73.162l2.127-1.342a.541.541,0,0,0,.157-.758Z" transform="translate(-449.69 -218.345)" fill="#464a5f"/>
  <path id="Path_3128" data-name="Path 3128" d="M918.548,413.514l-1.364-1.943a.541.541,0,0,0-.731-.135l-2.018,1.347a.541.541,0,0,0-.146.73l1.25,1.921a.541.541,0,0,0,.725.162l2.132-1.342A.541.541,0,0,0,918.548,413.514Z" transform="translate(-450.868 -227.034)" fill="#464a5f"/>
  <path id="Path_3129" data-name="Path 3129" d="M911.425,418.444l-1.364-1.943a.541.541,0,0,0-.73-.135l-2.018,1.385a.541.541,0,0,0-.152.73l1.25,1.921a.541.541,0,0,0,.731.162l2.132-1.336a.541.541,0,0,0,.151-.785Z" transform="translate(-447.597 -229.297)" fill="#464a5f"/>
  <path id="Path_3130" data-name="Path 3130" d="M904.4,423.522l-1.694-2.413a.243.243,0,0,0-.341-.065l-2.457,1.672a.244.244,0,0,0-.07.341l1.553,2.386a.243.243,0,0,0,.341.076l2.619-1.623a.255.255,0,0,0,.049-.373Z" transform="translate(-444.254 -231.463)" fill="#464a5f"/>
  <path id="Path_3131" data-name="Path 3131" d="M898.076,427.862l-1.694-2.419a.254.254,0,0,0-.346-.059l-2.478,1.667a.26.26,0,0,0-.07.346l1.558,2.386a.249.249,0,0,0,.341.076L898,428.235a.243.243,0,0,0,.076-.373Z" transform="translate(-441.342 -233.454)" fill="#464a5f"/>
  <path id="Path_3132" data-name="Path 3132" d="M891.009,432.782l-1.694-2.419a.249.249,0,0,0-.341-.06L886.5,431.97a.254.254,0,0,0-.07.346l1.553,2.386a.255.255,0,0,0,.341.076l2.619-1.623a.238.238,0,0,0,.07-.373Z" transform="translate(-438.101 -235.712)" fill="#464a5f"/>
  <path id="Path_3133" data-name="Path 3133" d="M884.193,437.512l-1.677-2.413a.243.243,0,0,0-.341-.065l-2.478,1.672a.249.249,0,0,0-.07.341l1.553,2.386a.249.249,0,0,0,.341.076l2.619-1.623a.244.244,0,0,0,.054-.373Z" transform="translate(-434.981 -237.883)" fill="#464a5f"/>
  <path id="Path_3134" data-name="Path 3134" d="M928.108,396.878l-1.358-1.948a.541.541,0,0,0-.736-.135L924,396.158a.541.541,0,0,0-.146.73l1.25,1.921a.541.541,0,0,0,.731.157l2.127-1.336a.542.542,0,0,0,.151-.752Z" transform="translate(-455.255 -219.396)" fill="#464a5f"/>
  <path id="Path_3135" data-name="Path 3135" d="M920.988,401.811l-1.364-1.943a.541.541,0,0,0-.731-.141l-2.018,1.364a.541.541,0,0,0-.146.73l1.25,1.921a.541.541,0,0,0,.725.162l2.132-1.342a.542.542,0,0,0,.152-.752Z" transform="translate(-451.987 -221.662)" fill="#464a5f"/>
  <path id="Path_3136" data-name="Path 3136" d="M913.888,406.747l-1.38-1.937a.541.541,0,0,0-.736-.135l-1.97,1.353a.541.541,0,0,0-.151.731l1.25,1.921a.541.541,0,0,0,.731.162l2.132-1.336a.541.541,0,0,0,.124-.758Z" transform="translate(-448.74 -223.93)" fill="#464a5f"/>
  <path id="Path_3137" data-name="Path 3137" d="M906.738,411.674l-1.364-1.943a.541.541,0,0,0-.73-.135l-2.018,1.358a.541.541,0,0,0-.146.731l1.25,1.921a.541.541,0,0,0,.725.162l2.132-1.336a.541.541,0,0,0,.152-.758Z" transform="translate(-445.448 -226.19)" fill="#464a5f"/>
  <path id="Path_3138" data-name="Path 3138" d="M899.695,416.751,898,414.338a.249.249,0,0,0-.346-.065l-2.478,1.672a.249.249,0,0,0-.07.341l1.553,2.392a.249.249,0,0,0,.346.07l2.614-1.623a.249.249,0,0,0,.076-.373Z" transform="translate(-442.085 -228.356)" fill="#464a5f"/>
  <path id="Path_3139" data-name="Path 3139" d="M893.4,421.122l-1.694-2.413a.244.244,0,0,0-.341-.065l-2.462,1.667a.254.254,0,0,0-.07.346l1.553,2.386a.254.254,0,0,0,.341.076l2.619-1.623a.249.249,0,0,0,.054-.373Z" transform="translate(-439.207 -230.361)" fill="#464a5f"/>
  <path id="Path_3140" data-name="Path 3140" d="M886.329,426.012l-1.694-2.419a.254.254,0,0,0-.346-.059l-2.473,1.667a.254.254,0,0,0-.07.346l1.553,2.386a.249.249,0,0,0,.341.076l2.619-1.623a.249.249,0,0,0,.07-.373Z" transform="translate(-435.953 -232.605)" fill="#464a5f"/>
  <path id="Path_3141" data-name="Path 3141" d="M879.488,430.741l-1.693-2.413a.249.249,0,0,0-.346-.065l-2.473,1.672a.243.243,0,0,0-.07.341l1.553,2.392a.244.244,0,0,0,.341.07l2.619-1.623a.254.254,0,0,0,.07-.373Z" transform="translate(-432.813 -234.775)" fill="#464a5f"/>
  <path id="Path_3142" data-name="Path 3142" d="M877.334,442.252l-1.693-2.419a.254.254,0,0,0-.346-.06l-2.478,1.667a.254.254,0,0,0-.07.346l1.553,2.386a.254.254,0,0,0,.341.076l2.619-1.623a.243.243,0,0,0,.076-.373Z" transform="translate(-431.823 -240.058)" fill="#464a5f"/>
  <path id="Path_3143" data-name="Path 3143" d="M870.495,446.981l-1.694-2.413a.249.249,0,0,0-.346-.065l-2.478,1.672a.249.249,0,0,0-.07.341l1.553,2.386a.249.249,0,0,0,.346.076l2.614-1.623a.244.244,0,0,0,.076-.373Z" transform="translate(-428.685 -242.228)" fill="#464a5f"/>
  <path id="Path_3144" data-name="Path 3144" d="M881.286,418.74l-1.6-2.278a.335.335,0,0,0-.46-.081l-2.354,1.575a.335.335,0,0,0-.092.46l1.461,2.251a.335.335,0,0,0,.46.1l2.467-1.553a.33.33,0,0,0,.114-.471Z" transform="translate(-433.67 -229.316)" fill="#464a5f"/>
  <path id="Path_3145" data-name="Path 3145" d="M874.46,423.47l-1.6-2.273a.33.33,0,0,0-.46-.087l-2.338,1.58a.33.33,0,0,0-.092.455l1.461,2.251a.341.341,0,0,0,.46.1l2.473-1.553a.341.341,0,0,0,.092-.476Z" transform="translate(-430.545 -231.487)" fill="#464a5f"/>
  <path id="Path_3146" data-name="Path 3146" d="M867.6,428.211l-1.623-2.278a.33.33,0,0,0-.455-.081l-2.343,1.575a.335.335,0,0,0-.092.46l1.461,2.251a.335.335,0,0,0,.46.1l2.473-1.553a.33.33,0,0,0,.119-.471Z" transform="translate(-427.383 -233.663)" fill="#464a5f"/>
  <path id="Path_3147" data-name="Path 3147" d="M860.808,432.992l-1.694-2.419a.254.254,0,0,0-.346-.059l-2.478,1.667a.254.254,0,0,0-.065.346l1.553,2.386a.249.249,0,0,0,.341.076l2.619-1.623a.249.249,0,0,0,.07-.373Z" transform="translate(-424.241 -235.808)" fill="#464a5f"/>
  <path id="Path_3148" data-name="Path 3148" d="M938.749,387.042l-1.445-2.089a.541.541,0,0,0-.736-.13l-5.757,4.01a.541.541,0,0,0-.141.725l1.385,2.132a.541.541,0,0,0,.752.146l5.806-4.064A.541.541,0,0,0,938.749,387.042Z" transform="translate(-458.385 -214.819)" fill="#464a5f"/>
  <path id="Path_3149" data-name="Path 3149" d="M869.4,435.227l-1.8-2.538a.243.243,0,0,0-.346-.06l-6.18,4.329a.249.249,0,0,0-.065.341l1.694,2.608a.249.249,0,0,0,.352.07l6.282-4.4A.254.254,0,0,0,869.4,435.227Z" transform="translate(-426.439 -236.777)" fill="#464a5f"/>
  <path id="Path_3150" data-name="Path 3150" d="M899.482,399.464l-1.623-2.408a.255.255,0,0,0-.346-.07l-13.717,9.253a.244.244,0,0,0-.07.341l1.688,2.6a.248.248,0,0,0,.352.07l13.679-9.437A.249.249,0,0,0,899.482,399.464Z" transform="translate(-436.861 -220.424)" fill="#464a5f"/>
  <path id="Path_3151" data-name="Path 3151" d="M887.681,376.831l-7.294-10.6a1.353,1.353,0,0,0-1.872-.357l-20.091,13.49a1.359,1.359,0,0,0-.363,1.888l7.435,10.9a1.353,1.353,0,0,0,1.888.357l19.95-13.8a1.347,1.347,0,0,0,.346-1.878Z" transform="translate(-424.995 -206.059)" opacity="0.1"/>
  <path id="Path_3152" data-name="Path 3152" d="M888.319,376.953l-7.294-10.6a1.358,1.358,0,0,0-1.872-.357l-20.064,13.5a1.353,1.353,0,0,0-.368,1.888l7.413,10.892a1.353,1.353,0,0,0,1.888.357l19.961-13.8a1.348,1.348,0,0,0,.335-1.878Z" transform="translate(-425.297 -206.116)" fill="#939498"/>
  <path id="Path_3153" data-name="Path 3153" d="M941.991,413.722l-15.475-5.162L876.88,443.039l15.362,5.005a2.813,2.813,0,0,0,2.484-.368l47.406-32.964a.541.541,0,0,0-.141-.99Z" transform="translate(-433.739 -225.754)" fill="red"/>
</svg>
