<svg xmlns="http://www.w3.org/2000/svg" xmlns:xlink="http://www.w3.org/1999/xlink" width="349.599" height="154.846" viewBox="0 0 349.599 154.846">
  <defs>
    <filter id="Rectangle_25" x="0" y="0" width="349.599" height="154.846" filterUnits="userSpaceOnUse">
      <feOffset dy="10" input="SourceAlpha"/>
      <feGaussianBlur stdDeviation="12.5" result="blur"/>
      <feFlood flood-color="#ff4b4a" flood-opacity="0.8"/>
      <feComposite operator="in" in2="blur"/>
      <feComposite in="SourceGraphic"/>
    </filter>
  </defs>
  <g id="Group_1340" data-name="Group 1340" transform="translate(37.5 27.5)">
    <g transform="matrix(1, 0, 0, 1, -37.5, -27.5)" filter="url(#Rectangle_25)">
      <rect id="Rectangle_25-2" data-name="Rectangle 25" width="274.599" height="79.846" rx="15" transform="translate(37.5 27.5)" fill="#fb0201"/>
    </g>
    <text id="Proceed" transform="translate(170.707 48.927)" fill="#fff" font-size="29" font-family="Poppins-SemiBold, Poppins" font-weight="600" letter-spacing="0.05em"><tspan x="-64.728" y="0">Proceed</tspan></text>
    <g id="ic_fingerprint_black_24px" transform="translate(38.764 13.155)">
      <path id="path" d="M35.032,7.342a1,1,0,0,1-.5-.13A24.745,24.745,0,0,0,22.489,4.163,24.742,24.742,0,0,0,10.443,7.212a1.084,1.084,0,0,1-1.038-1.9A27.517,27.517,0,0,1,35.53,5.287a1.095,1.095,0,0,1-.5,2.054ZM4.085,18.7a1.127,1.127,0,0,1-.627-.195,1.078,1.078,0,0,1-.26-1.514,22.359,22.359,0,0,1,8.11-7.072,24.964,24.964,0,0,1,22.3-.022,22.444,22.444,0,0,1,8.11,7.029,1.086,1.086,0,0,1-1.773,1.254,20.3,20.3,0,0,0-7.331-6.358,22.788,22.788,0,0,0-20.329.022,20.516,20.516,0,0,0-7.353,6.4.943.943,0,0,1-.843.454ZM17.6,44.8a1.014,1.014,0,0,1-.757-.324A21.862,21.862,0,0,1,12.5,38.765a19.2,19.2,0,0,1-2.271-9.386c0-6.423,5.493-11.657,12.24-11.657s12.24,5.234,12.24,11.657a1.081,1.081,0,1,1-2.163,0c0-5.234-4.52-9.494-10.078-9.494s-10.078,4.26-10.078,9.494A16.942,16.942,0,0,0,14.4,37.705a20.47,20.47,0,0,0,4,5.234,1.11,1.11,0,0,1,0,1.535,1.186,1.186,0,0,1-.8.324Zm15.506-4a11.646,11.646,0,0,1-6.7-1.925,11.515,11.515,0,0,1-5.147-9.494,1.081,1.081,0,1,1,2.163,0,9.3,9.3,0,0,0,4.2,7.7,9.483,9.483,0,0,0,5.493,1.535,14.292,14.292,0,0,0,2.249-.216,1.086,1.086,0,0,1,.368,2.141A14.768,14.768,0,0,1,33.107,40.8Zm-4.347,4.455a1.265,1.265,0,0,1-.281-.043,16.874,16.874,0,0,1-8.045-4.542,15.78,15.78,0,0,1-4.693-11.289A6.521,6.521,0,0,1,22.4,23.021a6.521,6.521,0,0,1,6.661,6.358,4.509,4.509,0,0,0,9,0c0-8.153-7.029-14.771-15.679-14.771A15.788,15.788,0,0,0,8.086,23.324,13.912,13.912,0,0,0,6.81,29.379a21.491,21.491,0,0,0,1.449,7.807,1.055,1.055,0,0,1-.627,1.384,1.073,1.073,0,0,1-1.384-.627,24.093,24.093,0,0,1-1.579-8.564,16.247,16.247,0,0,1,1.471-7.007,17.948,17.948,0,0,1,16.241-9.948c9.84,0,17.842,7.591,17.842,16.933a6.668,6.668,0,0,1-13.322,0,4.355,4.355,0,0,0-4.5-4.2,4.355,4.355,0,0,0-4.5,4.2,13.619,13.619,0,0,0,4.044,9.753,14.706,14.706,0,0,0,7.072,4,1.073,1.073,0,0,1,.757,1.319,1.055,1.055,0,0,1-1.016.822Z" transform="translate(3.484 2.325)" fill="#fff"/>
      <path id="path-2" data-name="path" d="M0,0H51.9V51.9H0Z" fill="none"/>
    </g>
  </g>
</svg>
