<svg xmlns="http://www.w3.org/2000/svg" width="60" height="60" viewBox="0 0 60 60">
  <g id="Group_1786" data-name="Group 1786" transform="translate(0.423 0.456)">
    <g id="Group_1783" data-name="Group 1783" transform="translate(0 0)">
      <g id="Ellipse_469" data-name="Ellipse 469" transform="translate(-0.423 -0.456)" fill="#fff" stroke="#fb0201" stroke-width="1">
        <circle cx="30" cy="30" r="30" stroke="none"/>
        <circle cx="30" cy="30" r="29.5" fill="none"/>
      </g>
      <g id="quill_outline" transform="translate(17.646 16.966)">
        <path id="Path_1653" data-name="Path 1653" d="M406.35,105.712c0-.168.089-.336,0-.5a.938.938,0,0,0-.268-.5,1.1,1.1,0,0,0-.715-.336,1.2,1.2,0,0,0-.536-.084,11.454,11.454,0,0,0-1.7,0,13.572,13.572,0,0,0-3.219.588,31.84,31.84,0,0,0-3.04,1.092,17.494,17.494,0,0,0-2.772,1.512v.084a35.546,35.546,0,0,1,5.991-2.015,12.753,12.753,0,0,1,3.13-.42h1.609a1.054,1.054,0,0,1,.715.252c.179.168.089.42-.089.588a2.922,2.922,0,0,1-.447.672c-.089.084-.089.252-.179.42a.622.622,0,0,0,.179.42,3.6,3.6,0,0,0,1.609.252,9.749,9.749,0,0,0,3.13-.5,19.237,19.237,0,0,0,5.544-2.939l-.09-.084a20.676,20.676,0,0,1-5.633,2.435,11.791,11.791,0,0,1-2.951.336,2.359,2.359,0,0,1-.715-.084h-.089l.358-.42A1.593,1.593,0,0,1,406.35,105.712Z" transform="translate(-391.764 -82.751)" fill="#fb0201"/>
        <path id="Path_1654" data-name="Path 1654" d="M415.127,80.289a35.445,35.445,0,0,0-8.325,1.772,9.787,9.787,0,0,0-2.568,1.241,6.6,6.6,0,0,0-1.063.62c-7.794,4.608-9.477,11.254-9.477,16.305-1.683,2.57-2.657,4.519-2.3,4.7,1.063-1.241,2.037-2.481,3.011-3.633,5.491-.354,12.754-3.9,17.182-9.039a7.746,7.746,0,0,0,.709-.886s.443-.532,1.063-1.418a16.04,16.04,0,0,0,2.834-8.862L416.1,80.2Zm-3.1,10.014-5.048,1.241,3.543.532c-4.251,4.7-10.539,7.71-15.322,8.241l.089-.089c3.986-4.874,7.528-9.128,13.374-13.736-5.314,1.95-10.717,7.8-13.994,12.406a17.108,17.108,0,0,1,8.325-13.824l-.443,2.038s1.506-1.861,3.011-3.545a29.655,29.655,0,0,1,9.742-2.481A16.816,16.816,0,0,1,412.027,90.3Z" transform="translate(-391.318 -80.2)" fill="#fb0201"/>
      </g>
    </g>
  </g>
</svg>
