<svg xmlns="http://www.w3.org/2000/svg" width="23.529" height="26.884" viewBox="0 0 23.529 26.884">
  <path id="share-alt" d="M18.483,16.8a5.028,5.028,0,0,0-3.77,1.7L9.7,15.364a5.049,5.049,0,0,0,0-3.844l5.015-3.135a5,5,0,1,0-.893-1.423L8.806,10.1a5.038,5.038,0,1,0,.005,6.689l5.015,3.135a4.977,4.977,0,0,0-.378,1.922A5.041,5.041,0,1,0,18.483,16.8Zm0-15.122a3.36,3.36,0,1,1-3.361,3.36A3.364,3.364,0,0,1,18.483,1.68ZM5.041,16.8a3.36,3.36,0,1,1,0-6.721c1.854,0,3.361,3.36,3.361,3.36S6.894,16.8,5.041,16.8Zm13.442,8.4a3.36,3.36,0,1,1,3.361-3.36A3.364,3.364,0,0,1,18.483,25.2Z" fill="#5f6772"/>
</svg>
