<svg xmlns="http://www.w3.org/2000/svg" width="301.379" height="31.326" viewBox="0 0 301.379 31.326">
  <path id="Path_2800" data-name="Path 2800" d="M-141.119-19.4l-.607.162-.436.12q-.154.043-.837.248a17.787,17.787,0,0,1-3.9.872,2.834,2.834,0,0,1-1.5-.35,1.082,1.082,0,0,1-.573-.966,4.192,4.192,0,0,1,.83-2.256,3.948,3.948,0,0,1,1.771-1.606,9.372,9.372,0,0,1,2.138-.5,25.847,25.847,0,0,1,3.216-.162,26.733,26.733,0,0,1,5.739.444q1.838.444,1.838,1.385a23.878,23.878,0,0,1-.624,3.556q-.624,2.838-1.275,5.059a72.857,72.857,0,0,1-5.887,15.208,12.189,12.189,0,0,1-1.573,2.29,6.243,6.243,0,0,1-1.735,1.41,3.985,3.985,0,0,1-1.872.47q-1.385,0-2.71-2.017a7.546,7.546,0,0,1-1.325-4.2,8.979,8.979,0,0,1,.555-3.119,7.222,7.222,0,0,1,1.512-2.521,7.338,7.338,0,0,1,1.154-.889,2.026,2.026,0,0,1,.914-.376.488.488,0,0,1,.436.308,1.946,1.946,0,0,1,.162.889,6.055,6.055,0,0,1-.137.974,31.457,31.457,0,0,0-.6,5.571,7.931,7.931,0,0,0,.273,2.2A11.65,11.65,0,0,0-145.17.667q.974-3.11,1.606-5.742,1.025-4.324,1.5-7.152T-141.119-19.4Zm20.508,2.2q2.546,0,2.546.6,0,.684-1.145.735a5.737,5.737,0,0,0-2.581.786,7.4,7.4,0,0,0-2.128,1.914,9.525,9.525,0,0,0-1.453,2.734,9.842,9.842,0,0,0-.521,3.213,4.8,4.8,0,0,0,.872,3,2.733,2.733,0,0,0,2.273,1.136,2.793,2.793,0,0,0,2.273-1.333,5.13,5.13,0,0,0,.974-3.11,6.256,6.256,0,0,0-.607-2.726,5.735,5.735,0,0,0-1.769-2.145q-.5-.393-.5-.564,0-.239.7-.735a8.219,8.219,0,0,1,1.76-.889,4.925,4.925,0,0,1,1.641-.359,2.867,2.867,0,0,1,1.461.4,3.931,3.931,0,0,1,1.222,1.145,5.644,5.644,0,0,1,.812,1.709,7.313,7.313,0,0,1,.282,2.059,9.86,9.86,0,0,1-.684,3.58,7.99,7.99,0,0,1-1.794,2.863,11.569,11.569,0,0,1-3.461,2.264,9.674,9.674,0,0,1-3.854.88,10.585,10.585,0,0,1-3.529-.615,7.386,7.386,0,0,1-2.777-1.624,5.247,5.247,0,0,1-1.367-3.879,8.922,8.922,0,0,1,.974-3.965,12.936,12.936,0,0,1,2.64-3.6,13.3,13.3,0,0,1,3.674-2.546A9.563,9.563,0,0,1-120.612-17.192ZM-110.532.171a2.126,2.126,0,0,1-1.4-.7,4.066,4.066,0,0,1-.9-1.478,6.658,6.658,0,0,1-.264-2.059,22.666,22.666,0,0,1,1.051-6.366,14.672,14.672,0,0,1,2.384-5.135,1.772,1.772,0,0,1,1.469-.667,1.846,1.846,0,0,1,1.6.906,4.2,4.2,0,0,1,.607,2.375,24.679,24.679,0,0,1-.625,5.084,47.237,47.237,0,0,1-1.755,6.058A3.362,3.362,0,0,1-109.457-.1,1.943,1.943,0,0,1-110.5.171ZM-108.478-17q-1.606-.051-1.606-1.931a6.27,6.27,0,0,1,.47-2.179,5.2,5.2,0,0,1,1.068-1.837,1.938,1.938,0,0,1,.624-.461,2.061,2.061,0,0,1,.812-.137,1.671,1.671,0,0,1,1.256.419,1.975,1.975,0,0,1,.4,1.393,6.33,6.33,0,0,1-.419,2.3,4.8,4.8,0,0,1-1.119,1.76,2.078,2.078,0,0,1-1.436.675Zm11.512,7.994,1.03-1.2q1.562-1.731,2.476-2.578a7.846,7.846,0,0,1,1.639-1.224,3.173,3.173,0,0,1,1.477-.377,2.019,2.019,0,0,1,1.708.649,3.839,3.839,0,0,1,.5,2.256q0,.667-.137,1.965a27.6,27.6,0,0,0-.205,3.247A18.054,18.054,0,0,0-88.312-3.5a7.886,7.886,0,0,0,.359,1.3,3.876,3.876,0,0,1,.171.837.5.5,0,0,1-.205.427,4.774,4.774,0,0,1-1.4.8,4.182,4.182,0,0,1-1.47.342,2.686,2.686,0,0,1-1.769-.667,4.282,4.282,0,0,1-1.23-1.846,7.652,7.652,0,0,1-.436-2.666,15.887,15.887,0,0,1,.205-2.341l-.068-.068q-.735.82-1.188,1.3t-.846.906Q-98.1-2.991-99.437-1.23q-.513.684-.94,1.2A1.979,1.979,0,0,1-101.813.6a2.2,2.2,0,0,1-1.777-.82,3.2,3.2,0,0,1-.684-2.119,12.645,12.645,0,0,1,.188-1.965q.188-1.162.5-2.487t.752-2.726q.436-1.4.948-2.666a9.52,9.52,0,0,1,1.914-3.281,2.537,2.537,0,0,1,1.863-.769q1.778,0,1.778,2.307a24.025,24.025,0,0,1-.707,4.849Zm29.989-2.122-.171.735q-.085.376-.154.641t-.111.462q-.043.2-.094.4a32,32,0,0,1-1.984,6.584,3.3,3.3,0,0,1-1.026,1.043A7,7,0,0,1-73.9.137a1.912,1.912,0,0,1-1.445-.624,2.167,2.167,0,0,1-.59-1.548,24.713,24.713,0,0,1,1.47-6.192q.444-1.437.812-2.5t.889-2.395q.521-1.334,1.179-2.836t.931-2.116A29.738,29.738,0,0,1-75-17.739q-2.1,0-2.1-1.47A4.028,4.028,0,0,1-75.734-21.6a6.206,6.206,0,0,1,1.709-1.307,4.454,4.454,0,0,1,1.9-.367q.718,0,1.965.043t3.469.2l.479.034.461.051a18.487,18.487,0,0,1,2.478.238,2.217,2.217,0,0,1,1.025.528,1.332,1.332,0,0,1,.342.9,3.167,3.167,0,0,1-.214,1.115,2.085,2.085,0,0,1-.521.843,4.764,4.764,0,0,1-2.41.8,2.008,2.008,0,0,0-.359.034l-.342.068a1.259,1.259,0,0,1,.41.907,9.721,9.721,0,0,1-.476,2.071q-.153.394-.731,2.584l-.255,1.027Zm17.749-9.7v-.273q0-.632-.171-.632-.222,0-.692.684a9.666,9.666,0,0,0-.846,1.521,39.462,39.462,0,0,0-1.658,4.52,38.041,38.041,0,0,0-1.111,4.76q-.137.923-.291,2l.085.068q1.709-1.76,2.546-2.5a26.542,26.542,0,0,1,2.17-1.675,5.292,5.292,0,0,1,2.769-1.162,1.285,1.285,0,0,1,1.085.5,2.248,2.248,0,0,1,.385,1.393,7.6,7.6,0,0,1-.205,1.47,19.971,19.971,0,0,0-.359,3.4,9.219,9.219,0,0,0,.1,1.333q.085.547.564,2.2a11.95,11.95,0,0,1,.393,1.4q0,.239-.564.581a6.174,6.174,0,0,1-3.333,1.2,2.329,2.329,0,0,1-2.025-1.215,5.787,5.787,0,0,1-.778-3.165A13.738,13.738,0,0,1-51-6.279l-.085-.068q-2.426,2.5-3.246,3.375Q-57.379-.034-59.02-.034q-.752,0-1.239-1a5.976,5.976,0,0,1-.487-2.606,25.1,25.1,0,0,1,2.136-8.818q.854-2.085,1.812-3.99t1.829-3.29a11.655,11.655,0,0,1,1.324-1.7,8.956,8.956,0,0,1,1.4-1.213,5.635,5.635,0,0,1,1.444-.726,4.724,4.724,0,0,1,1.47-.239,4.086,4.086,0,0,1,2.982,1.128A3.865,3.865,0,0,1-45.194-19.6a5.811,5.811,0,0,1-.7,2.615,10.163,10.163,0,0,1-1.965,2.632,9.676,9.676,0,0,1-1.82,1.393,3.475,3.475,0,0,1-1.581.607.455.455,0,0,1-.308-.12.39.39,0,0,1-.137-.308,3.447,3.447,0,0,1,.444-1.111,17.061,17.061,0,0,0,1.008-2.3,19.809,19.809,0,0,0,.76-2.581A10.014,10.014,0,0,0-49.227-20.833ZM-37.333-5.315a5.114,5.114,0,0,0,1.2-1.06,8.25,8.25,0,0,0,1.4-2.546,10.607,10.607,0,0,0,.615-2.1,11.6,11.6,0,0,0,.222-2.17q0-.94-.393-.94-.547,0-1.675,2.41a20.911,20.911,0,0,0-1.085,2.9,9.149,9.149,0,0,0-.419,2.487A5.515,5.515,0,0,0-37.333-5.315Zm.034.547a1.186,1.186,0,0,0,1.333,1.025,6.273,6.273,0,0,0,3.333-1.5,3.937,3.937,0,0,1,1.606-.872,1.794,1.794,0,0,1,.957.273q.444.273.444.564a1.355,1.355,0,0,1-.5.8,17.851,17.851,0,0,1-2.085,1.769,18.06,18.06,0,0,1-2.273,1.436,12.7,12.7,0,0,1-2.187.906,6.779,6.779,0,0,1-1.948.333,4.748,4.748,0,0,1-3.418-1.222,4.288,4.288,0,0,1-1.282-3.256,10.908,10.908,0,0,1,.675-3.512,15.835,15.835,0,0,1,1.82-3.666A12.305,12.305,0,0,1-37.5-15.022a8.472,8.472,0,0,1,4.648-1.606,3.217,3.217,0,0,1,2.521,1.017,4.027,4.027,0,0,1,.914,2.794,6.637,6.637,0,0,1-.726,2.888,10.379,10.379,0,0,1-2.145,2.888,11.323,11.323,0,0,1-2.281,1.812,4.044,4.044,0,0,1-1.957.649A1.775,1.775,0,0,1-37.3-4.768Zm28.094-9.9L-9.769-13.3q-1.111,2.632-2.067,5.247-.461,1.265-1.4,4.41a35.926,35.926,0,0,0,3.812-.6,15.029,15.029,0,0,1,1.863-.308q.6,0,.6.479a3.311,3.311,0,0,1-.658,1.581A8.62,8.62,0,0,1-9.1-.735,3.267,3.267,0,0,1-10.775,0a21.05,21.05,0,0,1-3.469.205,32.019,32.019,0,0,1-3.4-.137q-.017,0-.564-.171a1.658,1.658,0,0,1-.974-1.709,19.682,19.682,0,0,1,.538-3.435q.538-2.5,1.564-6.2,2.324-8.271,3.5-10.22A2.876,2.876,0,0,1-12.63-22.7a4.664,4.664,0,0,1,1.563-.573,10.589,10.589,0,0,1,2.2-.205,3.225,3.225,0,0,1,1.632.3,1.129,1.129,0,0,1,.47,1.034,10.7,10.7,0,0,1-.615,2.623Q-7.992-17.6-9.205-14.664ZM-3.02.171a2.126,2.126,0,0,1-1.4-.7,4.066,4.066,0,0,1-.9-1.478A6.658,6.658,0,0,1-5.58-4.067a22.666,22.666,0,0,1,1.051-6.366,14.672,14.672,0,0,1,2.384-5.135,1.772,1.772,0,0,1,1.469-.667,1.846,1.846,0,0,1,1.6.906,4.2,4.2,0,0,1,.607,2.375A24.679,24.679,0,0,1,.9-7.871,47.237,47.237,0,0,1-.852-1.813,3.362,3.362,0,0,1-1.945-.1,1.943,1.943,0,0,1-2.986.171ZM-.966-17q-1.606-.051-1.606-1.931a6.27,6.27,0,0,1,.47-2.179,5.2,5.2,0,0,1,1.068-1.837,1.938,1.938,0,0,1,.624-.461A2.061,2.061,0,0,1,.4-23.55a1.671,1.671,0,0,1,1.256.419,1.975,1.975,0,0,1,.4,1.393,6.33,6.33,0,0,1-.419,2.3,4.8,4.8,0,0,1-1.119,1.76A2.078,2.078,0,0,1-.914-17ZM15.492-8.323v.068l-.068-.068a.889.889,0,0,1-.273.034,8.086,8.086,0,0,1-.82.034q-.872,0-.872-.325a.669.669,0,0,1,.222-.41A6.461,6.461,0,0,0,14.8-10.92a7.023,7.023,0,0,0,.521-2.17,2.4,2.4,0,0,1,.034-.427q.017-.068.026-.12a.537.537,0,0,0,.009-.085q0-.239-.325-.239-.667,0-2.051,1.436a13.037,13.037,0,0,0-1.641,2.188,12.7,12.7,0,0,0-1.2,2.529A7.189,7.189,0,0,0,9.75-5.537q0,.991.5.991a6.948,6.948,0,0,0,2.41-1.606Q13.527-6.9,15.492-8.323Zm-.872,3.64-.461.342A1.774,1.774,0,0,1,14-4.2q-.111.085-.282.222A40.085,40.085,0,0,1,9.075-.735a6.234,6.234,0,0,1-2.931.94A2.768,2.768,0,0,1,3.914-.8a4.065,4.065,0,0,1-.846-2.7A9.293,9.293,0,0,1,4.255-7.853,16.328,16.328,0,0,1,7.391-11.98,16.7,16.7,0,0,1,11.664-15a10.211,10.211,0,0,1,4.495-1.136,5.95,5.95,0,0,1,3.256.735,2.461,2.461,0,0,1,1.119,2.2,6.774,6.774,0,0,1-.974,3.042,1.413,1.413,0,0,1,1.025.436,1.846,1.846,0,0,1,.325,1.2,17.834,17.834,0,0,1-.547,3.717,31.521,31.521,0,0,1-1.333,4.4A13.041,13.041,0,0,1,16.3,4.033a12.208,12.208,0,0,1-3.35,2.435A7.873,7.873,0,0,1,9.51,7.485a2.92,2.92,0,0,1-2.136-.957,3,3,0,0,1-.94-2.153,3.875,3.875,0,0,1,.41-1.666A4.922,4.922,0,0,1,7.9,1.23a13.67,13.67,0,0,1,3.914-2.563,1.839,1.839,0,0,1,.735-.239.261.261,0,0,1,.188.085.261.261,0,0,1,.085.188,1.221,1.221,0,0,1-.205.461,9.818,9.818,0,0,0-.906,2.23,8.649,8.649,0,0,0-.393,2.35q0,1.162.359,1.162.188,0,.47-.419a5.5,5.5,0,0,0,.5-.948A28.962,28.962,0,0,0,14.514-3.3Q14.567-3.76,14.62-4.683ZM42.186-18.577a16.285,16.285,0,0,0-1.718,1.94,12.5,12.5,0,0,0-1.154,2.179,9.234,9.234,0,0,0-.667,2.17,10.831,10.831,0,0,0-.256,2.6,13.825,13.825,0,0,0,.427,3.734A4.72,4.72,0,0,0,40.084-3.7a2.9,2.9,0,0,0,2.017.76,3.414,3.414,0,0,0,1.957-.7,7.613,7.613,0,0,0,1.812-1.837,10.175,10.175,0,0,0,1.307-2.538,8.085,8.085,0,0,0,.5-2.7A9.2,9.2,0,0,0,46.066-15.6a3.682,3.682,0,0,1-.6-1.4,1.956,1.956,0,0,1,.769-1.4,10.252,10.252,0,0,1,2-1.487,3.949,3.949,0,0,1,1.777-.649,2.019,2.019,0,0,1,.795.179,1.636,1.636,0,0,1,.641.453,4.583,4.583,0,0,1,.906,2.076,13.843,13.843,0,0,1,.359,3.2,16.864,16.864,0,0,1-1.649,7.443,13.79,13.79,0,0,1-4.478,5.4A10.431,10.431,0,0,1,40.46.205,10.607,10.607,0,0,1,36.7-.5a8.248,8.248,0,0,1-3.025-1.88A6.956,6.956,0,0,1,31.71-7.52a11.948,11.948,0,0,1,.718-3.914A18.939,18.939,0,0,1,34.4-15.458a20.7,20.7,0,0,1,2.905-3.58A15.067,15.067,0,0,1,40.7-21.6a16.729,16.729,0,0,1,3.418-1.367,12.11,12.11,0,0,1,3.213-.513q1.948,0,1.948.6a1.455,1.455,0,0,1-.41.735,6.4,6.4,0,0,1-1.307.991,10.414,10.414,0,0,1-1.82.649,11.35,11.35,0,0,0-1.982.743A9.072,9.072,0,0,0,42.186-18.577Zm18.076,14.9-.034.94q-.24,3.4-.615,5.538a5.783,5.783,0,0,1-.854,2.615,2.647,2.647,0,0,1-2.032.7,3.167,3.167,0,0,1-2.134-.581,1.709,1.709,0,0,1-.342-.53,2.981,2.981,0,0,1-.085-.872v-.53a58.054,58.054,0,0,1,.923-9.656A54.721,54.721,0,0,1,57.4-14.894a25.257,25.257,0,0,1,3.145-6.323q1.709-2.333,3.4-2.333a1.341,1.341,0,0,1,1.154.521,2.489,2.489,0,0,1,.385,1.5,16.684,16.684,0,0,1-.308,3.085,13.177,13.177,0,0,1-.743,2.657q-.436,1.025-.88,1.025-.41,0-.41-1.436v-.53a18.208,18.208,0,0,0-.059-1.88.868.868,0,0,0-.263-.6,3.154,3.154,0,0,0-.271.872q-.414,2.051-.673,3.708t-.777,5.383q-.017.205-.052.461t-.052.461h.24q.206-.017.377-.026t.531-.009A9.049,9.049,0,0,1,63.3-8.442q2.039,0,2.039,1.059a3.11,3.11,0,0,1-.385,1.324,4.629,4.629,0,0,1-.915,1.29,3.213,3.213,0,0,1-1.206.743,7.989,7.989,0,0,1-1.942.316q-.274,0-.385.009T60.262-3.675Zm20.821-7.279a11.6,11.6,0,0,1-2.068-2.64,5.288,5.288,0,0,1-.6-2.469,6.434,6.434,0,0,1,1.2-3.726,8.52,8.52,0,0,1,3.23-2.769A9.493,9.493,0,0,1,87.2-23.584a6.517,6.517,0,0,1,4.05,1.094A3.678,3.678,0,0,1,92.67-19.4a4.425,4.425,0,0,1-.513,1.982A7.189,7.189,0,0,1,90.739-15.5a6.094,6.094,0,0,1-1.145.931,1.843,1.843,0,0,1-.889.316q-.444,0-.444-.684,0,.017.068-.53a11.462,11.462,0,0,0,.1-1.436,6.281,6.281,0,0,0-.265-1.786,5.257,5.257,0,0,0-.684-1.5q-.419-.607-.795-.607-.188,0-.427.291a3.306,3.306,0,0,0-.718,1.189,3.919,3.919,0,0,0-.256,1.326,4.5,4.5,0,0,0,.219,1.429,4.385,4.385,0,0,0,.767,1.341,13.338,13.338,0,0,0,1.455,1.5,20.118,20.118,0,0,1,2.216,2.271A7.108,7.108,0,0,1,91.08-9.51a5.963,5.963,0,0,1,.359,2.094A7.683,7.683,0,0,1,90.4-3.589a8.57,8.57,0,0,1-2.76,2.982A6.345,6.345,0,0,1,84.091.53a8.152,8.152,0,0,1-3.4-.752,11.071,11.071,0,0,1-3.11-2.153,4.074,4.074,0,0,1-1.5-2.632,1.948,1.948,0,0,1,.667-1.367,6.041,6.041,0,0,1,1.683-1.162,4.081,4.081,0,0,1,1.683-.479,1.112,1.112,0,0,1,.667.2,1.632,1.632,0,0,1,.487.667,7.908,7.908,0,0,1,.419,1.273,10.771,10.771,0,0,0,.6,1.7,4.841,4.841,0,0,0,.769,1.1,1.52,1.52,0,0,0,1.077.513A1.261,1.261,0,0,0,85.2-3.1a2.465,2.465,0,0,0,.393-1.479,5.069,5.069,0,0,0-1.041-2.941A5.362,5.362,0,0,0,83.88-8.4q-.367-.385-1.6-1.477Q81.9-10.187,81.083-10.955Zm16.133-5.571.068-.205a24.608,24.608,0,0,1,1.951-4.478,3.844,3.844,0,0,1,1.1-1.094,4.672,4.672,0,0,1,2.481-.837,1.561,1.561,0,0,1,1.044.308,1.108,1.108,0,0,1,.359.89,5.478,5.478,0,0,1-.516,1.6,23.559,23.559,0,0,0-1.307,3.776,4.5,4.5,0,0,1,.565.1,4.256,4.256,0,0,1,1.352.35.76.76,0,0,1,.325.709,3.2,3.2,0,0,1-.461,1.675,2.816,2.816,0,0,1-1.213,1.128,5.68,5.68,0,0,1-1.827.342q-.22.667-.49,1.83-.152,1.026-.338,2.838a8.2,8.2,0,0,0-.1,1.247q0,2.7,2.615,2.7h.154q.308,0,.308.1,0,.273-.581.923a7.621,7.621,0,0,1-1.282,1.145,6.9,6.9,0,0,1-1.642.82,4.98,4.98,0,0,1-1.609.308,3.792,3.792,0,0,1-2.919-1.213,4.546,4.546,0,0,1-1.122-3.213,11.125,11.125,0,0,1,.3-2.239q.3-1.384.931-3.708.1-.41.222-.863t.137-.538a1.458,1.458,0,0,1-.974-.291,1.174,1.174,0,0,1-.291-.889,3.063,3.063,0,0,1,.829-2.034A3.513,3.513,0,0,1,97.216-16.526Zm21.533,7.639-.325.1a7.63,7.63,0,0,1-1.777.342q-.667,0-.667-.342a2.224,2.224,0,0,1,.273-.632,5.029,5.029,0,0,0,.957-2.734,3.413,3.413,0,0,0-.256-1.342q-.256-.607-.564-.607-.273,0-.837.581a16.168,16.168,0,0,0-2.521,3.538,7.224,7.224,0,0,0-.931,3.23,2.887,2.887,0,0,0,.385,1.555,1.123,1.123,0,0,0,.966.615,4.3,4.3,0,0,0,1.854-1.06,30.684,30.684,0,0,0,3.051-2.8l.461-.376Zm-1.025,3.914V-4.9l-.068-.068a32.22,32.22,0,0,1-2.914,3.051A12.855,12.855,0,0,1,112.3-.137a4.424,4.424,0,0,1-2.059.6A4.224,4.224,0,0,1,107.076-.82a4.465,4.465,0,0,1-1.248-3.247,8.465,8.465,0,0,1,.615-2.871,15.255,15.255,0,0,1,1.692-3.247,16.632,16.632,0,0,1,4.512-4.409,9.8,9.8,0,0,1,5.4-1.863,6.592,6.592,0,0,1,3.6.9,2.633,2.633,0,0,1,1.41,2.264,4.078,4.078,0,0,1-.7,2.136,2.134,2.134,0,0,1,1.162.2q.239.2.239.914,0-.068-.085.7-.1,1.692-.1,3.162,0,.769.017,1.162t.068.906q.051.513.1.82a8.069,8.069,0,0,0,.444,1.589,7.979,7.979,0,0,1-1.965,1.478,4.237,4.237,0,0,1-1.914.47q-2.632,0-2.632-4.409A7.279,7.279,0,0,1,117.723-4.973Zm13.4-.239-.068.342a7.291,7.291,0,0,1-.068.837,10.165,10.165,0,0,1-.188,1.367,2.543,2.543,0,0,1-.359.88,4.829,4.829,0,0,1-.649.743A3.741,3.741,0,0,1,127.277.1a1.674,1.674,0,0,1-1.512-.752,4.61,4.61,0,0,1-.487-2.427,22.418,22.418,0,0,1,.3-3.29,31.033,31.033,0,0,1,.726-3.512l.137-.444a1.873,1.873,0,0,1,.1-.427,22.364,22.364,0,0,1,1.162-3.444,5.683,5.683,0,0,1,1.282-1.8,2.354,2.354,0,0,1,1.5-.53q1.213,0,1.47,1.47a3.7,3.7,0,0,0,.461-.479,4.922,4.922,0,0,1,.769-.795,1.055,1.055,0,0,1,.632-.2q1.47,0,1.47,2.905a13.688,13.688,0,0,1-.342,3.076,9.386,9.386,0,0,1-.863,2.427q-.521.94-1.034.94-.564,0-.564-2.136a9.492,9.492,0,0,0-.128-1.769,2.427,2.427,0,0,0-.4-1,12.628,12.628,0,0,0-.667,4.375Q131.173-5.725,131.122-5.212ZM141.769.735a2.62,2.62,0,0,0,1.837-.983,2.989,2.989,0,0,0,.829-2.025,1.527,1.527,0,0,0-.5-1.2,5.926,5.926,0,0,0-2.375-1.042,7.519,7.519,0,0,1-3.538-1.76,2.594,2.594,0,0,1-.769-1.88,6.665,6.665,0,0,1,1.427-3.931,11.33,11.33,0,0,1,3.649-3.221,9.016,9.016,0,0,1,4.478-1.256,4.278,4.278,0,0,1,2.051.513,4.137,4.137,0,0,1,1.521,1.359,3.247,3.247,0,0,1,.564,1.837,3.968,3.968,0,0,1-.615,2.017A5.814,5.814,0,0,1,148.784-9.1a3.01,3.01,0,0,1-1.769.692,1.612,1.612,0,0,1-.829-.205q-.35-.205-.35-.444a2.712,2.712,0,0,1,.137-.7,10.542,10.542,0,0,0,.376-2.563,3.56,3.56,0,0,0-.649-2.034,5.134,5.134,0,0,0-1.094.922,5.591,5.591,0,0,0-1.008,1.707,4.928,4.928,0,0,0-.393,1.844,1.567,1.567,0,0,0,.283.982,2.143,2.143,0,0,0,.924.624,14.784,14.784,0,0,0,1.939.565,13.424,13.424,0,0,1,3.058,1.026,4.773,4.773,0,0,1,.632.5,2.562,2.562,0,0,1,.649,1.812,4.559,4.559,0,0,1-.735,2.385A10.48,10.48,0,0,1,147.682.495a11.048,11.048,0,0,1-3.264,1.983,10.309,10.309,0,0,1-3.589.6,5.168,5.168,0,0,1-2.982-.752A2.367,2.367,0,0,1,136.761.273a3.107,3.107,0,0,1,.718-1.871,5.709,5.709,0,0,1,1.786-1.547,4.269,4.269,0,0,1,2.094-.6q.769,0,.769.342a1.4,1.4,0,0,1-.222.564,4.589,4.589,0,0,0-.667,2.2A2.134,2.134,0,0,0,141.769.735Z" transform="translate(150.433 23.84)" fill="#5f6772"/>
</svg>
