<svg xmlns="http://www.w3.org/2000/svg" width="265.4" height="36.914" viewBox="0 0 265.4 36.914">
  <path id="Path_2799" data-name="Path 2799" d="M15.125-12.1h-.082a58.446,58.446,0,0,1-3.284,5.64A34.6,34.6,0,0,1,8.332-1.969,7.392,7.392,0,0,1,6.443-.708a4.647,4.647,0,0,1-1.95.543A1.583,1.583,0,0,1,3.95-.3a1.323,1.323,0,0,1-.544-.379Q2.359-1.8,1.723-6.47A85.617,85.617,0,0,1,1.087-17.8q0-5.414.8-7.2A3.2,3.2,0,0,1,2.83-26.25a7.126,7.126,0,0,1,1.825-.964,16.953,16.953,0,0,1,2.2-.718,7.826,7.826,0,0,1,1.794-.287,1.364,1.364,0,0,1,.913.287.992.992,0,0,1,.338.8,2.565,2.565,0,0,1-.082.554,49.847,49.847,0,0,0-.8,5.373q-.267,2.3-.369,3.732T8.47-13.556q-.082,2.481-.1,4.9l.082.082q.924-1.189,1.971-2.851.369-.615.719-1.148t.76-1.251q.945-1.682,1.684-3.281a16.042,16.042,0,0,0,.657-1.5q3.08-6.85,4.333-7.937a5.868,5.868,0,0,1,2.1-.974,9.609,9.609,0,0,1,2.741-.461,2.2,2.2,0,0,1,1.294.359,1.11,1.11,0,0,1,.513.954,8.458,8.458,0,0,1-.554,2.133,46.071,46.071,0,0,0-1.733,6.768,37.062,37.062,0,0,0-.667,6.542q0,5.845,2.268,5.845.654,0,1.328-.984a9.5,9.5,0,0,0,1.155-2.5,24.329,24.329,0,0,0,.8-3.538,26.746,26.746,0,0,0,.317-4.153q0-1.271-.123-3.015-.041-.472-.041-.882,0-2.256,2.481-4.553,1.21-1.169,1.8-1.169,1.415,0,1.415,5.332a31.436,31.436,0,0,1-.82,7.26A24.511,24.511,0,0,1,30.025-6.5a19.737,19.737,0,0,1-2.244,3.035,14.951,14.951,0,0,1-2.572,2.338A5.92,5.92,0,0,1,21.766,0a5.5,5.5,0,0,1-5-2.615q-1.64-2.615-1.64-8.09ZM42.287-6.378a6.137,6.137,0,0,0,1.436-1.271A9.9,9.9,0,0,0,45.4-10.705a12.728,12.728,0,0,0,.738-2.522,13.916,13.916,0,0,0,.267-2.6q0-1.128-.472-1.128-.656,0-2.01,2.892a25.093,25.093,0,0,0-1.3,3.476,10.979,10.979,0,0,0-.5,2.984A6.618,6.618,0,0,0,42.287-6.378Zm.041.656a1.423,1.423,0,0,0,1.6,1.23,7.527,7.527,0,0,0,4-1.8,4.724,4.724,0,0,1,1.928-1.046A2.152,2.152,0,0,1,51-7.014q.533.328.533.677a1.626,1.626,0,0,1-.595.964,21.421,21.421,0,0,1-2.5,2.123,21.672,21.672,0,0,1-2.728,1.723A15.242,15.242,0,0,1,43.087-.441a8.134,8.134,0,0,1-2.338.4,5.7,5.7,0,0,1-4.1-1.466,5.146,5.146,0,0,1-1.538-3.907,13.09,13.09,0,0,1,.81-4.214,19,19,0,0,1,2.184-4.4,14.766,14.766,0,0,1,3.979-4,10.166,10.166,0,0,1,5.578-1.928,3.861,3.861,0,0,1,3.025,1.22,4.833,4.833,0,0,1,1.1,3.353,7.964,7.964,0,0,1-.872,3.466,12.455,12.455,0,0,1-2.574,3.466A13.588,13.588,0,0,1,45.6-6.275a4.852,4.852,0,0,1-2.348.779A2.13,2.13,0,0,1,42.328-5.722ZM64.21-15.34a40.342,40.342,0,0,0,1.374-4.85,19.72,19.72,0,0,0,.554-3.886q0-.369-.205-.369-.328,0-1.148,1.466A20.5,20.5,0,0,0,63.41-20q-1.189,3.343-1.835,5.547a32.192,32.192,0,0,0-.892,3.7,18.808,18.808,0,0,0-.246,3.056,4.744,4.744,0,0,0,.3,1.948.994.994,0,0,0,.954.615,4.492,4.492,0,0,0,2.522-.995,10.6,10.6,0,0,0,2.522-2.615q.882-1.21,1.374-1.21.636,0,.636,1a7.719,7.719,0,0,1-1.374,4.286,10.9,10.9,0,0,1-3.538,3.394,8.475,8.475,0,0,1-4.419,1.3A6.1,6.1,0,0,1,54.9-1.7a6.157,6.157,0,0,1-1.743-4.553,18.09,18.09,0,0,1,.984-5.383,38.173,38.173,0,0,1,2.635-6.214,38.9,38.9,0,0,1,3.62-5.67,18.682,18.682,0,0,1,3.9-3.9,4.337,4.337,0,0,1,2.646-.882,3.238,3.238,0,0,1,2.01.687A4.389,4.389,0,0,1,70.342-25.7a7.283,7.283,0,0,1,.492,2.728,16.455,16.455,0,0,1-1.261,6.3,16.072,16.072,0,0,1-3.517,5.332A11.422,11.422,0,0,1,64-9.639a3.384,3.384,0,0,1-1.723.615q-.718,0-.718-.554a3.013,3.013,0,0,1,.533-1.169,24.506,24.506,0,0,0,1.682-3.4q.082-.226.185-.482T64.21-15.34Zm19.4-4.45a3.776,3.776,0,0,1,2.481.9,2.9,2.9,0,0,1,.923,2.256,5.01,5.01,0,0,1-.708,2.481A6.5,6.5,0,0,1,84.523-12.1a3.613,3.613,0,0,1-2.164.8q-.636,0-.636-.451a2.485,2.485,0,0,1,.246-.718,6.011,6.011,0,0,0,.8-3.117q0-.882-.205-.882-.287,0-.82.738a7.2,7.2,0,0,0-.9,1.743,23.307,23.307,0,0,0-1.056,3.363,13.537,13.537,0,0,0-.42,3.015,4.762,4.762,0,0,0,.42,2.194,1.3,1.3,0,0,0,1.179.8,3.871,3.871,0,0,0,1.866-.738,11.9,11.9,0,0,0,2.215-1.825q.431-.554.759-.554.492,0,.492.554A6.456,6.456,0,0,1,84.328-2.6,11.045,11.045,0,0,1,81.221-.42,7.484,7.484,0,0,1,78.073.41a5.665,5.665,0,0,1-4.061-1.538A5.118,5.118,0,0,1,72.393-5a13.155,13.155,0,0,1,1.036-4.912,20.429,20.429,0,0,1,2.83-4.891,18.02,18.02,0,0,1,4.071-3.876,5.725,5.725,0,0,1,3.2-1.107Zm18.6-.841q3.056,0,3.056.718,0,.82-1.374.882a6.884,6.884,0,0,0-3.1.943,8.88,8.88,0,0,0-2.553,2.3A11.43,11.43,0,0,0,96.5-12.51a11.81,11.81,0,0,0-.625,3.855,5.758,5.758,0,0,0,1.046,3.6,3.279,3.279,0,0,0,2.728,1.364,3.352,3.352,0,0,0,2.728-1.6,6.157,6.157,0,0,0,1.169-3.732,7.507,7.507,0,0,0-.728-3.271,6.882,6.882,0,0,0-2.123-2.574q-.595-.472-.595-.677,0-.287.841-.882a9.863,9.863,0,0,1,2.112-1.066,5.91,5.91,0,0,1,1.969-.431,3.441,3.441,0,0,1,1.753.482,4.717,4.717,0,0,1,1.466,1.374,6.773,6.773,0,0,1,.974,2.051,8.775,8.775,0,0,1,.338,2.471,11.832,11.832,0,0,1-.82,4.3,9.589,9.589,0,0,1-2.153,3.435A13.883,13.883,0,0,1,102.426-1.1,11.609,11.609,0,0,1,97.8-.041a12.7,12.7,0,0,1-4.235-.738,8.863,8.863,0,0,1-3.333-1.948,6.3,6.3,0,0,1-1.641-4.655,10.706,10.706,0,0,1,1.169-4.758,15.523,15.523,0,0,1,3.168-4.317,29.685,29.685,0,0,1,4.409-3.056A21.455,21.455,0,0,1,102.211-20.631ZM133.67-7.424l-5.6,5.742a10.226,10.226,0,0,1-1.753,1.487,2.8,2.8,0,0,1-1.466.4,2.732,2.732,0,0,1-2.1-.933,3.269,3.269,0,0,1-.851-2.287,7.393,7.393,0,0,1,.256-1.835,29.833,29.833,0,0,1,1.015-2.963q.144-.41.277-.708t.215-.5l-.082-.082q-1.989,2.092-3.9,4.409-1.6,1.907-2.543,2.851a9.941,9.941,0,0,1-1.7,1.415,2.644,2.644,0,0,1-1.354.472A2.5,2.5,0,0,1,111.973-1a4.672,4.672,0,0,1-.779-2.851q0-2.276,1.969-7.362a42.455,42.455,0,0,1,2.727-6.05,3.96,3.96,0,0,1,3.239-2.133,3.065,3.065,0,0,1,1.834.523,1.607,1.607,0,0,1,.728,1.363,15.318,15.318,0,0,1-1.164,4.694q-.449,1.168-.919,2.644l.082.082q.758-.84,2.439-2.89a43.535,43.535,0,0,1,4.366-4.857,5.438,5.438,0,0,1,3.487-1.763,2.205,2.205,0,0,1,1.333.472,3.334,3.334,0,0,1,1.015,1.262,3.766,3.766,0,0,1,.38,1.651,20.781,20.781,0,0,1-1.267,4.514q-.266.759-.409,1.19t-.266.739l.1.082.512-.513q.225-.226.5-.482l.522-.482q.553-.534,2.785-2.811a16.646,16.646,0,0,1,2.315-2.247,2.8,2.8,0,0,1,1.62-.6,2.291,2.291,0,0,1,1.938.872,4.191,4.191,0,0,1,.667,2.574,25.714,25.714,0,0,1-.328,3.3q-.287,2.543-.4,3.989t-.113,2.02q0,.431.051,1.1t.174,1.425q.123.759.328,1.682.246,1.128.328,1.764a1.98,1.98,0,0,1-1.077,1.251,3.974,3.974,0,0,1-1.979.513,4.379,4.379,0,0,1-3.158-1.518,6.1,6.1,0,0,1-1.015-1.4,5.659,5.659,0,0,1-.513-1.682,17.193,17.193,0,0,1-.154-2.574q0-1.046.246-4.327l-.082-.082Zm17.083,1.046a6.137,6.137,0,0,0,1.436-1.271,9.9,9.9,0,0,0,1.682-3.056,12.728,12.728,0,0,0,.738-2.522,13.916,13.916,0,0,0,.267-2.6q0-1.128-.472-1.128-.656,0-2.01,2.892a25.093,25.093,0,0,0-1.3,3.476,10.979,10.979,0,0,0-.5,2.984A6.618,6.618,0,0,0,150.753-6.378Zm.041.656a1.423,1.423,0,0,0,1.6,1.23,7.527,7.527,0,0,0,4-1.8,4.724,4.724,0,0,1,1.928-1.046,2.152,2.152,0,0,1,1.148.328q.533.328.533.677a1.626,1.626,0,0,1-.595.964,21.421,21.421,0,0,1-2.5,2.123,21.672,21.672,0,0,1-2.728,1.723,15.242,15.242,0,0,1-2.625,1.087,8.134,8.134,0,0,1-2.338.4,5.7,5.7,0,0,1-4.1-1.466,5.146,5.146,0,0,1-1.538-3.907,13.09,13.09,0,0,1,.81-4.214,19,19,0,0,1,2.184-4.4,14.766,14.766,0,0,1,3.979-4,10.166,10.166,0,0,1,5.578-1.928,3.861,3.861,0,0,1,3.025,1.22,4.833,4.833,0,0,1,1.1,3.353,7.964,7.964,0,0,1-.872,3.466A12.455,12.455,0,0,1,156.8-8.449a13.588,13.588,0,0,1-2.738,2.174,4.852,4.852,0,0,1-2.348.779A2.13,2.13,0,0,1,150.794-5.722ZM184.55-8.736a2.824,2.824,0,0,1-.718.164,1.49,1.49,0,0,1-1.179-.533,1.994,1.994,0,0,1-.461-1.354,10.868,10.868,0,0,1,1.148-4.184,12.274,12.274,0,0,1,2.42-3.794,2.885,2.885,0,0,1,2.092-.923,2.222,2.222,0,0,1,1.559.6,3.844,3.844,0,0,1,1,1.743,9.1,9.1,0,0,1,.349,2.656,16.369,16.369,0,0,1-1.6,7.157A14.09,14.09,0,0,1,184.9-1.866,9.388,9.388,0,0,1,179.177.123a6.3,6.3,0,0,1-3.466-.943,6.162,6.162,0,0,1-2.287-2.717,9.808,9.808,0,0,1-.81-4.112,19.948,19.948,0,0,1,.718-4.973,35.224,35.224,0,0,1,2.01-5.619,40.109,40.109,0,0,1,3.076-5.568,15.493,15.493,0,0,1,4.327-4.573,6.016,6.016,0,0,1,3.527-1.189,4.034,4.034,0,0,1,3.015,1.148,4.172,4.172,0,0,1,1.128,3.056,5.014,5.014,0,0,1-1.036,2.84,8.662,8.662,0,0,1-2.6,2.451,5.846,5.846,0,0,1-3.066.964q-.718,0-.718-.369a2.374,2.374,0,0,1,.595-1.046,11.893,11.893,0,0,0,1.661-2.84,7.418,7.418,0,0,0,.677-2.8q0-1.087-.328-1.087-.41,0-1.271,1.354a17.668,17.668,0,0,0-1.538,3.1,59.562,59.562,0,0,0-2.461,7.947,29.489,29.489,0,0,0-.861,6.409A7.8,7.8,0,0,0,180.11-5.1q.646,1.364,1.569,1.364a2.261,2.261,0,0,0,1.948-1.323A8.3,8.3,0,0,0,184.55-8.736Zm23.194-1.928-.39.123a9.156,9.156,0,0,1-2.133.41q-.8,0-.8-.41a2.669,2.669,0,0,1,.328-.759,6.035,6.035,0,0,0,1.148-3.281,4.1,4.1,0,0,0-.308-1.61q-.308-.728-.677-.728-.328,0-1,.7a19.4,19.4,0,0,0-3.025,4.245A8.669,8.669,0,0,0,199.767-8.1a3.464,3.464,0,0,0,.461,1.866,1.348,1.348,0,0,0,1.159.738,5.157,5.157,0,0,0,2.225-1.271,36.821,36.821,0,0,0,3.661-3.363l.554-.451Zm-1.23,4.7v.082l-.082-.082a38.664,38.664,0,0,1-3.5,3.661A15.426,15.426,0,0,1,200-.164a5.309,5.309,0,0,1-2.471.718,5.069,5.069,0,0,1-3.794-1.538,5.358,5.358,0,0,1-1.5-3.9,10.158,10.158,0,0,1,.738-3.445,18.306,18.306,0,0,1,2.03-3.9,19.958,19.958,0,0,1,5.414-5.291,11.758,11.758,0,0,1,6.48-2.235,7.91,7.91,0,0,1,4.317,1.077,3.16,3.16,0,0,1,1.692,2.717,4.894,4.894,0,0,1-.841,2.563,2.561,2.561,0,0,1,1.395.236q.287.236.287,1.1,0-.082-.1.841-.123,2.03-.123,3.794,0,.923.021,1.395t.082,1.087q.062.615.123.984a9.683,9.683,0,0,0,.533,1.907,9.575,9.575,0,0,1-2.358,1.774,5.085,5.085,0,0,1-2.3.564q-3.158,0-3.158-5.291A8.735,8.735,0,0,1,206.514-5.968ZM226.878-19.79a3.776,3.776,0,0,1,2.481.9,2.9,2.9,0,0,1,.923,2.256,5.01,5.01,0,0,1-.708,2.481,6.5,6.5,0,0,1-1.784,2.051,3.613,3.613,0,0,1-2.164.8q-.636,0-.636-.451a2.485,2.485,0,0,1,.246-.718,6.011,6.011,0,0,0,.8-3.117q0-.882-.205-.882-.287,0-.82.738a7.2,7.2,0,0,0-.9,1.743,23.307,23.307,0,0,0-1.056,3.363,13.537,13.537,0,0,0-.42,3.015,4.762,4.762,0,0,0,.42,2.194,1.3,1.3,0,0,0,1.179.8,3.871,3.871,0,0,0,1.866-.738,11.9,11.9,0,0,0,2.215-1.825q.431-.554.759-.554.492,0,.492.554A6.456,6.456,0,0,1,227.6-2.6,11.045,11.045,0,0,1,224.489-.42a7.484,7.484,0,0,1-3.148.831,5.665,5.665,0,0,1-4.061-1.538A5.118,5.118,0,0,1,215.66-5,13.155,13.155,0,0,1,216.7-9.916a20.429,20.429,0,0,1,2.83-4.891,18.02,18.02,0,0,1,4.071-3.876,5.725,5.725,0,0,1,3.2-1.107ZM251.323,3.644q-2.871,3.7-4.368,3.7a4,4,0,0,1-2.287-.851,9.855,9.855,0,0,1-2.246-2.3,12.832,12.832,0,0,1-1.661-3.127,9.314,9.314,0,0,1-.615-3.2,1.663,1.663,0,0,1,.287-1.148,4.348,4.348,0,0,1,.554-.41q3.445-2.133,3.445-4.04,0-1-.882-1-.943,0-2.43,1.815a20.558,20.558,0,0,0-2.7,4.44,6.6,6.6,0,0,1-1.23,2.112,2.178,2.178,0,0,1-1.456.41,3.039,3.039,0,0,1-1.887-.6,3.879,3.879,0,0,1-1.241-1.723,6.917,6.917,0,0,1-.441-2.553,23.574,23.574,0,0,1,.554-4.84,36.205,36.205,0,0,1,1.548-5.271,40.838,40.838,0,0,1,2.369-5.168,32.932,32.932,0,0,1,2.871-4.45q2.953-3.732,5.763-3.732a4.878,4.878,0,0,1,2.492.636,4.275,4.275,0,0,1,1.692,1.8,5.939,5.939,0,0,1,.595,2.728,8.475,8.475,0,0,1-.943,3.8,9.016,9.016,0,0,1-2.451,3.1,4.852,4.852,0,0,1-3.025,1.2q-.718,0-.718-.513a3.294,3.294,0,0,1,.369-.964,17.7,17.7,0,0,0,1.8-8.1q0-1.169-.287-1.169-.205,0-.625.595a8.852,8.852,0,0,0-.81,1.456,45.444,45.444,0,0,0-3.261,11.669q-.062.349-.133.923T239.8-9.823l.082.082a18,18,0,0,1,1.384-1.774,11,11,0,0,1,1.446-1.261,8.591,8.591,0,0,1,5.168-2.174,2.888,2.888,0,0,1,2.02.718,2.381,2.381,0,0,1,.79,1.845,11.056,11.056,0,0,1-1.762,5.7,15.079,15.079,0,0,1-1.137,1.7q-.645.84-1.854,2.173A28.793,28.793,0,0,0,247.62-.294a15.032,15.032,0,0,0,2.117,2.212A7.465,7.465,0,0,1,251.323,3.644Zm4.819-11.211a1.223,1.223,0,0,1-1.394-1.374,7.718,7.718,0,0,1,.226-1.354,108.1,108.1,0,0,1,3.609-12.592,5.732,5.732,0,0,1,1.088-2.01,5.973,5.973,0,0,1,2.34-1.4,8.85,8.85,0,0,1,3.079-.584q1.4,0,1.4.965,0,1.109-2.779,8.078-2.87,7.076-3.321,7.712a5.136,5.136,0,0,1-1.23,1.189,9.995,9.995,0,0,1-1.661.984A3.453,3.453,0,0,1,256.142-7.567ZM254.666.082a1.833,1.833,0,0,1-1.271-.441,1.481,1.481,0,0,1-.492-1.159,6.837,6.837,0,0,1,1.354-3.363,4.033,4.033,0,0,1,.492-.615,4.718,4.718,0,0,1,1.559-1,4.725,4.725,0,0,1,1.8-.39,2.227,2.227,0,0,1,1.313.349,1.079,1.079,0,0,1,.492.923,5.546,5.546,0,0,1-.369,1.753,9.92,9.92,0,0,1-.882,1.9,3.137,3.137,0,0,1-.964.923A5.615,5.615,0,0,1,254.666.082Z" transform="translate(-1.087 29.572)" fill="#5f6772"/>
</svg>
