<svg xmlns="http://www.w3.org/2000/svg" width="131.752" height="33.667" viewBox="0 0 131.752 33.667">
  <g id="Layer_x0020_1" style="isolation: isolate">
    <g id="_80490686608" transform="translate(0 0)">
      <path id="Path_17" data-name="Path 17" d="M24.949,7.4a2.345,2.345,0,0,1,1.742.727A2.42,2.42,0,0,1,27.4,9.89v9.545a7.809,7.809,0,0,1-.636,3.136,8.1,8.1,0,0,1-4.288,4.288,7.806,7.806,0,0,1-3.136.636h-.03a8.017,8.017,0,0,1-3.076-.591,7.892,7.892,0,0,1-2.53-1.651,7.89,7.89,0,0,1-2.53,1.651A8.019,8.019,0,0,1,8.1,27.5a7.8,7.8,0,0,1-3.136-.636,8.36,8.36,0,0,1-2.576-1.727,8.047,8.047,0,0,1-1.742-2.56A7.809,7.809,0,0,1,.01,19.435V9.89A2.41,2.41,0,0,1,.732,8.132,2.379,2.379,0,0,1,2.48,7.4a2.379,2.379,0,0,1,1.747.727A2.409,2.409,0,0,1,4.949,9.89v9.545A3.143,3.143,0,0,0,9.3,22.314a3.068,3.068,0,0,0,1.005-.667,3.118,3.118,0,0,0,.914-2.212V9.89a.121.121,0,0,1,.015-.076.062.062,0,0,0,.015-.046V9.5a.176.176,0,0,0,.03-.121.267.267,0,0,0,.03-.121.269.269,0,0,1,.03-.121.123.123,0,0,0,.03-.091A2.3,2.3,0,0,1,12.217,7.9a2.6,2.6,0,0,1,1.353-.5h.273a2.521,2.521,0,0,1,1.338.5,2.336,2.336,0,0,1,.828,1.136.124.124,0,0,1,.03.091.993.993,0,0,1,.061.243.269.269,0,0,1,.03.121.913.913,0,0,1,.03.273v9.667A3.126,3.126,0,0,0,19.3,22.556h.03a3.118,3.118,0,0,0,1.217-.242,3.066,3.066,0,0,0,1.005-.667,3.118,3.118,0,0,0,.914-2.212V9.89a2.42,2.42,0,0,1,.712-1.758A2.38,2.38,0,0,1,24.95,7.4ZM38.01,27.5a10.137,10.137,0,0,1-3.9-.788,12,12,0,0,1-1.677-.919A9.737,9.737,0,0,1,29.7,23.061a11.97,11.97,0,0,1-.919-1.677,8.343,8.343,0,0,1-.606-1.924,10.813,10.813,0,0,1-.182-1.98,10.982,10.982,0,0,1,.182-2.01,7.82,7.82,0,0,1,.606-1.894,10.049,10.049,0,0,1,2.146-3.207A10.03,10.03,0,0,1,41.914,8.223a10.762,10.762,0,0,1,3.207,2.146,10.768,10.768,0,0,1,2.146,3.207,9.747,9.747,0,0,1,.727,2.772,10.183,10.183,0,0,1-5.986-2.11,5.2,5.2,0,0,0-1.4-1.211,5.1,5.1,0,0,0-7.674,4.4v.064a4.84,4.84,0,0,0,.409,1.958,5.174,5.174,0,0,0,2.7,2.7,5.02,5.02,0,0,0,3.97,0,5.449,5.449,0,0,0,1.621-1.091l.019-.018a10.55,10.55,0,0,1,6.334-2.363,10.306,10.306,0,0,1-.717,2.71,10.2,10.2,0,0,1-2.146,3.177A10.1,10.1,0,0,1,38.01,27.5Zm20.287,0a10.137,10.137,0,0,1-3.9-.788,12.006,12.006,0,0,1-1.677-.919,9.737,9.737,0,0,1-2.727-2.727,11.971,11.971,0,0,1-.919-1.677,8.352,8.352,0,0,1-.606-1.924q-.073-.392-.117-.788A9.952,9.952,0,0,1,54.481,20.8q.115.133.24.257a5.251,5.251,0,0,0,1.606,1.091,5.02,5.02,0,0,0,3.97,0q.1-.044.2-.092h0l0,0a5.1,5.1,0,0,0,1.362-.927,10.189,10.189,0,0,1,6.41-2.452,10.3,10.3,0,0,1-.717,2.71,10.2,10.2,0,0,1-2.146,3.177A10.1,10.1,0,0,1,58.3,27.5ZM48.338,16.351q.045-.446.126-.881a7.824,7.824,0,0,1,.606-1.894,10.049,10.049,0,0,1,2.146-3.207A10.03,10.03,0,0,1,62.2,8.223a10.76,10.76,0,0,1,3.207,2.146,10.768,10.768,0,0,1,2.146,3.207,9.742,9.742,0,0,1,.727,2.773A10.183,10.183,0,0,1,62.4,14.325a5.1,5.1,0,0,0-8.138.065,10.184,10.184,0,0,1-5.921,1.961ZM86.054-.019A2.345,2.345,0,0,1,87.8.708a2.421,2.421,0,0,1,.712,1.758V24.92a2.421,2.421,0,0,1-.712,1.758,2.344,2.344,0,0,1-1.742.727,2.374,2.374,0,0,1-1.349-.394,2.571,2.571,0,0,1-.894-1,6.426,6.426,0,0,1-1.394.7,9.38,9.38,0,0,1-3.879.788,10.666,10.666,0,0,1-1.97-.182,8.376,8.376,0,0,1-1.909-.606,9.807,9.807,0,0,1-4.379-3.616,11.484,11.484,0,0,1-.924-1.677,9.735,9.735,0,0,1-.725-2.742c2.257.062,5.292,1.793,6.356,2.418a5.055,5.055,0,0,0,1.591,1.071,4.85,4.85,0,0,0,1.944.394,5.114,5.114,0,1,0-3.884-8.244,10.185,10.185,0,0,1-6,2.038,10.289,10.289,0,0,1,.715-2.683,10.154,10.154,0,0,1,2.151-3.177A9.622,9.622,0,0,1,74.66,8.374a10.087,10.087,0,0,1,3.879-.788,9.878,9.878,0,0,1,3.879.783q.3.121.591.257c.192.091.379.187.561.283V2.47A2.44,2.44,0,0,1,84.281.708,2.38,2.38,0,0,1,86.054-.02ZM92.114,27.5a2.449,2.449,0,0,1-2.47-2.485V2.647A2.409,2.409,0,0,1,90.367.89a2.463,2.463,0,0,1,3.495,0,2.41,2.41,0,0,1,.722,1.758V25.011a2.449,2.449,0,0,1-2.47,2.485Zm6.621,0a2.449,2.449,0,0,1-2.47-2.485V9.89a2.409,2.409,0,0,1,.722-1.758,2.463,2.463,0,0,1,3.495,0A2.41,2.41,0,0,1,101.2,9.89V25.011a2.449,2.449,0,0,1-2.47,2.485ZM119.4,14.871V25.162a8.436,8.436,0,0,1-.661,3.3,9.979,9.979,0,0,1-1.808,2.7,8.3,8.3,0,0,1-2.682,1.818,8.845,8.845,0,0,1-3.3.667,8.6,8.6,0,0,1-4.7-1.4,8.647,8.647,0,0,1-1.833-1.626,8.052,8.052,0,0,1-1.288-2.126,2.331,2.331,0,0,1-.03-1.909,2.4,2.4,0,0,1,1.333-1.333,2.331,2.331,0,0,1,1.909-.03,2.4,2.4,0,0,1,1.333,1.333,3.534,3.534,0,0,0,1.318,1.561,3.471,3.471,0,0,0,1.954.591,3.424,3.424,0,0,0,1.364-.273,3.58,3.58,0,0,0,1.879-1.889,3.474,3.474,0,0,0,.273-1.374V23.561a.66.66,0,0,1-.131.045.674.674,0,0,0-.131.045,8.571,8.571,0,0,1-6.616-.005,8.3,8.3,0,0,1-2.682-1.818,8.417,8.417,0,0,1-1.808-2.7,8.331,8.331,0,0,1-.662-3.3,8.191,8.191,0,0,1,.662-3.3,7.617,7.617,0,0,1,1.808-2.7,8.387,8.387,0,0,1,5.985-2.485,8.111,8.111,0,0,1,3.3.667,2.775,2.775,0,0,1,.364.151l.364.182.049-.064a8.6,8.6,0,0,1,4.436,6.591Zm-8.5,4.5a3.561,3.561,0,0,0,1.384-.273,3.484,3.484,0,0,0,1.141-.763,3.527,3.527,0,0,0,.763-1.126,3.449,3.449,0,0,0,.273-1.369,3.56,3.56,0,0,0-.273-1.384,3.519,3.519,0,0,0-1.9-1.9,3.559,3.559,0,0,0-1.384-.273,3.451,3.451,0,0,0-1.369.273,3.527,3.527,0,0,0-1.126.763,3.483,3.483,0,0,0-.763,1.141,3.559,3.559,0,0,0-.273,1.384,3.451,3.451,0,0,0,.273,1.369,3.6,3.6,0,0,0,1.889,1.889A3.449,3.449,0,0,0,110.9,19.375Z" transform="translate(-0.01 0.02)" fill="#fff"/>
      <g id="Group_1289" data-name="Group 1289" transform="translate(121.838 21.652)">
        <text id="T" transform="translate(0 6)" fill="#fff" font-size="6" font-family="SegoeUI-Bold, Segoe UI" font-weight="700"><tspan x="0" y="0">T</tspan></text>
        <text id="M" transform="translate(3.914 6)" fill="#fff" font-size="6" font-family="SegoeUI-Bold, Segoe UI" font-weight="700"><tspan x="0" y="0">M</tspan></text>
      </g>
    </g>
  </g>
</svg>
